<?xml version="1.0" encoding="UTF-8"?>
<svg xmlns="http://www.w3.org/2000/svg" version="1.1" xmlns:xlink="http://www.w3.org/1999/xlink" viewBox="0 0 9.2 46.3">
  <defs>
    <style>
      .cls-1 {
        fill: url(#linear-gradient);
      }
    </style>
    <linearGradient id="linear-gradient" x1="3179.5" y1="-643.7" x2="19536.2" y2="-4254.9" gradientTransform="translate(0 -3206.6) scale(1 -1)" gradientUnits="userSpaceOnUse">
      <stop offset="0" stop-color="#ffb5ff"/>
      <stop offset="1" stop-color="#a197ff"/>
    </linearGradient>
  </defs>
  <!-- Generator: Adobe Illustrator 28.7.1, SVG Export Plug-In . SVG Version: 1.2.0 Build 142)  -->
  <g>
    <g id="Layer_1">
      <path class="cls-1" d="M4011.1-560.5C4321.4,52,5794.4,57.3,8727.7,43c2214.6-10.8,2860.2-142.2,3129.3-611.3,287-500.4,119.5-1341.9-402.2-1742.2-545.8-418.8-1376.8-126.2-1471.9-91.2-507.6,186.5-797.3,545.9-912.4,707.5,9.5-233.3-1.3-793.3-371.8-1290.4-663.6-890.5-1887.7-782.6-2093.5-764.4-138.3,12.2-837.6,85-1501.1,622.4-761.4,616.7-1463.4,1835.4-1093.2,2566.1Z"/>
    </g>
  </g>
</svg>