<?xml version="1.0" encoding="UTF-8"?>
<svg xmlns="http://www.w3.org/2000/svg" version="1.1" xmlns:xlink="http://www.w3.org/1999/xlink" viewBox="0 0 11478.5 5425">
  <defs>
    <style>
      .cls-1 {
        fill: url(#linear-gradient);
      }
    </style>
    <linearGradient id="linear-gradient" x1="-754.7" y1="5722.7" x2="20918.8" y2="10507.8" gradientTransform="translate(0 -3974.6)" gradientUnits="userSpaceOnUse">
      <stop offset="0" stop-color="#ffb5ff"/>
      <stop offset="1" stop-color="#a197ff"/>
    </linearGradient>
  </defs>
  <!-- Generator: Adobe Illustrator 28.7.1, SVG Export Plug-In . SVG Version: 1.2.0 Build 142)  -->
  <g>
    <g id="Layer_1">
      <g id="Layer_1-2" data-name="Layer_1">
        <path class="cls-1" d="M347.2,4401.4c411.2,811.6,2363,818.6,6249.7,799.7,2934.5-14.3,3789.9-188.4,4146.5-810,380.3-663.1,158.3-1778.1-532.9-2308.5-723.2-554.9-1824.3-167.2-1950.3-120.8-672.6,247.1-1056.5,723.3-1209,937.5,12.6-309.1-1.7-1051.2-492.7-1709.8C5679.3,9.4,4057.3,152.3,3784.6,176.4c-183.3,16.2-1109.9,112.6-1989,824.7C786.6,1818.3-143.6,3433.2,347,4401.4h.3Z"/>
      </g>
    </g>
  </g>
</svg>