<?xml version="1.0" encoding="UTF-8"?>
<svg xmlns="http://www.w3.org/2000/svg" version="1.1" xmlns:xlink="http://www.w3.org/1999/xlink" viewBox="0 0 12402.4 9052.6">
  <defs>
    <style>
      .cls-1 {
        fill: url(#linear-gradient-2);
      }

      .cls-2 {
        fill: url(#linear-gradient-4);
      }

      .cls-3 {
        fill: url(#linear-gradient-3);
      }

      .cls-4 {
        fill: url(#linear-gradient);
      }
    </style>
    <linearGradient id="linear-gradient" x1="9816.3" y1="10712" x2="7806.4" y2="5858.9" gradientTransform="translate(0 8990.1) scale(1 -1)" gradientUnits="userSpaceOnUse">
      <stop offset="0" stop-color="#ffb5ff"/>
      <stop offset="1" stop-color="#a197ff"/>
    </linearGradient>
    <linearGradient id="linear-gradient-2" x1="2253.4" y1="1122.6" x2="4884.2" y2="4129.3" gradientTransform="translate(0 8990.1) scale(1 -1)" gradientUnits="userSpaceOnUse">
      <stop offset="0" stop-color="#ffb5ff"/>
      <stop offset="1" stop-color="#a197ff"/>
    </linearGradient>
    <linearGradient id="linear-gradient-3" x1="10163" y1="1312.5" x2="5440.6" y2="5397.6" gradientTransform="translate(0 8990.1) scale(1 -1)" gradientUnits="userSpaceOnUse">
      <stop offset="0" stop-color="#ffb5ff"/>
      <stop offset="1" stop-color="#a197ff"/>
    </linearGradient>
    <linearGradient id="linear-gradient-4" x1="10" y1="-13214.2" x2="16117.1" y2="-9658.1" gradientTransform="translate(0 15166)" gradientUnits="userSpaceOnUse">
      <stop offset="0" stop-color="#ffb5ff"/>
      <stop offset="1" stop-color="#a197ff"/>
    </linearGradient>
  </defs>
  <!-- Generator: Adobe Illustrator 28.7.1, SVG Export Plug-In . SVG Version: 1.2.0 Build 142)  -->
  <g>
    <g id="Layer_1">
      <g id="Layer_1-2" data-name="Layer_1">
        <path class="cls-4" d="M3909.4,3461.8c262.9,1582.8,2297.2,2323.2,3617,2404.8,1784.8,110.2,3953.3-880.3,4229-2412.5,152-845.1-316.9-1604.1-402.2-1742.2-592.9-959.8-1600.1-1243.8-1984.8-1352.3-772-217.7-1574.8-167.8-2760.4-94.2-45,2.8-72.2,5.1-104.3,7.9-138.3,12.2-837.6,85-1501.1,622.4-630.4,510.6-1263.1,1543.2-1093.2,2566.1h0Z"/>
        <path class="cls-1" d="M118.4,6297.8c262.9,1582.8,2297.2,2323.2,3617,2404.8,1784.8,110.2,3953.3-880.3,4229-2412.5,152-845.1-316.9-1604.1-402.2-1742.2-592.9-959.8-1600.1-1243.8-1984.8-1352.3-772-217.7-1574.8-167.8-2760.4-94.2-45,2.8-72.2,5.1-104.3,7.9-138.3,12.2-837.6,85-1501.1,622.4C581.2,4242.3-51.5,5274.9,118.4,6297.8h0Z"/>
        <path class="cls-3" d="M4399.4,6542.8c262.9,1582.8,2297.2,2323.2,3617,2404.8,1784.8,110.2,3953.3-880.3,4229-2412.5,152-845.1-316.9-1604.1-402.2-1742.2-592.9-959.8-1600.1-1243.8-1984.8-1352.3-772-217.7-1574.8-167.8-2760.4-94.2-45,2.8-72.2,5.1-104.3,7.9-138.3,12.2-837.6,85-1501.1,622.4-630.4,510.6-1263.1,1543.2-1093.2,2566.1h0Z"/>
        <path class="cls-2" d="M854.4,3461.8c262.9,1582.8,2297.2,2323.2,3617,2404.8,1784.8,110.2,3953.3-880.3,4229-2412.5,152-845.1-316.9-1604.1-402.2-1742.2-592.9-959.8-1600.1-1243.8-1984.8-1352.3-772-217.7-1574.8-167.8-2760.4-94.2-45,2.8-72.2,5.1-104.3,7.9-138.3,12.2-837.6,85-1501.1,622.4-630.4,510.6-1263.1,1543.2-1093.2,2566.1h0Z"/>
      </g>
    </g>
  </g>
</svg>