<?xml version="1.0" encoding="UTF-8"?>
<svg xmlns="http://www.w3.org/2000/svg" version="1.1" xmlns:xlink="http://www.w3.org/1999/xlink" viewBox="0 0 1366 768">
  <defs>
    <style>
      .cls-1 {
        fill: url(#linear-gradient-2);
      }

      .cls-2 {
        fill: url(#linear-gradient-4);
      }

      .cls-3 {
        fill: url(#linear-gradient-3);
      }

      .cls-4 {
        fill: url(#linear-gradient);
      }
    </style>
    <linearGradient id="linear-gradient" x1="11783.9" y1="2974.57" x2="9774.03" y2="7827.68" gradientUnits="userSpaceOnUse">
      <stop offset="0" stop-color="#ffb5ff"/>
      <stop offset="1" stop-color="#a197ff"/>
    </linearGradient>
    <linearGradient id="linear-gradient-2" x1="4220.97" y1="12563.91" x2="6851.78" y2="9557.27" xlink:href="#linear-gradient"/>
    <linearGradient id="linear-gradient-3" x1="12130.57" y1="12374.05" x2="7408.19" y2="8288.95" xlink:href="#linear-gradient"/>
    <linearGradient id="linear-gradient-4" x1="1977.59" y1="9285.74" x2="18084.66" y2="5729.64" gradientTransform="translate(0 15934) scale(1 -1)" xlink:href="#linear-gradient"/>
  </defs>
  <!-- Generator: Adobe Illustrator 28.7.1, SVG Export Plug-In . SVG Version: 1.2.0 Build 142)  -->
  <g>
    <g id="Layer_1">
      <path class="cls-4" d="M5877.03,8158.25c262.88,1582.77,2297.18,2323.24,3616.97,2404.75,1784.82,110.24,3953.34-880.27,4228.95-2412.53,152.01-845.06-316.86-1604.06-402.18-1742.18-592.92-959.83-1600.12-1243.82-1984.77-1352.29-772.05-217.7-1574.78-167.83-2760.37-94.17-45.01,2.8-72.24,5.07-104.32,7.9-138.33,12.2-837.63,84.96-1501.11,622.39-630.39,510.63-1263.06,1543.2-1093.16,2566.13Z"/>
      <path class="cls-1" d="M2086.03,10994.25c262.88,1582.77,2297.18,2323.24,3616.97,2404.75,1784.82,110.24,3953.34-880.27,4228.95-2412.53,152.01-845.06-316.86-1604.06-402.18-1742.18-592.92-959.83-1600.12-1243.82-1984.77-1352.29-772.05-217.7-1574.78-167.83-2760.37-94.17-45.01,2.8-72.24,5.07-104.32,7.9-138.33,12.2-837.63,84.96-1501.11,622.39-630.39,510.63-1263.06,1543.2-1093.16,2566.13Z"/>
      <path class="cls-3" d="M6367.03,11239.25c262.88,1582.77,2297.18,2323.24,3616.97,2404.75,1784.82,110.24,3953.34-880.27,4228.95-2412.53,152.01-845.06-316.86-1604.06-402.18-1742.18-592.92-959.83-1600.12-1243.82-1984.77-1352.29-772.05-217.7-1574.78-167.83-2760.37-94.17-45.01,2.8-72.24,5.07-104.32,7.9-138.33,12.2-837.63,84.96-1501.11,622.39-630.39,510.63-1263.06,1543.2-1093.16,2566.13Z"/>
      <path class="cls-2" d="M2822.03,8158.25c262.88,1582.77,2297.18,2323.24,3616.97,2404.75,1784.82,110.24,3953.34-880.27,4228.95-2412.53,152.01-845.06-316.86-1604.06-402.18-1742.18-592.92-959.83-1600.12-1243.82-1984.77-1352.29-772.05-217.7-1574.78-167.83-2760.37-94.17-45.01,2.8-72.24,5.07-104.32,7.9-138.33,12.2-837.63,84.96-1501.11,622.39-630.39,510.63-1263.06,1543.2-1093.16,2566.13Z"/>
    </g>
  </g>
</svg>