<?xml version="1.0" encoding="UTF-8"?>
<svg xmlns="http://www.w3.org/2000/svg" version="1.1" viewBox="0 0 4555.6 6484.5">
  <defs>
    <style>
      .cls-1 {
        fill: #adffff;
      }
    </style>
  </defs>
  <!-- Generator: Adobe Illustrator 28.7.1, SVG Export Plug-In . SVG Version: 1.2.0 Build 142)  -->
  <g>
    <g id="Layer_1">
      <g id="Layer_1-2" data-name="Layer_1">
        <g>
          <path class="cls-1" d="M801.2,3931.4c-83.1,0-163.7-16.3-239.6-48.4-73.3-31-139.1-75.4-195.6-131.9s-100.9-122.4-131.9-195.6c-32.1-75.9-48.4-156.5-48.4-239.6s16.3-163.7,48.4-239.6c31-73.3,75.4-139.1,131.9-195.6,56.5-56.5,122.4-100.9,195.6-131.9,75.9-32.1,156.5-48.4,239.6-48.4s163.7,16.3,239.6,48.4c73.3,31,139.1,75.4,195.6,131.9,56.5,56.5,100.9,122.4,131.9,195.6,32.1,75.9,48.4,156.5,48.4,239.6s-16.3,163.7-48.4,239.6c-31,73.3-75.4,139.1-131.9,195.6s-122.4,100.9-195.6,131.9c-75.9,32.1-156.5,48.4-239.6,48.4Z"/>
          <path d="M801.2,2700.9c83,0,163.6,16.3,239.4,48.3,36.4,15.4,71.6,34.5,104.5,56.7,32.6,22,63.2,47.3,91,75.1s53.1,58.5,75.1,91c22.2,32.9,41.3,68,56.7,104.5,32.1,75.8,48.3,156.4,48.3,239.4s-16.3,163.6-48.3,239.4c-15.4,36.4-34.5,71.6-56.7,104.5-22,32.6-47.3,63.2-75.1,91s-58.5,53.1-91,75.1c-32.9,22.2-68,41.3-104.5,56.7-75.8,32.1-156.4,48.3-239.4,48.3s-163.6-16.3-239.4-48.3c-36.4-15.4-71.6-34.5-104.5-56.7-32.6-22-63.2-47.3-91-75.1s-53.1-58.5-75.1-91c-22.2-32.9-41.3-68-56.7-104.5-32.1-75.8-48.3-156.4-48.3-239.4s16.3-163.6,48.3-239.4c15.4-36.4,34.5-71.6,56.7-104.5,22-32.6,47.3-63.2,75.1-91s58.5-53.1,91-75.1c32.9-22.2,68-41.3,104.5-56.7,75.8-32.1,156.4-48.3,239.4-48.3M801.2,2699.9c-340.2,0-616,275.8-616,616s275.8,616,616,616,616-275.8,616-616-275.8-616-616-616h0Z"/>
        </g>
        <g>
          <path class="cls-1" d="M2370.2,2963.4c-83.1,0-163.7-16.3-239.6-48.4-73.3-31-139.1-75.4-195.6-131.9s-100.9-122.4-131.9-195.6c-32.1-75.9-48.4-156.5-48.4-239.6s16.3-163.7,48.4-239.6c31-73.3,75.4-139.1,131.9-195.6,56.5-56.5,122.4-100.9,195.6-131.9,75.9-32.1,156.5-48.4,239.6-48.4s163.7,16.3,239.6,48.4c73.3,31,139.1,75.4,195.6,131.9,56.5,56.5,100.9,122.4,131.9,195.6,32.1,75.9,48.4,156.5,48.4,239.6s-16.3,163.7-48.4,239.6c-31,73.3-75.4,139.1-131.9,195.6s-122.4,100.9-195.6,131.9c-75.9,32.1-156.5,48.4-239.6,48.4h0Z"/>
          <path d="M2370.2,1732.9c83,0,163.6,16.3,239.4,48.3,36.4,15.4,71.6,34.5,104.5,56.7,32.6,22,63.2,47.3,91,75.1s53.1,58.5,75.1,91c22.2,32.9,41.3,68,56.7,104.5,32.1,75.8,48.3,156.4,48.3,239.4s-16.3,163.6-48.3,239.4c-15.4,36.4-34.5,71.6-56.7,104.5-22,32.6-47.3,63.2-75.1,91s-58.5,53.1-91,75.1c-32.9,22.2-68,41.3-104.5,56.7-75.8,32.1-156.4,48.3-239.4,48.3s-163.6-16.3-239.4-48.3c-36.4-15.4-71.6-34.5-104.5-56.7-32.6-22-63.2-47.3-91-75.1s-53.1-58.5-75.1-91c-22.2-32.9-41.3-68-56.7-104.5-32.1-75.8-48.3-156.4-48.3-239.4s16.3-163.6,48.3-239.4c15.4-36.4,34.5-71.6,56.7-104.5,22-32.6,47.3-63.2,75.1-91s58.5-53.1,91-75.1c32.9-22.2,68-41.3,104.5-56.7,75.8-32.1,156.4-48.3,239.4-48.3M2370.2,1731.9c-340.2,0-616,275.8-616,616s275.8,616,616,616,616-275.8,616-616-275.8-616-616-616h0Z"/>
        </g>
        <g>
          <path class="cls-1" d="M2542.2,4691.4c-83.1,0-163.7-16.3-239.6-48.4-73.3-31-139.1-75.4-195.6-131.9s-100.9-122.3-131.9-195.6c-32.1-75.9-48.4-156.5-48.4-239.6s16.3-163.7,48.4-239.6c31-73.3,75.4-139.1,131.9-195.6,56.5-56.5,122.4-100.9,195.6-131.9,75.9-32.1,156.5-48.4,239.6-48.4s163.7,16.3,239.6,48.4c73.3,31,139.1,75.4,195.6,131.9,56.5,56.5,100.9,122.4,131.9,195.6,32.1,75.9,48.4,156.5,48.4,239.6s-16.3,163.7-48.4,239.6c-31,73.3-75.4,139.1-131.9,195.6s-122.4,100.9-195.6,131.9c-75.9,32.1-156.5,48.4-239.6,48.4h0Z"/>
          <path d="M2542.2,3460.9c83,0,163.6,16.3,239.4,48.3,36.4,15.4,71.6,34.5,104.5,56.7,32.6,22,63.2,47.3,91,75.1,27.8,27.8,53.1,58.5,75.1,91,22.2,32.9,41.3,68,56.7,104.5,32.1,75.8,48.3,156.4,48.3,239.4s-16.3,163.6-48.3,239.4c-15.4,36.4-34.5,71.6-56.7,104.5-22,32.6-47.3,63.2-75.1,91-27.8,27.8-58.5,53.1-91,75.1-32.9,22.2-68,41.3-104.5,56.7-75.8,32.1-156.4,48.3-239.4,48.3s-163.6-16.3-239.4-48.3c-36.4-15.4-71.6-34.5-104.5-56.7-32.6-22-63.2-47.3-91-75.1s-53.1-58.5-75.1-91c-22.2-32.9-41.3-68-56.7-104.5-32.1-75.8-48.3-156.4-48.3-239.4s16.3-163.6,48.3-239.4c15.4-36.4,34.5-71.6,56.7-104.5,22-32.6,47.3-63.2,75.1-91s58.5-53.1,91-75.1c32.9-22.2,68-41.3,104.5-56.7,75.8-32.1,156.4-48.3,239.4-48.3M2542.2,3459.9c-340.2,0-616,275.8-616,616s275.8,616,616,616,616-275.8,616-616-275.8-616-616-616h0Z"/>
        </g>
        <g>
          <path class="cls-1" d="M3829.2,2791.4c-83.1,0-163.7-16.3-239.6-48.4-73.3-31-139.1-75.4-195.6-131.9s-100.9-122.4-131.9-195.6c-32.1-75.9-48.4-156.5-48.4-239.6s16.3-163.7,48.4-239.6c31-73.3,75.4-139.1,131.9-195.6,56.5-56.5,122.3-100.9,195.6-131.9,75.9-32.1,156.5-48.4,239.6-48.4s163.7,16.3,239.6,48.4c73.3,31,139.1,75.4,195.6,131.9,56.5,56.5,100.9,122.4,131.9,195.6,32.1,75.9,48.4,156.5,48.4,239.6s-16.3,163.7-48.4,239.6c-31,73.3-75.4,139.1-131.9,195.6s-122.3,100.9-195.6,131.9c-75.9,32.1-156.5,48.4-239.6,48.4Z"/>
          <path d="M3829.2,1560.9c83,0,163.6,16.3,239.4,48.3,36.4,15.4,71.6,34.5,104.5,56.7,32.6,22,63.2,47.3,91,75.1,27.8,27.8,53.1,58.5,75.1,91,22.2,32.9,41.3,68,56.7,104.5,32.1,75.8,48.3,156.4,48.3,239.4s-16.3,163.6-48.3,239.4c-15.4,36.4-34.5,71.6-56.7,104.5-22,32.6-47.3,63.2-75.1,91s-58.5,53.1-91,75.1c-32.9,22.2-68,41.3-104.5,56.7-75.8,32.1-156.4,48.3-239.4,48.3s-163.6-16.3-239.4-48.3c-36.4-15.4-71.6-34.5-104.5-56.7-32.6-22-63.2-47.3-91-75.1-27.8-27.8-53.1-58.5-75.1-91-22.2-32.9-41.3-68-56.7-104.5-32.1-75.8-48.3-156.4-48.3-239.4s16.3-163.6,48.3-239.4c15.4-36.4,34.5-71.6,56.7-104.5,22-32.6,47.3-63.2,75.1-91s58.5-53.1,91-75.1c32.9-22.2,68-41.3,104.5-56.7,75.8-32.1,156.4-48.3,239.4-48.3M3829.2,1559.9c-340.2,0-616,275.8-616,616s275.8,616,616,616,616-275.8,616-616-275.8-616-616-616h0Z"/>
        </g>
        <g>
          <path class="cls-1" d="M3829.2,5855.4c-83.1,0-163.7-16.3-239.6-48.4-73.3-31-139.1-75.4-195.6-131.9s-100.9-122.3-131.9-195.6c-32.1-75.9-48.4-156.5-48.4-239.6s16.3-163.7,48.4-239.6c31-73.3,75.4-139.1,131.9-195.6,56.5-56.5,122.3-100.9,195.6-131.9,75.9-32.1,156.5-48.4,239.6-48.4s163.7,16.3,239.6,48.4c73.3,31,139.1,75.4,195.6,131.9,56.5,56.5,100.9,122.3,131.9,195.6,32.1,75.9,48.4,156.5,48.4,239.6s-16.3,163.7-48.4,239.6c-31,73.3-75.4,139.1-131.9,195.6s-122.3,100.9-195.6,131.9c-75.9,32.1-156.5,48.4-239.6,48.4Z"/>
          <path d="M3829.2,4624.9c83,0,163.6,16.3,239.4,48.3,36.4,15.4,71.6,34.5,104.5,56.7,32.6,22,63.2,47.3,91,75.1,27.8,27.8,53.1,58.5,75.1,91,22.2,32.9,41.3,68,56.7,104.5,32.1,75.8,48.3,156.4,48.3,239.4s-16.3,163.6-48.3,239.4c-15.4,36.4-34.5,71.6-56.7,104.5-22,32.6-47.3,63.2-75.1,91-27.8,27.8-58.5,53.1-91,75.1-32.9,22.2-68,41.3-104.5,56.7-75.8,32.1-156.4,48.3-239.4,48.3s-163.6-16.3-239.4-48.3c-36.4-15.4-71.6-34.5-104.5-56.7-32.6-22-63.2-47.3-91-75.1-27.8-27.8-53.1-58.5-75.1-91-22.2-32.9-41.3-68-56.7-104.5-32.1-75.8-48.3-156.4-48.3-239.4s16.3-163.6,48.3-239.4c15.4-36.4,34.5-71.6,56.7-104.5,22-32.6,47.3-63.2,75.1-91,27.8-27.8,58.5-53.1,91-75.1,32.9-22.2,68-41.3,104.5-56.7,75.8-32.1,156.4-48.3,239.4-48.3M3829.2,4623.9c-340.2,0-616,275.8-616,616s275.8,616,616,616,616-275.8,616-616-275.8-616-616-616h0Z"/>
        </g>
        <g>
          <path class="cls-1" d="M1684.2,6382.4c-83.1,0-163.7-16.3-239.6-48.4-73.3-31-139.1-75.4-195.6-131.9s-100.9-122.3-131.9-195.6c-32.1-75.9-48.4-156.5-48.4-239.6s16.3-163.7,48.4-239.6c31-73.3,75.4-139.1,131.9-195.6,56.5-56.5,122.4-100.9,195.6-131.9,75.9-32.1,156.5-48.4,239.6-48.4s163.7,16.3,239.6,48.4c73.3,31,139.1,75.4,195.6,131.9,56.5,56.5,100.9,122.3,131.9,195.6,32.1,75.9,48.4,156.5,48.4,239.6s-16.3,163.7-48.4,239.6c-31,73.3-75.4,139.1-131.9,195.6s-122.4,100.9-195.6,131.9c-75.9,32.1-156.5,48.4-239.6,48.4Z"/>
          <path d="M1684.2,5151.9c83,0,163.6,16.3,239.4,48.3,36.4,15.4,71.6,34.5,104.5,56.7,32.6,22,63.2,47.3,91,75.1s53.1,58.5,75.1,91c22.2,32.9,41.3,68,56.7,104.5,32.1,75.8,48.3,156.4,48.3,239.4s-16.3,163.6-48.3,239.4c-15.4,36.4-34.5,71.6-56.7,104.5-22,32.6-47.3,63.2-75.1,91-27.8,27.8-58.5,53.1-91,75.1-32.9,22.2-68,41.3-104.5,56.7-75.8,32.1-156.4,48.3-239.4,48.3s-163.6-16.3-239.4-48.3c-36.4-15.4-71.6-34.5-104.5-56.7-32.6-22-63.2-47.3-91-75.1s-53.1-58.5-75.1-91c-22.2-32.9-41.3-68-56.7-104.5-32.1-75.8-48.3-156.4-48.3-239.4s16.3-163.6,48.3-239.4c15.4-36.4,34.5-71.6,56.7-104.5,22-32.6,47.3-63.2,75.1-91,27.8-27.8,58.5-53.1,91-75.1,32.9-22.2,68-41.3,104.5-56.7,75.8-32.1,156.4-48.3,239.4-48.3M1684.2,5150.9c-340.2,0-616,275.8-616,616s275.8,616,616,616,616-275.8,616-616-275.8-616-616-616h0Z"/>
        </g>
        <g>
          <path class="cls-1" d="M1310.2,1946.4c-83.1,0-163.7-16.3-239.6-48.4-73.3-31-139.1-75.4-195.6-131.9s-100.9-122.4-131.9-195.6c-32.1-75.9-48.4-156.5-48.4-239.6s16.3-163.7,48.4-239.6c31-73.3,75.4-139.1,131.9-195.6,56.5-56.5,122.4-100.9,195.6-131.9,75.9-32.1,156.5-48.4,239.6-48.4s163.7,16.3,239.6,48.4c73.3,31,139.1,75.4,195.6,131.9,56.5,56.5,100.9,122.4,131.9,195.6,32.1,75.9,48.4,156.5,48.4,239.6s-16.3,163.7-48.4,239.6c-31,73.3-75.4,139.1-131.9,195.6s-122.4,100.9-195.6,131.9c-75.9,32.1-156.5,48.4-239.6,48.4Z"/>
          <path d="M1310.2,715.9c83,0,163.6,16.3,239.4,48.3,36.4,15.4,71.6,34.5,104.5,56.7,32.6,22,63.2,47.3,91,75.1s53.1,58.5,75.1,91c22.2,32.9,41.3,68,56.7,104.5,32.1,75.8,48.3,156.4,48.3,239.4s-16.3,163.6-48.3,239.4c-15.4,36.4-34.5,71.6-56.7,104.5-22,32.6-47.3,63.2-75.1,91s-58.5,53.1-91,75.1c-32.9,22.2-68,41.3-104.5,56.7-75.8,32.1-156.4,48.3-239.4,48.3s-163.6-16.3-239.4-48.3c-36.4-15.4-71.6-34.5-104.5-56.7-32.6-22-63.2-47.3-91-75.1s-53.1-58.5-75.1-91c-22.2-32.9-41.3-68-56.7-104.5-32.1-75.8-48.3-156.4-48.3-239.4s16.3-163.6,48.3-239.4c15.4-36.4,34.5-71.6,56.7-104.5,22-32.6,47.3-63.2,75.1-91s58.5-53.1,91-75.1c32.9-22.2,68-41.3,104.5-56.7,75.8-32.1,156.4-48.3,239.4-48.3M1310.2,714.9c-340.2,0-616,275.8-616,616s275.8,616,616,616,616-275.8,616-616-275.8-616-616-616h0Z"/>
        </g>
        <g>
          <path class="cls-1" d="M2916.2,1330.4c-83.1,0-163.7-16.3-239.6-48.4-73.3-31-139.1-75.4-195.6-131.9s-100.9-122.4-131.9-195.6c-32.1-75.9-48.4-156.5-48.4-239.6s16.3-163.7,48.4-239.6c31-73.3,75.4-139.1,131.9-195.6,56.5-56.5,122.4-100.9,195.6-131.9,75.9-32.1,156.5-48.4,239.6-48.4s163.7,16.3,239.6,48.4c73.3,31,139.1,75.4,195.6,131.9,56.5,56.5,100.9,122.4,131.9,195.6,32.1,75.9,48.4,156.5,48.4,239.6s-16.3,163.7-48.4,239.6c-31,73.3-75.4,139.1-131.9,195.6s-122.3,100.9-195.6,131.9c-75.9,32.1-156.5,48.4-239.6,48.4Z"/>
          <path d="M2916.2,99.9c83,0,163.6,16.3,239.4,48.3,36.4,15.4,71.6,34.5,104.5,56.7,32.6,22,63.2,47.3,91,75.1,27.8,27.8,53.1,58.5,75.1,91,22.2,32.9,41.3,68,56.7,104.5,32.1,75.8,48.3,156.4,48.3,239.4s-16.3,163.6-48.3,239.4c-15.4,36.4-34.5,71.6-56.7,104.5-22,32.6-47.3,63.2-75.1,91s-58.5,53.1-91,75.1c-32.9,22.2-68,41.3-104.5,56.7-75.8,32.1-156.4,48.3-239.4,48.3s-163.6-16.3-239.4-48.3c-36.4-15.4-71.6-34.5-104.5-56.7-32.6-22-63.2-47.3-91-75.1s-53.1-58.5-75.1-91c-22.2-32.9-41.3-68-56.7-104.5-32.1-75.8-48.3-156.4-48.3-239.4s16.3-163.6,48.3-239.4c15.4-36.4,34.5-71.6,56.7-104.5,22-32.6,47.3-63.2,75.1-91s58.5-53.1,91-75.1c32.9-22.2,68-41.3,104.5-56.7,75.8-32.1,156.4-48.3,239.4-48.3M2916.2,98.9c-340.2,0-616,275.8-616,616s275.8,616,616,616,616-275.8,616-616S3256.4,98.9,2916.2,98.9h0Z"/>
        </g>
      </g>
    </g>
  </g>
</svg>