<?xml version="1.0" encoding="UTF-8"?>
<svg xmlns="http://www.w3.org/2000/svg" version="1.1" viewBox="0 0 1366 768">
  <defs>
    <style>
      .cls-1 {
        fill: #adffff;
      }
    </style>
  </defs>
  <!-- Generator: Adobe Illustrator 28.7.1, SVG Export Plug-In . SVG Version: 1.2.0 Build 142)  -->
  <g>
    <g id="Layer_1">
      <g>
        <path class="cls-1" d="M6095,8168.5c-83.09,0-163.7-16.27-239.58-48.37-73.29-31-139.12-75.38-195.64-131.91s-100.91-122.35-131.91-195.64c-32.09-75.88-48.37-156.49-48.37-239.58s16.27-163.7,48.37-239.58c31-73.29,75.38-139.12,131.91-195.64,56.53-56.53,122.35-100.91,195.64-131.91,75.88-32.09,156.49-48.37,239.58-48.37s163.7,16.27,239.58,48.37c73.29,31,139.12,75.38,195.64,131.91,56.53,56.53,100.91,122.35,131.91,195.64,32.09,75.88,48.37,156.49,48.37,239.58s-16.27,163.7-48.37,239.58c-31,73.29-75.38,139.12-131.91,195.64s-122.35,100.91-195.64,131.91c-75.88,32.1-156.49,48.37-239.58,48.37Z"/>
        <path d="M6095,6938c83.02,0,163.57,16.26,239.39,48.33,36.44,15.41,71.59,34.49,104.47,56.7,32.57,22,63.19,47.27,91.02,75.1,27.83,27.83,53.1,58.45,75.1,91.02,22.21,32.88,41.29,68.03,56.7,104.47,32.07,75.82,48.33,156.36,48.33,239.39s-16.26,163.57-48.33,239.39c-15.41,36.44-34.49,71.59-56.7,104.47-22,32.57-47.27,63.19-75.1,91.02-27.83,27.83-58.45,53.1-91.02,75.1-32.88,22.21-68.03,41.29-104.47,56.7-75.82,32.07-156.36,48.33-239.39,48.33s-163.57-16.26-239.39-48.33c-36.44-15.41-71.59-34.49-104.47-56.7-32.57-22-63.19-47.27-91.02-75.1-27.83-27.83-53.1-58.45-75.1-91.02-22.21-32.88-41.29-68.03-56.7-104.47-32.07-75.82-48.33-156.36-48.33-239.39s16.26-163.57,48.33-239.39c15.41-36.44,34.49-71.59,56.7-104.47,22-32.57,47.27-63.19,75.1-91.02,27.83-27.83,58.45-53.1,91.02-75.1,32.88-22.21,68.03-41.29,104.47-56.7,75.82-32.07,156.36-48.33,239.39-48.33M6095,6937c-340.21,0-616,275.79-616,616s275.79,616,616,616,616-275.79,616-616-275.79-616-616-616h0Z"/>
      </g>
      <g>
        <path class="cls-1" d="M7664,7200.5c-83.09,0-163.7-16.27-239.58-48.37-73.29-31-139.12-75.38-195.64-131.91s-100.91-122.35-131.91-195.64c-32.09-75.88-48.37-156.49-48.37-239.58s16.27-163.7,48.37-239.58c31-73.29,75.38-139.12,131.91-195.64,56.53-56.53,122.35-100.91,195.64-131.91,75.88-32.09,156.49-48.37,239.58-48.37s163.7,16.27,239.58,48.37c73.29,31,139.12,75.38,195.64,131.91,56.53,56.53,100.91,122.35,131.91,195.64,32.09,75.88,48.37,156.49,48.37,239.58s-16.27,163.7-48.37,239.58c-31,73.29-75.38,139.12-131.91,195.64s-122.35,100.91-195.64,131.91c-75.88,32.1-156.49,48.37-239.58,48.37Z"/>
        <path d="M7664,5970c83.02,0,163.57,16.26,239.39,48.33,36.44,15.41,71.59,34.49,104.47,56.7,32.57,22,63.19,47.27,91.02,75.1,27.83,27.83,53.1,58.45,75.1,91.02,22.21,32.88,41.29,68.03,56.7,104.47,32.07,75.82,48.33,156.36,48.33,239.39s-16.26,163.57-48.33,239.39c-15.41,36.44-34.49,71.59-56.7,104.47-22,32.57-47.27,63.19-75.1,91.02-27.83,27.83-58.45,53.1-91.02,75.1-32.88,22.21-68.03,41.29-104.47,56.7-75.82,32.07-156.36,48.33-239.39,48.33s-163.57-16.26-239.39-48.33c-36.44-15.41-71.59-34.49-104.47-56.7-32.57-22-63.19-47.27-91.02-75.1-27.83-27.83-53.1-58.45-75.1-91.02-22.21-32.88-41.29-68.03-56.7-104.47-32.07-75.82-48.33-156.36-48.33-239.39s16.26-163.57,48.33-239.39c15.41-36.44,34.49-71.59,56.7-104.47,22-32.57,47.27-63.19,75.1-91.02,27.83-27.83,58.45-53.1,91.02-75.1,32.88-22.21,68.03-41.29,104.47-56.7,75.82-32.07,156.36-48.33,239.39-48.33M7664,5969c-340.21,0-616,275.79-616,616s275.79,616,616,616,616-275.79,616-616-275.79-616-616-616h0Z"/>
      </g>
      <g>
        <path class="cls-1" d="M7836,8928.5c-83.09,0-163.7-16.27-239.58-48.37-73.29-31-139.12-75.38-195.64-131.91s-100.91-122.35-131.91-195.64c-32.09-75.88-48.37-156.49-48.37-239.58s16.27-163.7,48.37-239.58c31-73.29,75.38-139.12,131.91-195.64,56.53-56.53,122.35-100.91,195.64-131.91,75.88-32.09,156.49-48.37,239.58-48.37s163.7,16.27,239.58,48.37c73.29,31,139.12,75.38,195.64,131.91,56.53,56.53,100.91,122.35,131.91,195.64,32.09,75.88,48.37,156.49,48.37,239.58s-16.27,163.7-48.37,239.58c-31,73.29-75.38,139.12-131.91,195.64s-122.35,100.91-195.64,131.91c-75.88,32.1-156.49,48.37-239.58,48.37Z"/>
        <path d="M7836,7698c83.02,0,163.57,16.26,239.39,48.33,36.44,15.41,71.59,34.49,104.47,56.7,32.57,22,63.19,47.27,91.02,75.1,27.83,27.83,53.1,58.45,75.1,91.02,22.21,32.88,41.29,68.03,56.7,104.47,32.07,75.82,48.33,156.36,48.33,239.39s-16.26,163.57-48.33,239.39c-15.41,36.44-34.49,71.59-56.7,104.47-22,32.57-47.27,63.19-75.1,91.02-27.83,27.83-58.45,53.1-91.02,75.1-32.88,22.21-68.03,41.29-104.47,56.7-75.82,32.07-156.36,48.33-239.39,48.33s-163.57-16.26-239.39-48.33c-36.44-15.41-71.59-34.49-104.47-56.7-32.57-22-63.19-47.27-91.02-75.1-27.83-27.83-53.1-58.45-75.1-91.02-22.21-32.88-41.29-68.03-56.7-104.47-32.07-75.82-48.33-156.36-48.33-239.39s16.26-163.57,48.33-239.39c15.41-36.44,34.49-71.59,56.7-104.47,22-32.57,47.27-63.19,75.1-91.02,27.83-27.83,58.45-53.1,91.02-75.1,32.88-22.21,68.03-41.29,104.47-56.7,75.82-32.07,156.36-48.33,239.39-48.33M7836,7697c-340.21,0-616,275.79-616,616s275.79,616,616,616,616-275.79,616-616-275.79-616-616-616h0Z"/>
      </g>
      <g>
        <path class="cls-1" d="M9123,7028.5c-83.09,0-163.7-16.27-239.58-48.37-73.29-31-139.12-75.38-195.64-131.91s-100.91-122.35-131.91-195.64c-32.09-75.88-48.37-156.49-48.37-239.58s16.27-163.7,48.37-239.58c31-73.29,75.38-139.12,131.91-195.64,56.53-56.53,122.35-100.91,195.64-131.91,75.88-32.09,156.49-48.37,239.58-48.37s163.7,16.27,239.58,48.37c73.29,31,139.12,75.38,195.64,131.91,56.53,56.53,100.91,122.35,131.91,195.64,32.09,75.88,48.37,156.49,48.37,239.58s-16.27,163.7-48.37,239.58c-31,73.29-75.38,139.12-131.91,195.64s-122.35,100.91-195.64,131.91c-75.88,32.1-156.49,48.37-239.58,48.37Z"/>
        <path d="M9123,5798c83.02,0,163.57,16.26,239.39,48.33,36.44,15.41,71.59,34.49,104.47,56.7,32.57,22,63.19,47.27,91.02,75.1,27.83,27.83,53.1,58.45,75.1,91.02,22.21,32.88,41.29,68.03,56.7,104.47,32.07,75.82,48.33,156.36,48.33,239.39s-16.26,163.57-48.33,239.39c-15.41,36.44-34.49,71.59-56.7,104.47-22,32.57-47.27,63.19-75.1,91.02-27.83,27.83-58.45,53.1-91.02,75.1-32.88,22.21-68.03,41.29-104.47,56.7-75.82,32.07-156.36,48.33-239.39,48.33s-163.57-16.26-239.39-48.33c-36.44-15.41-71.59-34.49-104.47-56.7-32.57-22-63.19-47.27-91.02-75.1-27.83-27.83-53.1-58.45-75.1-91.02-22.21-32.88-41.29-68.03-56.7-104.47-32.07-75.82-48.33-156.36-48.33-239.39s16.26-163.57,48.33-239.39c15.41-36.44,34.49-71.59,56.7-104.47,22-32.57,47.27-63.19,75.1-91.02,27.83-27.83,58.45-53.1,91.02-75.1,32.88-22.21,68.03-41.29,104.47-56.7,75.82-32.07,156.36-48.33,239.39-48.33M9123,5797c-340.21,0-616,275.79-616,616s275.79,616,616,616,616-275.79,616-616-275.79-616-616-616h0Z"/>
      </g>
      <g>
        <path class="cls-1" d="M9123,10092.5c-83.09,0-163.7-16.27-239.58-48.37-73.29-31-139.12-75.38-195.64-131.91s-100.91-122.35-131.91-195.64c-32.09-75.88-48.37-156.49-48.37-239.58s16.27-163.7,48.37-239.58c31-73.29,75.38-139.12,131.91-195.64,56.53-56.53,122.35-100.91,195.64-131.91,75.88-32.09,156.49-48.37,239.58-48.37s163.7,16.27,239.58,48.37c73.29,31,139.12,75.38,195.64,131.91,56.53,56.53,100.91,122.35,131.91,195.64,32.09,75.88,48.37,156.49,48.37,239.58s-16.27,163.7-48.37,239.58c-31,73.29-75.38,139.12-131.91,195.64s-122.35,100.91-195.64,131.91c-75.88,32.1-156.49,48.37-239.58,48.37Z"/>
        <path d="M9123,8862c83.02,0,163.57,16.26,239.39,48.33,36.44,15.41,71.59,34.49,104.47,56.7,32.57,22,63.19,47.27,91.02,75.1,27.83,27.83,53.1,58.45,75.1,91.02,22.21,32.88,41.29,68.03,56.7,104.47,32.07,75.82,48.33,156.36,48.33,239.39s-16.26,163.57-48.33,239.39c-15.41,36.44-34.49,71.59-56.7,104.47-22,32.57-47.27,63.19-75.1,91.02-27.83,27.83-58.45,53.1-91.02,75.1-32.88,22.21-68.03,41.29-104.47,56.7-75.82,32.07-156.36,48.33-239.39,48.33s-163.57-16.26-239.39-48.33c-36.44-15.41-71.59-34.49-104.47-56.7-32.57-22-63.19-47.27-91.02-75.1-27.83-27.83-53.1-58.45-75.1-91.02-22.21-32.88-41.29-68.03-56.7-104.47-32.07-75.82-48.33-156.36-48.33-239.39s16.26-163.57,48.33-239.39c15.41-36.44,34.49-71.59,56.7-104.47,22-32.57,47.27-63.19,75.1-91.02,27.83-27.83,58.45-53.1,91.02-75.1,32.88-22.21,68.03-41.29,104.47-56.7,75.82-32.07,156.36-48.33,239.39-48.33M9123,8861c-340.21,0-616,275.79-616,616s275.79,616,616,616,616-275.79,616-616-275.79-616-616-616h0Z"/>
      </g>
      <g>
        <path class="cls-1" d="M6978,10619.5c-83.09,0-163.7-16.27-239.58-48.37-73.29-31-139.12-75.38-195.64-131.91s-100.91-122.35-131.91-195.64c-32.09-75.88-48.37-156.49-48.37-239.58s16.27-163.7,48.37-239.58c31-73.29,75.38-139.12,131.91-195.64,56.53-56.53,122.35-100.91,195.64-131.91,75.88-32.09,156.49-48.37,239.58-48.37s163.7,16.27,239.58,48.37c73.29,31,139.12,75.38,195.64,131.91,56.53,56.53,100.91,122.35,131.91,195.64,32.09,75.88,48.37,156.49,48.37,239.58s-16.27,163.7-48.37,239.58c-31,73.29-75.38,139.12-131.91,195.64s-122.35,100.91-195.64,131.91c-75.88,32.1-156.49,48.37-239.58,48.37Z"/>
        <path d="M6978,9389c83.02,0,163.57,16.26,239.39,48.33,36.44,15.41,71.59,34.49,104.47,56.7,32.57,22,63.19,47.27,91.02,75.1,27.83,27.83,53.1,58.45,75.1,91.02,22.21,32.88,41.29,68.03,56.7,104.47,32.07,75.82,48.33,156.36,48.33,239.39s-16.26,163.57-48.33,239.39c-15.41,36.44-34.49,71.59-56.7,104.47-22,32.57-47.27,63.19-75.1,91.02-27.83,27.83-58.45,53.1-91.02,75.1-32.88,22.21-68.03,41.29-104.47,56.7-75.82,32.07-156.36,48.33-239.39,48.33s-163.57-16.26-239.39-48.33c-36.44-15.41-71.59-34.49-104.47-56.7-32.57-22-63.19-47.27-91.02-75.1-27.83-27.83-53.1-58.45-75.1-91.02-22.21-32.88-41.29-68.03-56.7-104.47-32.07-75.82-48.33-156.36-48.33-239.39s16.26-163.57,48.33-239.39c15.41-36.44,34.49-71.59,56.7-104.47,22-32.57,47.27-63.19,75.1-91.02,27.83-27.83,58.45-53.1,91.02-75.1,32.88-22.21,68.03-41.29,104.47-56.7,75.82-32.07,156.36-48.33,239.39-48.33M6978,9388c-340.21,0-616,275.79-616,616s275.79,616,616,616,616-275.79,616-616-275.79-616-616-616h0Z"/>
      </g>
      <g>
        <path class="cls-1" d="M6604,6183.5c-83.09,0-163.7-16.27-239.58-48.37-73.29-31-139.12-75.38-195.64-131.91s-100.91-122.35-131.91-195.64c-32.09-75.88-48.37-156.49-48.37-239.58s16.27-163.7,48.37-239.58c31-73.29,75.38-139.12,131.91-195.64,56.53-56.53,122.35-100.91,195.64-131.91,75.88-32.09,156.49-48.37,239.58-48.37s163.7,16.27,239.58,48.37c73.29,31,139.12,75.38,195.64,131.91,56.53,56.53,100.91,122.35,131.91,195.64,32.09,75.88,48.37,156.49,48.37,239.58s-16.27,163.7-48.37,239.58c-31,73.29-75.38,139.12-131.91,195.64s-122.35,100.91-195.64,131.91c-75.88,32.1-156.49,48.37-239.58,48.37Z"/>
        <path d="M6604,4953c83.02,0,163.57,16.26,239.39,48.33,36.44,15.41,71.59,34.49,104.47,56.7,32.57,22,63.19,47.27,91.02,75.1,27.83,27.83,53.1,58.45,75.1,91.02,22.21,32.88,41.29,68.03,56.7,104.47,32.07,75.82,48.33,156.36,48.33,239.39s-16.26,163.57-48.33,239.39c-15.41,36.44-34.49,71.59-56.7,104.47-22,32.57-47.27,63.19-75.1,91.02-27.83,27.83-58.45,53.1-91.02,75.1-32.88,22.21-68.03,41.29-104.47,56.7-75.82,32.07-156.36,48.33-239.39,48.33s-163.57-16.26-239.39-48.33c-36.44-15.41-71.59-34.49-104.47-56.7-32.57-22-63.19-47.27-91.02-75.1-27.83-27.83-53.1-58.45-75.1-91.02-22.21-32.88-41.29-68.03-56.7-104.47-32.07-75.82-48.33-156.36-48.33-239.39s16.26-163.57,48.33-239.39c15.41-36.44,34.49-71.59,56.7-104.47,22-32.57,47.27-63.19,75.1-91.02,27.83-27.83,58.45-53.1,91.02-75.1,32.88-22.21,68.03-41.29,104.47-56.7,75.82-32.07,156.36-48.33,239.39-48.33M6604,4952c-340.21,0-616,275.79-616,616s275.79,616,616,616,616-275.79,616-616-275.79-616-616-616h0Z"/>
      </g>
      <g>
        <path class="cls-1" d="M8210,5567.5c-83.09,0-163.7-16.27-239.58-48.37-73.29-31-139.12-75.38-195.64-131.91s-100.91-122.35-131.91-195.64c-32.09-75.88-48.37-156.49-48.37-239.58s16.27-163.7,48.37-239.58c31-73.29,75.38-139.12,131.91-195.64,56.53-56.53,122.35-100.91,195.64-131.91,75.88-32.09,156.49-48.37,239.58-48.37s163.7,16.27,239.58,48.37c73.29,31,139.12,75.38,195.64,131.91,56.53,56.53,100.91,122.35,131.91,195.64,32.09,75.88,48.37,156.49,48.37,239.58s-16.27,163.7-48.37,239.58c-31,73.29-75.38,139.12-131.91,195.64s-122.35,100.91-195.64,131.91c-75.88,32.1-156.49,48.37-239.58,48.37Z"/>
        <path d="M8210,4337c83.02,0,163.57,16.26,239.39,48.33,36.44,15.41,71.59,34.49,104.47,56.7,32.57,22,63.19,47.27,91.02,75.1,27.83,27.83,53.1,58.45,75.1,91.02,22.21,32.88,41.29,68.03,56.7,104.47,32.07,75.82,48.33,156.36,48.33,239.39s-16.26,163.57-48.33,239.39c-15.41,36.44-34.49,71.59-56.7,104.47-22,32.57-47.27,63.19-75.1,91.02-27.83,27.83-58.45,53.1-91.02,75.1-32.88,22.21-68.03,41.29-104.47,56.7-75.82,32.07-156.36,48.33-239.39,48.33s-163.57-16.26-239.39-48.33c-36.44-15.41-71.59-34.49-104.47-56.7-32.57-22-63.19-47.27-91.02-75.1-27.83-27.83-53.1-58.45-75.1-91.02-22.21-32.88-41.29-68.03-56.7-104.47-32.07-75.82-48.33-156.36-48.33-239.39s16.26-163.57,48.33-239.39c15.41-36.44,34.49-71.59,56.7-104.47,22-32.57,47.27-63.19,75.1-91.02,27.83-27.83,58.45-53.1,91.02-75.1,32.88-22.21,68.03-41.29,104.47-56.7,75.82-32.07,156.36-48.33,239.39-48.33M8210,4336c-340.21,0-616,275.79-616,616s275.79,616,616,616,616-275.79,616-616-275.79-616-616-616h0Z"/>
      </g>
    </g>
  </g>
</svg>