<?xml version="1.0" encoding="UTF-8"?>
<svg xmlns="http://www.w3.org/2000/svg" version="1.1" xmlns:xlink="http://www.w3.org/1999/xlink" viewBox="0 0 161 7.5">
  <defs>
    <style>
      .cls-1 {
        fill: url(#linear-gradient-2);
      }

      .cls-2 {
        fill: url(#linear-gradient-4);
      }

      .cls-3 {
        fill: url(#linear-gradient-3);
      }

      .cls-4 {
        fill: url(#linear-gradient);
      }
    </style>
    <linearGradient id="linear-gradient" x1="3601.28" y1="1400.24" x2="18252.62" y2="-1834.47" gradientUnits="userSpaceOnUse">
      <stop offset="0" stop-color="#ffb5ff"/>
      <stop offset="1" stop-color="#a197ff"/>
    </linearGradient>
    <linearGradient id="linear-gradient-2" x1="3642.28" y1="526.24" x2="18293.62" y2="-2708.47" xlink:href="#linear-gradient"/>
    <linearGradient id="linear-gradient-3" x1="3644.36" y1="2180.69" x2="18294.94" y2="-1053.84" xlink:href="#linear-gradient"/>
    <linearGradient id="linear-gradient-4" x1="3546.36" y1="2953.69" x2="18196.94" y2="-280.84" xlink:href="#linear-gradient"/>
  </defs>
  <!-- Generator: Adobe Illustrator 28.7.1, SVG Export Plug-In . SVG Version: 1.2.0 Build 142)  -->
  <g>
    <g id="Layer_1">
      <path class="cls-4" d="M4335,518.69c17.81-173.77,1242.77-343.23,2358.09-273.2,1282.73,80.54,1252.24,404.52,2112.91,364.26,1209.07-56.55,1903.89-725.58,2540.47-508.61,50.04,17.05,200.7,68.41,207.3,144.34,20.56,236.51-1366.06,600.28-2735.82,584.81-1229.36-13.89-1209.15-319.3-2284.33-258.33-856.39,48.56-1598.8,283.7-2087.99,45.84-102.08-49.63-112.52-80.66-110.63-99.12Z"/>
      <path class="cls-1" d="M4376-355.31c17.81-173.77,1242.77-343.23,2358.09-273.2,1282.73,80.54,1252.24,404.52,2112.91,364.26,1209.07-56.55,1903.89-725.58,2540.47-508.61,50.04,17.05,200.7,68.41,207.3,144.34,20.56,236.51-1366.06,600.28-2735.82,584.81-1229.36-13.89-1209.15-319.3-2284.33-258.33-856.39,48.56-1598.8,283.7-2087.99,45.84-102.08-49.63-112.52-80.66-110.63-99.12Z"/>
      <path class="cls-3" d="M4376,1291.69c9.9-188.1,1417.17-251.14,2231-242.69,693.05,7.19,902.56,65.68,987.21,91.47,232.07,70.72,422.64,158.99,764.85,218.17,132.48,22.91,285.58,33.58,487.94,24.11,1209.07-56.55,1903.89-725.58,2540.47-508.61,50.04,17.05,200.7,68.41,207.3,144.34,20.55,236.51-1366.06,600.28-2735.82,584.81-1229.36-13.89-1209.15-319.3-2284.33-258.33-856.39,48.56-1598.8,283.7-2087.99,45.84-94.99-46.18-111.8-76.8-110.63-99.12Z"/>
      <path class="cls-2" d="M4278,2064.69c9.9-188.1,1417.17-251.14,2231-242.69,693.05,7.19,902.56,65.68,987.21,91.47,232.07,70.72,422.64,158.99,764.85,218.17,132.48,22.91,285.58,33.58,487.94,24.11,1209.07-56.55,1903.89-725.58,2540.47-508.61,50.04,17.05,200.7,68.41,207.3,144.34,20.55,236.51-1366.06,600.28-2735.82,584.81-1229.36-13.89-1209.15-319.3-2284.33-258.33-856.39,48.56-1598.8,283.7-2087.99,45.84-94.99-46.18-111.8-76.8-110.63-99.12Z"/>
    </g>
  </g>
</svg>