<?xml version="1.0" encoding="UTF-8"?>
<svg xmlns="http://www.w3.org/2000/svg" version="1.1" viewBox="0 0 3566.3 6364.1">
  <defs>
    <style>
      .cls-1 {
        fill: #fffbb4;
      }

      .cls-2 {
        fill: #0059ff;
      }
    </style>
  </defs>
  <!-- Generator: Adobe Illustrator 28.7.1, SVG Export Plug-In . SVG Version: 1.2.0 Build 142)  -->
  <g>
    <g id="Layer_1">
      <g id="Layer_1-2" data-name="Layer_1">
        <g id="Layer_1-2">
          <path class="cls-1" d="M2120.6,58.7c-388.4,681.8-776.8,1363.6-1165.3,2045.3,582.4,99.7,1164.9,199.4,1747.3,299.2-625,1297.8-1249.9,2595.7-1874.9,3893.5,885.5-1406.8,1770.9-2813.7,2656.4-4220.5-534.9-85.4-1069.8-170.8-1604.7-256.2,80.4-587.1,160.8-1174.2,241.2-1761.2h0Z"/>
          <path class="cls-2" d="M1628.7,5853.8c-91,6.7-803.6,47.2-1242.3-507-44-55.6-366.1-475.8-272.5-1007.8,57.5-326.3,245.3-547,354.5-675.2,201.2-236.4,344.2-273.4,503.7-415.7,623.3-555.7,473.9-1582,624.8-1578.3,62.8,1.5,77.6,151.3,243.1,646.2,238.5,713.4,284.9,806.4,360.4,889.3,175.1,192.5,285.7,166.9,474,409.4,44.5,57.3,162.2,218.4,233,448,28.9,93.7,159.9,555.4-70,1023-339.5,690.4-1156.4,764.1-1208.7,768h0Z"/>
        </g>
      </g>
    </g>
  </g>
</svg>