<?xml version="1.0" encoding="UTF-8"?>
<svg xmlns="http://www.w3.org/2000/svg" version="1.1" viewBox="0 0 5991.4 4897.8">
  <defs>
    <style>
      .cls-1 {
        fill: #0059ff;
      }
    </style>
  </defs>
  <!-- Generator: Adobe Illustrator 28.7.1, SVG Export Plug-In . SVG Version: 1.2.0 Build 142)  -->
  <g>
    <g id="Layer_1">
      <g id="Layer_1-2" data-name="Layer_1">
        <path class="cls-1" d="M2945.6,4746.6c-91,6.7-803.6,47.2-1242.3-507-44-55.7-366.1-475.8-272.5-1007.8,57.5-326.3,245.3-547,354.5-675.2,201.2-236.4,344.2-273.5,503.7-415.7,623.3-555.7,473.9-1582,624.8-1578.3,62.8,1.5,77.6,151.3,243.1,646.2,238.5,713.4,285,806.4,360.4,889.3,175.1,192.5,285.7,166.9,474,409.5,44.5,57.3,162.2,218.5,233,448,28.9,93.7,159.9,555.4-70,1023-339.5,690.4-1156.4,764.2-1208.7,768h0Z"/>
      </g>
    </g>
  </g>
</svg>