<?xml version="1.0" encoding="UTF-8"?>
<svg xmlns="http://www.w3.org/2000/svg" version="1.1" viewBox="0 0 1366 768">
  <defs>
    <style>
      .cls-1 {
        fill: #fffbb4;
      }

      .cls-2 {
        fill: #0059ff;
      }
    </style>
  </defs>
  <!-- Generator: Adobe Illustrator 28.7.1, SVG Export Plug-In . SVG Version: 1.2.0 Build 142)  -->
  <g>
    <g id="Layer_1">
      <g id="Layer_1-2" data-name="Layer_1">
        <path class="cls-1" d="M2706.73-409.55c-388.43,681.77-776.85,1363.55-1165.28,2045.32,582.45,99.72,1164.89,199.43,1747.34,299.15-624.96,1297.84-1249.92,2595.69-1874.88,3893.53,885.46-1406.84,1770.91-2813.67,2656.37-4220.51-534.91-85.42-1069.81-170.83-1604.72-256.24,80.39-587.08,160.78-1174.17,241.17-1761.25h0Z"/>
        <path class="cls-2" d="M2214.78,5385.52c-91.01,6.71-803.6,47.25-1242.34-507-44.05-55.65-366.11-475.76-272.45-1007.79,57.45-326.34,245.3-547,354.45-675.21,201.25-236.4,344.2-273.45,503.74-415.68,623.32-555.68,473.89-1581.97,624.84-1578.31,62.82,1.52,77.58,151.3,243.07,646.23,238.53,713.39,284.95,806.38,360.39,889.3,175.12,192.5,285.73,166.88,473.96,409.45,44.5,57.34,162.22,218.45,233,448,28.88,93.67,159.94,555.41-70,1023-339.49,690.37-1156.43,764.15-1208.66,768h0Z"/>
      </g>
    </g>
  </g>
</svg>