<?xml version="1.0" encoding="UTF-8"?>
<svg xmlns="http://www.w3.org/2000/svg" version="1.1" viewBox="0 0 1366 403">
  <defs>
    <style>
      .cls-1 {
        fill: #fff;
      }

      .cls-2 {
        fill: #0059ff;
      }
    </style>
  </defs>
  <!-- Generator: Adobe Illustrator 28.7.1, SVG Export Plug-In . SVG Version: 1.2.0 Build 142)  -->
  <g>
    <g id="Layer_1">
      <path class="cls-2" d="M7185.14,9066.09c-91.01,6.71-803.6,47.25-1242.34-507-44.05-55.65-366.11-475.76-272.45-1007.79,57.45-326.34,245.3-547,354.45-675.21,201.25-236.4,344.2-273.45,503.74-415.68,623.32-555.68,473.89-1581.97,624.84-1578.31,62.82,1.52,77.58,151.3,243.07,646.23,238.53,713.39,284.95,806.38,360.39,889.3,175.12,192.5,285.73,166.88,473.96,409.45,44.5,57.34,162.22,218.45,233,448,28.88,93.67,159.94,555.41-70,1023-339.49,690.37-1156.43,764.15-1208.66,768Z"/>
      <path class="cls-2" d="M9573.14,5780.09c-91.01,6.71-803.6,47.25-1242.34-507-44.05-55.65-366.11-475.76-272.45-1007.79,57.45-326.34,245.3-547,354.45-675.21,201.25-236.4,344.2-273.45,503.74-415.68,623.32-555.68,473.89-1581.97,624.84-1578.31,62.82,1.52,77.58,151.3,243.07,646.23,238.53,713.39,284.95,806.38,360.39,889.3,175.12,192.5,285.73,166.88,473.96,409.45,44.5,57.34,162.22,218.45,233,448,28.88,93.67,159.94,555.41-70,1023-339.49,690.37-1156.43,764.15-1208.66,768Z"/>
      <path class="cls-2" d="M4908.14,6581.09c-91.01,6.71-803.6,47.25-1242.34-507-44.05-55.65-366.11-475.76-272.45-1007.79,57.45-326.34,245.3-547,354.45-675.21,201.25-236.4,344.2-273.45,503.74-415.68,623.32-555.68,473.89-1581.97,624.84-1578.31,62.82,1.52,77.58,151.3,243.07,646.23,238.53,713.39,284.95,806.38,360.39,889.3,175.12,192.5,285.73,166.88,473.96,409.45,44.5,57.34,162.22,218.45,233,448,28.88,93.67,159.94,555.41-70,1023-339.49,690.37-1156.43,764.15-1208.66,768Z"/>
      <g>
        <g>
          <path class="cls-1" d="M9344.13,5613.04c.61-28.01,1.22-56.02,1.83-84.04h.87l-4.83-111c14.33-537,28.67-1074,43-1611-44.9-73-89.81-146-134.71-219-49.1,70.67-98.19,141.33-147.29,212,20.67,545.67,41.33,1091.33,62,1637l-3.05,86.49h-.88c2.11,36.99,4.22,73.96,6.33,110.94-7.08,537.14-14.16,1074.29-21.24,1611.43,45.88,72.39,91.77,144.77,137.65,217.16,48.14-71.32,96.28-142.65,144.41-213.97-28.04-545.34-56.07-1090.68-84.11-1636.01Z"/>
          <g>
            <path class="cls-1" d="M9321.21,4224.74l-112.3,133.62c-8.05-8.75-16.1-17.49-24.15-26.24-139.69-99.74-279.37-199.48-419.06-299.22,9.44-47.38,18.88-94.77,28.32-142.15,47.03-20.96,94.06-41.92,141.09-62.88,120.56,126.79,241.13,253.57,361.69,380.36,8.14,5.51,16.27,11.01,24.41,16.52Z"/>
            <path class="cls-1" d="M9190.7,4211.74l112.3,133.62c8.05-8.75,16.1-17.49,24.15-26.24,139.69-99.74,279.37-199.48,419.06-299.22-9.44-47.38-18.88-94.77-28.32-142.15-47.03-20.96-94.06-41.92-141.09-62.88-120.56,126.79-241.13,253.57-361.69,380.36-8.14,5.51-16.27,11.01-24.41,16.52Z"/>
            <path class="cls-1" d="M9302.21,4620.74l-112.3,133.62c-8.05-8.75-16.1-17.49-24.15-26.24-139.69-99.74-279.37-199.48-419.06-299.22,9.44-47.38,18.88-94.77,28.32-142.15,47.03-20.96,94.06-41.92,141.09-62.88,120.56,126.79,241.13,253.57,361.69,380.36,8.14,5.51,16.27,11.01,24.41,16.52Z"/>
            <path class="cls-1" d="M9171.7,4607.74l112.3,133.62c8.05-8.75,16.1-17.49,24.15-26.24,139.69-99.74,279.37-199.48,419.06-299.22-9.44-47.38-18.88-94.77-28.32-142.15-47.03-20.96-94.06-41.92-141.09-62.88-120.56,126.79-241.13,253.57-361.69,380.36-8.14,5.51-16.27,11.01-24.41,16.52Z"/>
          </g>
          <g>
            <path class="cls-1" d="M9321.21,5041.74l-112.3,133.62c-8.05-8.75-16.1-17.49-24.15-26.24-139.69-99.74-279.37-199.48-419.06-299.22,9.44-47.38,18.88-94.77,28.32-142.15,47.03-20.96,94.06-41.92,141.09-62.88,120.56,126.79,241.13,253.57,361.69,380.36,8.14,5.51,16.27,11.01,24.41,16.52Z"/>
            <path class="cls-1" d="M9190.7,5028.74l112.3,133.62c8.05-8.75,16.1-17.49,24.15-26.24,139.69-99.74,279.37-199.48,419.06-299.22-9.44-47.38-18.88-94.77-28.32-142.15-47.03-20.96-94.06-41.92-141.09-62.88-120.56,126.79-241.13,253.57-361.69,380.36-8.14,5.51-16.27,11.01-24.41,16.52Z"/>
          </g>
          <g>
            <path class="cls-1" d="M9331.21,5405.74l-112.3,133.62c-8.05-8.75-16.1-17.49-24.15-26.24-139.69-99.74-279.37-199.48-419.06-299.22,9.44-47.38,18.88-94.77,28.32-142.15,47.03-20.96,94.06-41.92,141.09-62.88,120.56,126.79,241.13,253.57,361.69,380.36,8.14,5.51,16.27,11.01,24.41,16.52Z"/>
            <path class="cls-1" d="M9200.7,5392.74l112.3,133.62c8.05-8.75,16.1-17.49,24.15-26.24,139.69-99.74,279.37-199.48,419.06-299.22-9.44-47.38-18.88-94.77-28.32-142.15-47.03-20.96-94.06-41.92-141.09-62.88-120.56,126.79-241.13,253.57-361.69,380.36-8.14,5.51-16.27,11.01-24.41,16.52Z"/>
          </g>
          <g>
            <path class="cls-1" d="M9321.21,5659.48l-112.3-133.62c-8.05,8.75-16.1,17.49-24.15,26.24-139.69,99.74-279.37,199.48-419.06,299.22,9.44,47.38,18.88,94.77,28.32,142.15,47.03,20.96,94.06,41.92,141.09,62.88,120.56-126.79,241.13-253.57,361.69-380.36,8.14-5.51,16.27-11.01,24.41-16.52Z"/>
            <path class="cls-1" d="M9190.7,5672.48l112.3-133.62c8.05,8.75,16.1,17.49,24.15,26.24,139.69,99.74,279.37,199.48,419.06,299.22-9.44,47.38-18.88,94.77-28.32,142.15-47.03,20.96-94.06,41.92-141.09,62.88-120.56-126.79-241.13-253.57-361.69-380.36-8.14-5.51-16.27-11.01-24.41-16.52Z"/>
          </g>
          <g>
            <path class="cls-1" d="M9331.21,6082.48l-112.3-133.62c-8.05,8.75-16.1,17.49-24.15,26.24-139.69,99.74-279.37,199.48-419.06,299.22,9.44,47.38,18.88,94.77,28.32,142.15,47.03,20.96,94.06,41.92,141.09,62.88,120.56-126.79,241.13-253.57,361.69-380.36,8.14-5.51,16.27-11.01,24.41-16.52Z"/>
            <path class="cls-1" d="M9200.7,6095.48l112.3-133.62c8.05,8.75,16.1,17.49,24.15,26.24,139.69,99.74,279.37,199.48,419.06,299.22-9.44,47.38-18.88,94.77-28.32,142.15-47.03,20.96-94.06,41.92-141.09,62.88-120.56-126.79-241.13-253.57-361.69-380.36-8.14-5.51-16.27-11.01-24.41-16.52Z"/>
          </g>
          <g>
            <path class="cls-1" d="M9331.21,6511.48l-112.3-133.62c-8.05,8.75-16.1,17.49-24.15,26.24-139.69,99.74-279.37,199.48-419.06,299.22,9.44,47.38,18.88,94.77,28.32,142.15,47.03,20.96,94.06,41.92,141.09,62.88,120.56-126.79,241.13-253.57,361.69-380.36,8.14-5.51,16.27-11.01,24.41-16.52Z"/>
            <path class="cls-1" d="M9200.7,6524.48l112.3-133.62c8.05,8.75,16.1,17.49,24.15,26.24,139.69,99.74,279.37,199.48,419.06,299.22-9.44,47.38-18.88,94.77-28.32,142.15-47.03,20.96-94.06,41.92-141.09,62.88-120.56-126.79-241.13-253.57-361.69-380.36-8.14-5.51-16.27-11.01-24.41-16.52Z"/>
          </g>
          <g>
            <path class="cls-1" d="M9367.21,6934.48l-112.3-133.62c-8.05,8.75-16.1,17.49-24.15,26.24-139.69,99.74-279.37,199.48-419.06,299.22,9.44,47.38,18.88,94.77,28.32,142.15,47.03,20.96,94.06,41.92,141.09,62.88,120.56-126.79,241.13-253.57,361.69-380.36,8.14-5.51,16.27-11.01,24.41-16.52Z"/>
            <path class="cls-1" d="M9236.7,6947.48l112.3-133.62c8.05,8.75,16.1,17.49,24.15,26.24,139.69,99.74,279.37,199.48,419.06,299.22-9.44,47.38-18.88,94.77-28.32,142.15-47.03,20.96-94.06,41.92-141.09,62.88-120.56-126.79-241.13-253.57-361.69-380.36-8.14-5.51-16.27-11.01-24.41-16.52Z"/>
          </g>
          <g>
            <path class="cls-1" d="M9177.4,5614.81c28.01.73,56.02,1.47,84.03,2.2v.87c37-1.44,74.01-2.89,111.02-4.33,536.93,16.74,1073.86,33.48,1610.79,50.22,73.2-44.58,146.4-89.15,219.6-133.73-70.45-49.41-140.89-98.83-211.34-148.24-545.75,18.22-1091.51,36.44-1637.26,54.66-28.82-1.15-57.65-2.29-86.47-3.44v-.88c-36.99,1.94-73.98,3.89-110.96,5.83-537.11-9.49-1074.22-18.97-1611.32-28.46-72.59,45.56-145.18,91.12-217.78,136.68,71.11,48.46,142.21,96.91,213.32,145.37,545.46-25.59,1090.92-51.18,1636.37-76.77Z"/>
            <g>
              <path class="cls-1" d="M10565.78,5598.11l-133.11-112.9c8.78-8.01,17.57-16.02,26.35-24.03,100.37-139.24,200.73-278.48,301.1-417.72,47.34,9.65,94.68,19.3,142.03,28.95,20.75,47.12,41.5,94.24,62.25,141.37-127.33,119.99-254.65,239.99-381.98,359.98-5.54,8.11-11.08,16.22-16.63,24.34Z"/>
              <path class="cls-1" d="M10579.36,5467.67l-134.12,111.7c8.71,8.09,17.42,16.18,26.13,24.26,99.11,140.13,198.23,280.27,297.34,420.4,47.43-9.23,94.85-18.45,142.28-27.68,21.17-46.93,42.34-93.87,63.51-140.8-126.24-121.13-252.49-242.26-378.73-363.39-5.47-8.16-10.94-16.32-16.41-24.48Z"/>
              <path class="cls-1" d="M10169.87,5577.34l-133.11-112.9c8.78-8.01,17.57-16.02,26.35-24.03,100.37-139.24,200.73-278.48,301.1-417.72,47.34,9.65,94.68,19.3,142.03,28.95,20.75,47.12,41.5,94.24,62.25,141.37-127.33,119.99-254.65,239.99-381.98,359.98-5.54,8.11-11.08,16.22-16.63,24.34Z"/>
              <path class="cls-1" d="M10183.45,5446.89l-134.12,111.7c8.71,8.09,17.42,16.18,26.13,24.26,99.11,140.13,198.23,280.27,297.34,420.4,47.43-9.23,94.85-18.45,142.28-27.68,21.17-46.93,42.34-93.87,63.51-140.8-126.24-121.13-252.49-242.26-378.73-363.39-5.47-8.16-10.94-16.32-16.41-24.48Z"/>
            </g>
            <g>
              <path class="cls-1" d="M9748.79,5594.45l-133.11-112.9c8.78-8.01,17.57-16.02,26.35-24.03,100.37-139.24,200.73-278.48,301.1-417.72,47.34,9.65,94.68,19.3,142.03,28.95,20.75,47.12,41.5,94.24,62.25,141.37-127.33,119.99-254.65,239.99-381.98,359.98-5.54,8.11-11.08,16.22-16.63,24.34Z"/>
              <path class="cls-1" d="M9762.37,5464.01l-134.12,111.7c8.71,8.09,17.42,16.18,26.13,24.26,99.11,140.13,198.23,280.27,297.34,420.4,47.43-9.23,94.85-18.45,142.28-27.68,21.17-46.93,42.34-93.87,63.51-140.8-126.24-121.13-252.49-242.26-378.73-363.39-5.47-8.16-10.94-16.32-16.41-24.48Z"/>
            </g>
            <g>
              <path class="cls-1" d="M9384.75,5602.82l-133.11-112.9c8.78-8.01,17.57-16.02,26.35-24.03,100.37-139.24,200.73-278.48,301.1-417.72,47.34,9.65,94.68,19.3,142.03,28.95,20.75,47.12,41.5,94.24,62.25,141.37-127.33,119.99-254.65,239.99-381.98,359.98-5.54,8.11-11.08,16.22-16.63,24.34Z"/>
              <path class="cls-1" d="M9398.33,5472.37l-134.12,111.7c8.71,8.09,17.42,16.18,26.13,24.26,99.11,140.13,198.23,280.27,297.34,420.4,47.43-9.23,94.85-18.45,142.28-27.68,21.17-46.93,42.34-93.87,63.51-140.8-126.24-121.13-252.49-242.26-378.73-363.39-5.47-8.16-10.94-16.32-16.41-24.48Z"/>
            </g>
            <g>
              <path class="cls-1" d="M9131.05,5591.68l134.12-111.7c-8.71-8.09-17.42-16.18-26.13-24.26-99.11-140.13-198.23-280.27-297.34-420.4-47.43,9.23-94.85,18.45-142.28,27.68-21.17,46.93-42.34,93.87-63.51,140.8,126.24,121.13,252.49,242.26,378.73,363.39,5.47,8.16,10.94,16.32,16.41,24.48Z"/>
              <path class="cls-1" d="M9118.64,5461.12l133.11,112.9c-8.78,8.01-17.57,16.02-26.35,24.03-100.37,139.24-200.73,278.48-301.1,417.72-47.34-9.65-94.68-19.3-142.03-28.95-20.75-47.12-41.5-94.24-62.25-141.37,127.33-119.99,254.65-239.99,381.98-359.98,5.54-8.11,11.08-16.22,16.63-24.34Z"/>
            </g>
            <g>
              <path class="cls-1" d="M8708.01,5599.79l134.12-111.7c-8.71-8.09-17.42-16.18-26.13-24.26-99.11-140.13-198.23-280.27-297.34-420.4-47.43,9.23-94.85,18.45-142.28,27.68-21.17,46.93-42.34,93.87-63.51,140.8,126.24,121.13,252.49,242.26,378.73,363.39,5.47,8.16,10.94,16.32,16.41,24.48Z"/>
              <path class="cls-1" d="M8695.6,5469.22l133.11,112.9c-8.78,8.01-17.57,16.02-26.35,24.03-100.37,139.24-200.73,278.48-301.1,417.72-47.34-9.65-94.68-19.3-142.03-28.95-20.75-47.12-41.5-94.24-62.25-141.37,127.33-119.99,254.65-239.99,381.98-359.98,5.54-8.11,11.08-16.22,16.63-24.34Z"/>
            </g>
            <g>
              <path class="cls-1" d="M8279.01,5597.87l134.12-111.7c-8.71-8.09-17.42-16.18-26.13-24.26-99.11-140.13-198.23-280.27-297.34-420.4-47.43,9.23-94.85,18.45-142.28,27.68-21.17,46.93-42.34,93.87-63.51,140.8,126.24,121.13,252.49,242.26,378.73,363.39,5.47,8.16,10.94,16.32,16.41,24.48Z"/>
              <path class="cls-1" d="M8266.6,5467.3l133.11,112.9c-8.78,8.01-17.57,16.02-26.35,24.03-100.37,139.24-200.73,278.48-301.1,417.72-47.34-9.65-94.68-19.3-142.03-28.95-20.75-47.12-41.5-94.24-62.25-141.37,127.33-119.99,254.65-239.99,381.98-359.98,5.54-8.11,11.08-16.22,16.63-24.34Z"/>
            </g>
            <g>
              <path class="cls-1" d="M7855.86,5631.97l134.12-111.7c-8.71-8.09-17.42-16.18-26.13-24.26-99.11-140.13-198.23-280.27-297.34-420.4-47.43,9.23-94.85,18.45-142.28,27.68-21.17,46.93-42.34,93.87-63.51,140.8,126.24,121.13,252.49,242.26,378.73,363.39,5.47,8.16,10.94,16.32,16.41,24.48Z"/>
              <path class="cls-1" d="M7843.44,5501.41l133.11,112.9c-8.78,8.01-17.57,16.02-26.35,24.03-100.37,139.24-200.73,278.48-301.1,417.72-47.34-9.65-94.68-19.3-142.03-28.95-20.75-47.12-41.5-94.24-62.25-141.37,127.33-119.99,254.65-239.99,381.98-359.98,5.54-8.11,11.08-16.22,16.63-24.34Z"/>
            </g>
          </g>
        </g>
        <g>
          <path class="cls-1" d="M9282.89,5697.02c20.6-18.99,41.21-37.97,61.81-56.96l.61.63,76.63-80.45c396.84-362.07,793.68-724.14,1190.52-1086.2,21.46-82.98,42.91-165.95,64.37-248.93-84.96,13.63-169.92,27.26-254.88,40.9-378.81,393.3-757.62,786.59-1136.43,1179.89-21.48,19.26-42.95,38.52-64.43,57.78l-.62-.62c-25.18,27.16-50.35,54.32-75.53,81.48-391.91,367.4-783.82,734.79-1175.74,1102.19-20.33,83.26-40.67,166.52-61,249.77,84.77-14.78,169.54-29.56,254.31-44.34,373.46-398.38,746.93-796.75,1120.39-1195.13Z"/>
          <g>
            <path class="cls-1" d="M10267.24,4717.77l-174.15,11.75c.72-11.87,1.44-23.73,2.16-35.6-25.01-169.81-50.02-339.62-75.03-509.43,40.69-26.06,81.37-52.12,122.06-78.18,47.71,19.35,95.43,38.7,143.14,58.04-7.74,174.79-15.48,349.57-23.22,524.36,1.68,9.68,3.35,19.36,5.03,29.04Z"/>
            <path class="cls-1" d="M10186.11,4614.72l-18.39,173.57c11.88-.27,23.77-.53,35.65-.8,168.73,31.47,337.46,62.95,506.19,94.43,27.59-39.66,55.19-79.32,82.78-118.98-17.51-48.42-35.02-96.84-52.54-145.25-174.96,1.06-349.91,2.12-524.87,3.18-9.61-2.04-19.22-4.09-28.83-6.13Z"/>
            <path class="cls-1" d="M9968.75,4978.69l-174.15,11.75c.72-11.87,1.44-23.73,2.16-35.6-25.01-169.81-50.02-339.62-75.03-509.43,40.69-26.06,81.37-52.12,122.06-78.18,47.71,19.35,95.43,38.7,143.14,58.04-7.74,174.79-15.48,349.57-23.22,524.36,1.68,9.68,3.35,19.36,5.03,29.04Z"/>
            <path class="cls-1" d="M9887.62,4875.65l-18.39,173.57c11.88-.27,23.77-.53,35.65-.8,168.73,31.47,337.46,62.95,506.19,94.43,27.59-39.66,55.19-79.32,82.78-118.98-17.51-48.42-35.02-96.84-52.54-145.25-174.96,1.06-349.91,2.12-524.87,3.18-9.61-2.04-19.22-4.09-28.83-6.13Z"/>
          </g>
          <g>
            <path class="cls-1" d="M9678.61,5284.33l-174.15,11.75c.72-11.87,1.44-23.73,2.16-35.6-25.01-169.81-50.02-339.62-75.03-509.43,40.69-26.06,81.37-52.12,122.06-78.18,47.71,19.35,95.43,38.7,143.14,58.04-7.74,174.79-15.48,349.57-23.22,524.36,1.68,9.68,3.35,19.36,5.03,29.04Z"/>
            <path class="cls-1" d="M9597.47,5181.29l-18.39,173.57c11.88-.27,23.77-.53,35.65-.8,168.73,31.47,337.46,62.95,506.19,94.43,27.59-39.66,55.19-79.32,82.78-118.98-17.51-48.42-35.02-96.84-52.54-145.25-174.96,1.06-349.91,2.12-524.87,3.18-9.61-2.04-19.22-4.09-28.83-6.13Z"/>
          </g>
          <g>
            <path class="cls-1" d="M9423.29,5543.96l-174.15,11.75c.72-11.87,1.44-23.73,2.16-35.6-25.01-169.81-50.02-339.62-75.03-509.43,40.69-26.06,81.37-52.12,122.06-78.18,47.71,19.35,95.43,38.7,143.14,58.04-7.74,174.79-15.48,349.57-23.22,524.36,1.68,9.68,3.35,19.36,5.03,29.04Z"/>
            <path class="cls-1" d="M9342.15,5440.92l-18.39,173.57c11.88-.27,23.77-.53,35.65-.8,168.73,31.47,337.46,62.95,506.19,94.43,27.59-39.66,55.19-79.32,82.78-118.98-17.51-48.42-35.02-96.84-52.54-145.25-174.96,1.06-349.91,2.12-524.87,3.18-9.61-2.04-19.22-4.09-28.83-6.13Z"/>
          </g>
          <g>
            <path class="cls-1" d="M9233.54,5712.72l18.39-173.57c-11.88.27-23.77.53-35.65.8-168.73-31.47-337.46-62.95-506.19-94.43-27.59,39.66-55.19,79.32-82.78,118.98,17.51,48.42,35.02,96.84,52.54,145.25,174.96-1.06,349.91-2.12,524.87-3.18,9.61,2.04,19.22,4.09,28.83,6.13Z"/>
            <path class="cls-1" d="M9133.67,5627.71l174.15-11.75c-.72,11.87-1.44,23.73-2.16,35.6,25.01,169.81,50.02,339.62,75.03,509.43-40.69,26.06-81.37,52.12-122.06,78.18-47.71-19.35-95.43-38.7-143.14-58.04,7.74-174.79,15.48-349.57,23.22-524.36-1.68-9.68-3.35-19.36-5.03-29.04Z"/>
          </g>
          <g>
            <path class="cls-1" d="M8935.71,6013.27l18.39-173.57c-11.88.27-23.77.53-35.65.8-168.73-31.47-337.46-62.95-506.19-94.43-27.59,39.66-55.19,79.32-82.78,118.98,17.51,48.42,35.02,96.84,52.54,145.25,174.96-1.06,349.91-2.12,524.87-3.18,9.61,2.04,19.22,4.09,28.83,6.13Z"/>
            <path class="cls-1" d="M8835.84,5928.25l174.15-11.75c-.72,11.87-1.44,23.73-2.16,35.6,25.01,169.81,50.02,339.62,75.03,509.43-40.69,26.06-81.37,52.12-122.06,78.18-47.71-19.35-95.43-38.7-143.14-58.04,7.74-174.79,15.48-349.57,23.22-524.36-1.68-9.68-3.35-19.36-5.03-29.04Z"/>
          </g>
          <g>
            <path class="cls-1" d="M8626.62,6310.77l18.39-173.57c-11.88.27-23.77.53-35.65.8-168.73-31.47-337.46-62.95-506.19-94.43-27.59,39.66-55.19,79.32-82.78,118.98,17.51,48.42,35.02,96.84,52.54,145.25,174.96-1.06,349.91-2.12,524.87-3.18,9.61,2.04,19.22,4.09,28.83,6.13Z"/>
            <path class="cls-1" d="M8526.75,6225.75l174.15-11.75c-.72,11.87-1.44,23.73-2.16,35.6,25.01,169.81,50.02,339.62,75.03,509.43-40.69,26.06-81.37,52.12-122.06,78.18-47.71-19.35-95.43-38.7-143.14-58.04,7.74-174.79,15.48-349.57,23.22-524.36-1.68-9.68-3.35-19.36-5.03-29.04Z"/>
          </g>
          <g>
            <path class="cls-1" d="M8346.82,6630.04l18.39-173.57c-11.88.27-23.77.53-35.65.8-168.73-31.47-337.46-62.95-506.19-94.43-27.59,39.66-55.19,79.32-82.78,118.98,17.51,48.42,35.02,96.84,52.54,145.25,174.96-1.06,349.91-2.12,524.87-3.18,9.61,2.04,19.22,4.09,28.83,6.13Z"/>
            <path class="cls-1" d="M8246.95,6545.03l174.15-11.75c-.72,11.87-1.44,23.73-2.16,35.6,25.01,169.81,50.02,339.62,75.03,509.43-40.69,26.06-81.37,52.12-122.06,78.18-47.71-19.35-95.43-38.7-143.14-58.04,7.74-174.79,15.48-349.57,23.22-524.36-1.68-9.68-3.35-19.36-5.03-29.04Z"/>
          </g>
          <g>
            <path class="cls-1" d="M9165.99,5578.13c18.89,20.69,37.79,41.38,56.68,62.07l-.63.6c26.7,25.66,53.41,51.32,80.11,76.99,360.29,398.46,720.57,796.91,1080.86,1195.37,82.88,21.83,165.76,43.66,248.64,65.48-13.25-85.02-26.5-170.04-39.75-255.07-391.59-380.57-783.19-761.14-1174.78-1141.71-19.16-21.56-38.33-43.12-57.49-64.69l.63-.61c-27.05-25.3-54.1-50.6-81.14-75.9-365.64-393.55-731.27-787.11-1096.91-1180.66-83.17-20.71-166.33-41.41-249.5-62.12,14.4,84.84,28.8,169.67,43.2,254.51,396.7,375.25,793.4,750.49,1190.1,1125.74Z"/>
            <g>
              <path class="cls-1" d="M10140.83,6566.86l-10.97-174.2c11.86.77,23.72,1.55,35.58,2.32,169.92-24.25,339.84-48.49,509.76-72.74,25.88,40.8,51.75,81.6,77.63,122.41-19.56,47.63-39.12,95.25-58.69,142.88-174.75-8.52-349.5-17.04-524.25-25.57-9.69,1.63-19.38,3.27-29.06,4.9Z"/>
              <path class="cls-1" d="M10244.23,6486.18l-173.49-19.17c.21,11.88.43,23.77.64,35.65-32.23,168.59-64.46,337.18-96.69,505.76,39.54,27.77,79.07,55.54,118.61,83.31,48.5-17.29,96.99-34.59,145.49-51.88-.27-174.96-.55-349.92-.82-524.88,2.09-9.6,4.18-19.2,6.26-28.8Z"/>
              <path class="cls-1" d="M9881.24,6267.2l-10.97-174.2c11.86.77,23.72,1.55,35.58,2.32,169.92-24.25,339.84-48.49,509.76-72.74,25.88,40.8,51.75,81.6,77.63,122.41-19.56,47.63-39.12,95.25-58.69,142.88-174.75-8.52-349.5-17.04-524.25-25.57-9.69,1.63-19.38,3.27-29.06,4.9Z"/>
              <path class="cls-1" d="M9984.65,6186.53l-173.49-19.17c.21,11.88.43,23.77.64,35.65-32.23,168.59-64.46,337.18-96.69,505.76,39.54,27.77,79.07,55.54,118.61,83.31,48.5-17.29,96.99-34.59,145.49-51.88-.27-174.96-.55-349.92-.82-524.88,2.09-9.6,4.18-19.2,6.26-28.8Z"/>
            </g>
            <g>
              <path class="cls-1" d="M9576.9,5975.69l-10.97-174.2c11.86.77,23.72,1.55,35.58,2.32,169.92-24.25,339.84-48.49,509.76-72.74,25.88,40.8,51.75,81.6,77.63,122.41-19.56,47.63-39.12,95.25-58.69,142.88-174.75-8.52-349.5-17.04-524.25-25.57-9.69,1.63-19.38,3.27-29.06,4.9Z"/>
              <path class="cls-1" d="M9680.31,5895.01l-173.49-19.17c.21,11.88.43,23.77.64,35.65-32.23,168.59-64.46,337.18-96.69,505.76,39.54,27.77,79.07,55.54,118.61,83.31,48.5-17.29,96.99-34.59,145.49-51.88-.27-174.96-.55-349.92-.82-524.88,2.09-9.6,4.18-19.2,6.26-28.8Z"/>
            </g>
            <g>
              <path class="cls-1" d="M9318.42,5719.21l-10.97-174.2c11.86.77,23.72,1.55,35.58,2.32,169.92-24.25,339.84-48.49,509.76-72.74,25.88,40.8,51.75,81.6,77.63,122.41-19.56,47.63-39.12,95.25-58.69,142.88-174.75-8.52-349.5-17.04-524.25-25.57-9.69,1.63-19.38,3.27-29.06,4.9Z"/>
              <path class="cls-1" d="M9421.83,5638.53l-173.49-19.17c.21,11.88.43,23.77.64,35.65-32.23,168.59-64.46,337.18-96.69,505.76,39.54,27.77,79.07,55.54,118.61,83.31,48.5-17.29,96.99-34.59,145.49-51.88-.27-174.96-.55-349.92-.82-524.88,2.09-9.6,4.18-19.2,6.26-28.8Z"/>
            </g>
            <g>
              <path class="cls-1" d="M9150.51,5528.7l173.49,19.17c-.21-11.88-.43-23.77-.64-35.65,32.23-168.59,64.46-337.18,96.69-505.76-39.54-27.77-79.07-55.54-118.61-83.31-48.5,17.29-96.99,34.59-145.49,51.88.27,174.96.55,349.92.82,524.88-2.09,9.6-4.18,19.2-6.26,28.8Z"/>
              <path class="cls-1" d="M9235.97,5429.21l10.97,174.2c-11.86-.77-23.72-1.55-35.58-2.32-169.92,24.25-339.84,48.49-509.76,72.74-25.88-40.8-51.75-81.6-77.63-122.41,19.56-47.63,39.12-95.25,58.69-142.88,174.75,8.52,349.5,17.04,524.25,25.57,9.69-1.63,19.38-3.27,29.06-4.9Z"/>
            </g>
            <g>
              <path class="cls-1" d="M8851.31,5229.53l173.49,19.17c-.21-11.88-.43-23.77-.64-35.65,32.23-168.59,64.46-337.18,96.69-505.76-39.54-27.77-79.07-55.54-118.61-83.31-48.5,17.29-96.99,34.59-145.49,51.88.27,174.96.55,349.92.82,524.88-2.09,9.6-4.18,19.2-6.26,28.8Z"/>
              <path class="cls-1" d="M8936.77,5130.04l10.97,174.2c-11.86-.77-23.72-1.55-35.58-2.32-169.92,24.25-339.84,48.49-509.76,72.74-25.88-40.8-51.75-81.6-77.63-122.41,19.56-47.63,39.12-95.25,58.69-142.88,174.75,8.52,349.5,17.04,524.25,25.57,9.69-1.63,19.38-3.27,29.06-4.9Z"/>
            </g>
            <g>
              <path class="cls-1" d="M8555.2,4919.11l173.49,19.17c-.21-11.88-.43-23.77-.64-35.65,32.23-168.59,64.46-337.18,96.69-505.76-39.54-27.77-79.07-55.54-118.61-83.31-48.5,17.29-96.99,34.59-145.49,51.88.27,174.96.55,349.92.82,524.88-2.09,9.6-4.18,19.2-6.26,28.8Z"/>
              <path class="cls-1" d="M8640.65,4819.62l10.97,174.2c-11.86-.77-23.72-1.55-35.58-2.32-169.92,24.25-339.84,48.49-509.76,72.74-25.88-40.8-51.75-81.6-77.63-122.41,19.56-47.63,39.12-95.25,58.69-142.88,174.75,8.52,349.5,17.04,524.25,25.57,9.69-1.63,19.38-3.27,29.06-4.9Z"/>
            </g>
            <g>
              <path class="cls-1" d="M8237.18,4637.88l173.49,19.17c-.21-11.88-.43-23.77-.64-35.65,32.23-168.59,64.46-337.18,96.69-505.76-39.54-27.77-79.07-55.54-118.61-83.31-48.5,17.29-96.99,34.59-145.49,51.88.27,174.96.55,349.92.82,524.88-2.09,9.6-4.18,19.2-6.26,28.8Z"/>
              <path class="cls-1" d="M8322.64,4538.4l10.97,174.2c-11.86-.77-23.72-1.55-35.58-2.32-169.92,24.25-339.84,48.49-509.76,72.74-25.88-40.8-51.75-81.6-77.63-122.41,19.56-47.63,39.12-95.25,58.69-142.88,174.75,8.52,349.5,17.04,524.25,25.57,9.69-1.63,19.38-3.27,29.06-4.9Z"/>
            </g>
          </g>
        </g>
      </g>
      <g>
        <g>
          <path class="cls-1" d="M5122.13,8336.04c.61-28.01,1.22-56.02,1.83-84.04h.87l-4.83-111c14.33-537,28.67-1074,43-1611-44.9-73-89.81-146-134.71-219-49.1,70.67-98.19,141.33-147.29,212,20.67,545.67,41.33,1091.33,62,1637l-3.05,86.49h-.88c2.11,36.99,4.22,73.96,6.33,110.94-7.08,537.14-14.16,1074.29-21.24,1611.43,45.88,72.39,91.77,144.77,137.65,217.16,48.14-71.32,96.28-142.65,144.41-213.97-28.04-545.34-56.07-1090.68-84.11-1636.01Z"/>
          <g>
            <path class="cls-1" d="M5099.21,6947.74l-112.3,133.62c-8.05-8.75-16.1-17.49-24.15-26.24-139.69-99.74-279.37-199.48-419.06-299.22,9.44-47.38,18.88-94.77,28.32-142.15,47.03-20.96,94.06-41.92,141.09-62.88,120.56,126.79,241.13,253.57,361.69,380.36,8.14,5.51,16.27,11.01,24.41,16.52Z"/>
            <path class="cls-1" d="M4968.7,6934.74l112.3,133.62c8.05-8.75,16.1-17.49,24.15-26.24,139.69-99.74,279.37-199.48,419.06-299.22-9.44-47.38-18.88-94.77-28.32-142.15-47.03-20.96-94.06-41.92-141.09-62.88-120.56,126.79-241.13,253.57-361.69,380.36-8.14,5.51-16.27,11.01-24.41,16.52Z"/>
            <path class="cls-1" d="M5080.21,7343.74l-112.3,133.62c-8.05-8.75-16.1-17.49-24.15-26.24-139.69-99.74-279.37-199.48-419.06-299.22,9.44-47.38,18.88-94.77,28.32-142.15,47.03-20.96,94.06-41.92,141.09-62.88,120.56,126.79,241.13,253.57,361.69,380.36,8.14,5.51,16.27,11.01,24.41,16.52Z"/>
            <path class="cls-1" d="M4949.7,7330.74l112.3,133.62c8.05-8.75,16.1-17.49,24.15-26.24,139.69-99.74,279.37-199.48,419.06-299.22-9.44-47.38-18.88-94.77-28.32-142.15-47.03-20.96-94.06-41.92-141.09-62.88-120.56,126.79-241.13,253.57-361.69,380.36-8.14,5.51-16.27,11.01-24.41,16.52Z"/>
          </g>
          <g>
            <path class="cls-1" d="M5099.21,7764.74l-112.3,133.62c-8.05-8.75-16.1-17.49-24.15-26.24-139.69-99.74-279.37-199.48-419.06-299.22,9.44-47.38,18.88-94.77,28.32-142.15,47.03-20.96,94.06-41.92,141.09-62.88,120.56,126.79,241.13,253.57,361.69,380.36,8.14,5.51,16.27,11.01,24.41,16.52Z"/>
            <path class="cls-1" d="M4968.7,7751.74l112.3,133.62c8.05-8.75,16.1-17.49,24.15-26.24,139.69-99.74,279.37-199.48,419.06-299.22-9.44-47.38-18.88-94.77-28.32-142.15-47.03-20.96-94.06-41.92-141.09-62.88-120.56,126.79-241.13,253.57-361.69,380.36-8.14,5.51-16.27,11.01-24.41,16.52Z"/>
          </g>
          <g>
            <path class="cls-1" d="M5109.21,8128.74l-112.3,133.62c-8.05-8.75-16.1-17.49-24.15-26.24-139.69-99.74-279.37-199.48-419.06-299.22,9.44-47.38,18.88-94.77,28.32-142.15,47.03-20.96,94.06-41.92,141.09-62.88,120.56,126.79,241.13,253.57,361.69,380.36,8.14,5.51,16.27,11.01,24.41,16.52Z"/>
            <path class="cls-1" d="M4978.7,8115.74l112.3,133.62c8.05-8.75,16.1-17.49,24.15-26.24,139.69-99.74,279.37-199.48,419.06-299.22-9.44-47.38-18.88-94.77-28.32-142.15-47.03-20.96-94.06-41.92-141.09-62.88-120.56,126.79-241.13,253.57-361.69,380.36-8.14,5.51-16.27,11.01-24.41,16.52Z"/>
          </g>
          <g>
            <path class="cls-1" d="M5099.21,8382.48l-112.3-133.62c-8.05,8.75-16.1,17.49-24.15,26.24-139.69,99.74-279.37,199.48-419.06,299.22,9.44,47.38,18.88,94.77,28.32,142.15,47.03,20.96,94.06,41.92,141.09,62.88,120.56-126.79,241.13-253.57,361.69-380.36,8.14-5.51,16.27-11.01,24.41-16.52Z"/>
            <path class="cls-1" d="M4968.7,8395.48l112.3-133.62c8.05,8.75,16.1,17.49,24.15,26.24,139.69,99.74,279.37,199.48,419.06,299.22-9.44,47.38-18.88,94.77-28.32,142.15-47.03,20.96-94.06,41.92-141.09,62.88-120.56-126.79-241.13-253.57-361.69-380.36-8.14-5.51-16.27-11.01-24.41-16.52Z"/>
          </g>
          <g>
            <path class="cls-1" d="M5109.21,8805.48l-112.3-133.62c-8.05,8.75-16.1,17.49-24.15,26.24-139.69,99.74-279.37,199.48-419.06,299.22,9.44,47.38,18.88,94.77,28.32,142.15,47.03,20.96,94.06,41.92,141.09,62.88,120.56-126.79,241.13-253.57,361.69-380.36,8.14-5.51,16.27-11.01,24.41-16.52Z"/>
            <path class="cls-1" d="M4978.7,8818.48l112.3-133.62c8.05,8.75,16.1,17.49,24.15,26.24,139.69,99.74,279.37,199.48,419.06,299.22-9.44,47.38-18.88,94.77-28.32,142.15-47.03,20.96-94.06,41.92-141.09,62.88-120.56-126.79-241.13-253.57-361.69-380.36-8.14-5.51-16.27-11.01-24.41-16.52Z"/>
          </g>
          <g>
            <path class="cls-1" d="M5109.21,9234.48l-112.3-133.62c-8.05,8.75-16.1,17.49-24.15,26.24-139.69,99.74-279.37,199.48-419.06,299.22,9.44,47.38,18.88,94.77,28.32,142.15,47.03,20.96,94.06,41.92,141.09,62.88,120.56-126.79,241.13-253.57,361.69-380.36,8.14-5.51,16.27-11.01,24.41-16.52Z"/>
            <path class="cls-1" d="M4978.7,9247.48l112.3-133.62c8.05,8.75,16.1,17.49,24.15,26.24,139.69,99.74,279.37,199.48,419.06,299.22-9.44,47.38-18.88,94.77-28.32,142.15-47.03,20.96-94.06,41.92-141.09,62.88-120.56-126.79-241.13-253.57-361.69-380.36-8.14-5.51-16.27-11.01-24.41-16.52Z"/>
          </g>
          <g>
            <path class="cls-1" d="M5145.21,9657.48l-112.3-133.62c-8.05,8.75-16.1,17.49-24.15,26.24-139.69,99.74-279.37,199.48-419.06,299.22,9.44,47.38,18.88,94.77,28.32,142.15,47.03,20.96,94.06,41.92,141.09,62.88,120.56-126.79,241.13-253.57,361.69-380.36,8.14-5.51,16.27-11.01,24.41-16.52Z"/>
            <path class="cls-1" d="M5014.7,9670.48l112.3-133.62c8.05,8.75,16.1,17.49,24.15,26.24,139.69,99.74,279.37,199.48,419.06,299.22-9.44,47.38-18.88,94.77-28.32,142.15-47.03,20.96-94.06,41.92-141.09,62.88-120.56-126.79-241.13-253.57-361.69-380.36-8.14-5.51-16.27-11.01-24.41-16.52Z"/>
          </g>
          <g>
            <path class="cls-1" d="M4955.4,8337.81c28.01.73,56.02,1.47,84.03,2.2v.87c37-1.44,74.01-2.89,111.02-4.33,536.93,16.74,1073.86,33.48,1610.79,50.22,73.2-44.58,146.4-89.15,219.6-133.73-70.45-49.41-140.89-98.83-211.34-148.24-545.75,18.22-1091.51,36.44-1637.26,54.66-28.82-1.15-57.65-2.29-86.47-3.44v-.88c-36.99,1.94-73.98,3.89-110.96,5.83-537.11-9.49-1074.22-18.97-1611.32-28.46-72.59,45.56-145.18,91.12-217.78,136.68,71.11,48.46,142.21,96.91,213.32,145.37,545.46-25.59,1090.92-51.18,1636.37-76.77Z"/>
            <g>
              <path class="cls-1" d="M6343.78,8321.11l-133.11-112.9c8.78-8.01,17.57-16.02,26.35-24.03,100.37-139.24,200.73-278.48,301.1-417.72,47.34,9.65,94.68,19.3,142.03,28.95,20.75,47.12,41.5,94.24,62.25,141.37-127.33,119.99-254.65,239.99-381.98,359.98-5.54,8.11-11.08,16.22-16.63,24.34Z"/>
              <path class="cls-1" d="M6357.36,8190.67l-134.12,111.7c8.71,8.09,17.42,16.18,26.13,24.26,99.11,140.13,198.23,280.27,297.34,420.4,47.43-9.23,94.85-18.45,142.28-27.68,21.17-46.93,42.34-93.87,63.51-140.8-126.24-121.13-252.49-242.26-378.73-363.39-5.47-8.16-10.94-16.32-16.41-24.48Z"/>
              <path class="cls-1" d="M5947.87,8300.34l-133.11-112.9c8.78-8.01,17.57-16.02,26.35-24.03,100.37-139.24,200.73-278.48,301.1-417.72,47.34,9.65,94.68,19.3,142.03,28.95,20.75,47.12,41.5,94.24,62.25,141.37-127.33,119.99-254.65,239.99-381.98,359.98-5.54,8.11-11.08,16.22-16.63,24.34Z"/>
              <path class="cls-1" d="M5961.45,8169.89l-134.12,111.7c8.71,8.09,17.42,16.18,26.13,24.26,99.11,140.13,198.23,280.27,297.34,420.4,47.43-9.23,94.85-18.45,142.28-27.68,21.17-46.93,42.34-93.87,63.51-140.8-126.24-121.13-252.49-242.26-378.73-363.39-5.47-8.16-10.94-16.32-16.41-24.48Z"/>
            </g>
            <g>
              <path class="cls-1" d="M5526.79,8317.45l-133.11-112.9c8.78-8.01,17.57-16.02,26.35-24.03,100.37-139.24,200.73-278.48,301.1-417.72,47.34,9.65,94.68,19.3,142.03,28.95,20.75,47.12,41.5,94.24,62.25,141.37-127.33,119.99-254.65,239.99-381.98,359.98-5.54,8.11-11.08,16.22-16.63,24.34Z"/>
              <path class="cls-1" d="M5540.37,8187.01l-134.12,111.7c8.71,8.09,17.42,16.18,26.13,24.26,99.11,140.13,198.23,280.27,297.34,420.4,47.43-9.23,94.85-18.45,142.28-27.68,21.17-46.93,42.34-93.87,63.51-140.8-126.24-121.13-252.49-242.26-378.73-363.39-5.47-8.16-10.94-16.32-16.41-24.48Z"/>
            </g>
            <g>
              <path class="cls-1" d="M5162.75,8325.82l-133.11-112.9c8.78-8.01,17.57-16.02,26.35-24.03,100.37-139.24,200.73-278.48,301.1-417.72,47.34,9.65,94.68,19.3,142.03,28.95,20.75,47.12,41.5,94.24,62.25,141.37-127.33,119.99-254.65,239.99-381.98,359.98-5.54,8.11-11.08,16.22-16.63,24.34Z"/>
              <path class="cls-1" d="M5176.33,8195.37l-134.12,111.7c8.71,8.09,17.42,16.18,26.13,24.26,99.11,140.13,198.23,280.27,297.34,420.4,47.43-9.23,94.85-18.45,142.28-27.68,21.17-46.93,42.34-93.87,63.51-140.8-126.24-121.13-252.49-242.26-378.73-363.39-5.47-8.16-10.94-16.32-16.41-24.48Z"/>
            </g>
            <g>
              <path class="cls-1" d="M4909.05,8314.68l134.12-111.7c-8.71-8.09-17.42-16.18-26.13-24.26-99.11-140.13-198.23-280.27-297.34-420.4-47.43,9.23-94.85,18.45-142.28,27.68-21.17,46.93-42.34,93.87-63.51,140.8,126.24,121.13,252.49,242.26,378.73,363.39,5.47,8.16,10.94,16.32,16.41,24.48Z"/>
              <path class="cls-1" d="M4896.64,8184.12l133.11,112.9c-8.78,8.01-17.57,16.02-26.35,24.03-100.37,139.24-200.73,278.48-301.1,417.72-47.34-9.65-94.68-19.3-142.03-28.95-20.75-47.12-41.5-94.24-62.25-141.37,127.33-119.99,254.65-239.99,381.98-359.98,5.54-8.11,11.08-16.22,16.63-24.34Z"/>
            </g>
            <g>
              <path class="cls-1" d="M4486.01,8322.79l134.12-111.7c-8.71-8.09-17.42-16.18-26.13-24.26-99.11-140.13-198.23-280.27-297.34-420.4-47.43,9.23-94.85,18.45-142.28,27.68-21.17,46.93-42.34,93.87-63.51,140.8,126.24,121.13,252.49,242.26,378.73,363.39,5.47,8.16,10.94,16.32,16.41,24.48Z"/>
              <path class="cls-1" d="M4473.6,8192.22l133.11,112.9c-8.78,8.01-17.57,16.02-26.35,24.03-100.37,139.24-200.73,278.48-301.1,417.72-47.34-9.65-94.68-19.3-142.03-28.95-20.75-47.12-41.5-94.24-62.25-141.37,127.33-119.99,254.65-239.99,381.98-359.98,5.54-8.11,11.08-16.22,16.63-24.34Z"/>
            </g>
            <g>
              <path class="cls-1" d="M4057.01,8320.87l134.12-111.7c-8.71-8.09-17.42-16.18-26.13-24.26-99.11-140.13-198.23-280.27-297.34-420.4-47.43,9.23-94.85,18.45-142.28,27.68-21.17,46.93-42.34,93.87-63.51,140.8,126.24,121.13,252.49,242.26,378.73,363.39,5.47,8.16,10.94,16.32,16.41,24.48Z"/>
              <path class="cls-1" d="M4044.6,8190.3l133.11,112.9c-8.78,8.01-17.57,16.02-26.35,24.03-100.37,139.24-200.73,278.48-301.1,417.72-47.34-9.65-94.68-19.3-142.03-28.95-20.75-47.12-41.5-94.24-62.25-141.37,127.33-119.99,254.65-239.99,381.98-359.98,5.54-8.11,11.08-16.22,16.63-24.34Z"/>
            </g>
            <g>
              <path class="cls-1" d="M3633.86,8354.97l134.12-111.7c-8.71-8.09-17.42-16.18-26.13-24.26-99.11-140.13-198.23-280.27-297.34-420.4-47.43,9.23-94.85,18.45-142.28,27.68-21.17,46.93-42.34,93.87-63.51,140.8,126.24,121.13,252.49,242.26,378.73,363.39,5.47,8.16,10.94,16.32,16.41,24.48Z"/>
              <path class="cls-1" d="M3621.44,8224.41l133.11,112.9c-8.78,8.01-17.57,16.02-26.35,24.03-100.37,139.24-200.73,278.48-301.1,417.72-47.34-9.65-94.68-19.3-142.03-28.95-20.75-47.12-41.5-94.24-62.25-141.37,127.33-119.99,254.65-239.99,381.98-359.98,5.54-8.11,11.08-16.22,16.63-24.34Z"/>
            </g>
          </g>
        </g>
        <g>
          <path class="cls-1" d="M5060.89,8420.02c20.6-18.99,41.21-37.97,61.81-56.96l.61.63c25.54-26.82,51.08-53.64,76.63-80.45,396.84-362.07,793.68-724.14,1190.52-1086.2,21.46-82.98,42.91-165.95,64.37-248.93-84.96,13.63-169.92,27.26-254.88,40.9-378.81,393.3-757.62,786.59-1136.43,1179.89-21.48,19.26-42.95,38.52-64.43,57.78l-.62-.62c-25.18,27.16-50.35,54.32-75.53,81.48-391.91,367.4-783.82,734.79-1175.74,1102.19-20.33,83.26-40.67,166.52-61,249.77,84.77-14.78,169.54-29.56,254.31-44.34,373.46-398.38,746.93-796.75,1120.39-1195.13Z"/>
          <g>
            <path class="cls-1" d="M6045.24,7440.77l-174.15,11.75c.72-11.87,1.44-23.73,2.16-35.6-25.01-169.81-50.02-339.62-75.03-509.43,40.69-26.06,81.37-52.12,122.06-78.18,47.71,19.35,95.43,38.7,143.14,58.04-7.74,174.79-15.48,349.57-23.22,524.36,1.68,9.68,3.35,19.36,5.03,29.04Z"/>
            <path class="cls-1" d="M5964.11,7337.72l-18.39,173.57c11.88-.27,23.77-.53,35.65-.8,168.73,31.47,337.46,62.95,506.19,94.43,27.59-39.66,55.19-79.32,82.78-118.98-17.51-48.42-35.02-96.84-52.54-145.25-174.96,1.06-349.91,2.12-524.87,3.18-9.61-2.04-19.22-4.09-28.83-6.13Z"/>
            <path class="cls-1" d="M5746.75,7701.69l-174.15,11.75c.72-11.87,1.44-23.73,2.16-35.6-25.01-169.81-50.02-339.62-75.03-509.43,40.69-26.06,81.37-52.12,122.06-78.18,47.71,19.35,95.43,38.7,143.14,58.04-7.74,174.79-15.48,349.57-23.22,524.36,1.68,9.68,3.35,19.36,5.03,29.04Z"/>
            <path class="cls-1" d="M5665.62,7598.65l-18.39,173.57c11.88-.27,23.77-.53,35.65-.8,168.73,31.47,337.46,62.95,506.19,94.43,27.59-39.66,55.19-79.32,82.78-118.98-17.51-48.42-35.02-96.84-52.54-145.25-174.96,1.06-349.91,2.12-524.87,3.18-9.61-2.04-19.22-4.09-28.83-6.13Z"/>
          </g>
          <g>
            <path class="cls-1" d="M5456.61,8007.33l-174.15,11.75c.72-11.87,1.44-23.73,2.16-35.6-25.01-169.81-50.02-339.62-75.03-509.43,40.69-26.06,81.37-52.12,122.06-78.18,47.71,19.35,95.43,38.7,143.14,58.04-7.74,174.79-15.48,349.57-23.22,524.36,1.68,9.68,3.35,19.36,5.03,29.04Z"/>
            <path class="cls-1" d="M5375.47,7904.29l-18.39,173.57c11.88-.27,23.77-.53,35.65-.8,168.73,31.47,337.46,62.95,506.19,94.43,27.59-39.66,55.19-79.32,82.78-118.98-17.51-48.42-35.02-96.84-52.54-145.25-174.96,1.06-349.91,2.12-524.87,3.18-9.61-2.04-19.22-4.09-28.83-6.13Z"/>
          </g>
          <g>
            <path class="cls-1" d="M5201.29,8266.96l-174.15,11.75c.72-11.87,1.44-23.73,2.16-35.6-25.01-169.81-50.02-339.62-75.03-509.43,40.69-26.06,81.37-52.12,122.06-78.18,47.71,19.35,95.43,38.7,143.14,58.04-7.74,174.79-15.48,349.57-23.22,524.36,1.68,9.68,3.35,19.36,5.03,29.04Z"/>
            <path class="cls-1" d="M5120.15,8163.92l-18.39,173.57c11.88-.27,23.77-.53,35.65-.8,168.73,31.47,337.46,62.95,506.19,94.43,27.59-39.66,55.19-79.32,82.78-118.98-17.51-48.42-35.02-96.84-52.54-145.25-174.96,1.06-349.91,2.12-524.87,3.18-9.61-2.04-19.22-4.09-28.83-6.13Z"/>
          </g>
          <g>
            <path class="cls-1" d="M5011.54,8435.72l18.39-173.57c-11.88.27-23.77.53-35.65.8-168.73-31.47-337.46-62.95-506.19-94.43-27.59,39.66-55.19,79.32-82.78,118.98,17.51,48.42,35.02,96.84,52.54,145.25,174.96-1.06,349.91-2.12,524.87-3.18,9.61,2.04,19.22,4.09,28.83,6.13Z"/>
            <path class="cls-1" d="M4911.67,8350.71l174.15-11.75c-.72,11.87-1.44,23.73-2.16,35.6,25.01,169.81,50.02,339.62,75.03,509.43-40.69,26.06-81.37,52.12-122.06,78.18-47.71-19.35-95.43-38.7-143.14-58.04,7.74-174.79,15.48-349.57,23.22-524.36-1.68-9.68-3.35-19.36-5.03-29.04Z"/>
          </g>
          <g>
            <path class="cls-1" d="M4713.71,8736.27l18.39-173.57c-11.88.27-23.77.53-35.65.8-168.73-31.47-337.46-62.95-506.19-94.43-27.59,39.66-55.19,79.32-82.78,118.98,17.51,48.42,35.02,96.84,52.54,145.25,174.96-1.06,349.91-2.12,524.87-3.18,9.61,2.04,19.22,4.09,28.83,6.13Z"/>
            <path class="cls-1" d="M4613.84,8651.25l174.15-11.75c-.72,11.87-1.44,23.73-2.16,35.6,25.01,169.81,50.02,339.62,75.03,509.43-40.69,26.06-81.37,52.12-122.06,78.18-47.71-19.35-95.43-38.7-143.14-58.04,7.74-174.79,15.48-349.57,23.22-524.36-1.68-9.68-3.35-19.36-5.03-29.04Z"/>
          </g>
          <g>
            <path class="cls-1" d="M4404.62,9033.77l18.39-173.57c-11.88.27-23.77.53-35.65.8-168.73-31.47-337.46-62.95-506.19-94.43-27.59,39.66-55.19,79.32-82.78,118.98,17.51,48.42,35.02,96.84,52.54,145.25,174.96-1.06,349.91-2.12,524.87-3.18,9.61,2.04,19.22,4.09,28.83,6.13Z"/>
            <path class="cls-1" d="M4304.75,8948.75l174.15-11.75c-.72,11.87-1.44,23.73-2.16,35.6,25.01,169.81,50.02,339.62,75.03,509.43-40.69,26.06-81.37,52.12-122.06,78.18-47.71-19.35-95.43-38.7-143.14-58.04,7.74-174.79,15.48-349.57,23.22-524.36-1.68-9.68-3.35-19.36-5.03-29.04Z"/>
          </g>
          <g>
            <path class="cls-1" d="M4124.82,9353.04l18.39-173.57c-11.88.27-23.77.53-35.65.8-168.73-31.47-337.46-62.95-506.19-94.43-27.59,39.66-55.19,79.32-82.78,118.98,17.51,48.42,35.02,96.84,52.54,145.25,174.96-1.06,349.91-2.12,524.87-3.18,9.61,2.04,19.22,4.09,28.83,6.13Z"/>
            <path class="cls-1" d="M4024.95,9268.03l174.15-11.75c-.72,11.87-1.44,23.73-2.16,35.6,25.01,169.81,50.02,339.62,75.03,509.43-40.69,26.06-81.37,52.12-122.06,78.18-47.71-19.35-95.43-38.7-143.14-58.04,7.74-174.79,15.48-349.57,23.22-524.36-1.68-9.68-3.35-19.36-5.03-29.04Z"/>
          </g>
          <g>
            <path class="cls-1" d="M4943.99,8301.13c18.89,20.69,37.79,41.38,56.68,62.07l-.63.6c26.7,25.66,53.41,51.32,80.11,76.99,360.29,398.46,720.57,796.91,1080.86,1195.37,82.88,21.83,165.76,43.66,248.64,65.48-13.25-85.02-26.5-170.04-39.75-255.07-391.59-380.57-783.19-761.14-1174.78-1141.71-19.16-21.56-38.33-43.12-57.49-64.69l.63-.61c-27.05-25.3-54.1-50.6-81.14-75.9-365.64-393.55-731.27-787.11-1096.91-1180.66-83.17-20.71-166.33-41.41-249.5-62.12,14.4,84.84,28.8,169.67,43.2,254.51,396.7,375.25,793.4,750.49,1190.1,1125.74Z"/>
            <g>
              <path class="cls-1" d="M5918.83,9289.86l-10.97-174.2c11.86.77,23.72,1.55,35.58,2.32,169.92-24.25,339.84-48.49,509.76-72.74,25.88,40.8,51.75,81.6,77.63,122.41-19.56,47.63-39.12,95.25-58.69,142.88-174.75-8.52-349.5-17.04-524.25-25.57-9.69,1.63-19.38,3.27-29.06,4.9Z"/>
              <path class="cls-1" d="M6022.23,9209.18l-173.49-19.17c.21,11.88.43,23.77.64,35.65-32.23,168.59-64.46,337.18-96.69,505.76,39.54,27.77,79.07,55.54,118.61,83.31,48.5-17.29,96.99-34.59,145.49-51.88-.27-174.96-.55-349.92-.82-524.88,2.09-9.6,4.18-19.2,6.26-28.8Z"/>
              <path class="cls-1" d="M5659.24,8990.2l-10.97-174.2c11.86.77,23.72,1.55,35.58,2.32,169.92-24.25,339.84-48.49,509.76-72.74,25.88,40.8,51.75,81.6,77.63,122.41-19.56,47.63-39.12,95.25-58.69,142.88-174.75-8.52-349.5-17.04-524.25-25.57-9.69,1.63-19.38,3.27-29.06,4.9Z"/>
              <path class="cls-1" d="M5762.65,8909.53l-173.49-19.17c.21,11.88.43,23.77.64,35.65-32.23,168.59-64.46,337.18-96.69,505.76,39.54,27.77,79.07,55.54,118.61,83.31,48.5-17.29,96.99-34.59,145.49-51.88-.27-174.96-.55-349.92-.82-524.88,2.09-9.6,4.18-19.2,6.26-28.8Z"/>
            </g>
            <g>
              <path class="cls-1" d="M5354.9,8698.69l-10.97-174.2c11.86.77,23.72,1.55,35.58,2.32,169.92-24.25,339.84-48.49,509.76-72.74,25.88,40.8,51.75,81.6,77.63,122.41-19.56,47.63-39.12,95.25-58.69,142.88-174.75-8.52-349.5-17.04-524.25-25.57-9.69,1.63-19.38,3.27-29.06,4.9Z"/>
              <path class="cls-1" d="M5458.31,8618.01l-173.49-19.17c.21,11.88.43,23.77.64,35.65-32.23,168.59-64.46,337.18-96.69,505.76,39.54,27.77,79.07,55.54,118.61,83.31,48.5-17.29,96.99-34.59,145.49-51.88-.27-174.96-.55-349.92-.82-524.88,2.09-9.6,4.18-19.2,6.26-28.8Z"/>
            </g>
            <g>
              <path class="cls-1" d="M5096.42,8442.21l-10.97-174.2c11.86.77,23.72,1.55,35.58,2.32,169.92-24.25,339.84-48.49,509.76-72.74,25.88,40.8,51.75,81.6,77.63,122.41-19.56,47.63-39.12,95.25-58.69,142.88-174.75-8.52-349.5-17.04-524.25-25.57-9.69,1.63-19.38,3.27-29.06,4.9Z"/>
              <path class="cls-1" d="M5199.83,8361.53l-173.49-19.17c.21,11.88.43,23.77.64,35.65-32.23,168.59-64.46,337.18-96.69,505.76,39.54,27.77,79.07,55.54,118.61,83.31,48.5-17.29,96.99-34.59,145.49-51.88-.27-174.96-.55-349.92-.82-524.88,2.09-9.6,4.18-19.2,6.26-28.8Z"/>
            </g>
            <g>
              <path class="cls-1" d="M4928.51,8251.7l173.49,19.17c-.21-11.88-.43-23.77-.64-35.65,32.23-168.59,64.46-337.18,96.69-505.76-39.54-27.77-79.07-55.54-118.61-83.31-48.5,17.29-96.99,34.59-145.49,51.88.27,174.96.55,349.92.82,524.88-2.09,9.6-4.18,19.2-6.26,28.8Z"/>
              <path class="cls-1" d="M5013.97,8152.21l10.97,174.2c-11.86-.77-23.72-1.55-35.58-2.32-169.92,24.25-339.84,48.49-509.76,72.74-25.88-40.8-51.75-81.6-77.63-122.41,19.56-47.63,39.12-95.25,58.69-142.88,174.75,8.52,349.5,17.04,524.25,25.57,9.69-1.63,19.38-3.27,29.06-4.9Z"/>
            </g>
            <g>
              <path class="cls-1" d="M4629.31,7952.53l173.49,19.17c-.21-11.88-.43-23.77-.64-35.65,32.23-168.59,64.46-337.18,96.69-505.76-39.54-27.77-79.07-55.54-118.61-83.31-48.5,17.29-96.99,34.59-145.49,51.88.27,174.96.55,349.92.82,524.88-2.09,9.6-4.18,19.2-6.26,28.8Z"/>
              <path class="cls-1" d="M4714.77,7853.04l10.97,174.2c-11.86-.77-23.72-1.55-35.58-2.32-169.92,24.25-339.84,48.49-509.76,72.74-25.88-40.8-51.75-81.6-77.63-122.41,19.56-47.63,39.12-95.25,58.69-142.88,174.75,8.52,349.5,17.04,524.25,25.57,9.69-1.63,19.38-3.27,29.06-4.9Z"/>
            </g>
            <g>
              <path class="cls-1" d="M4333.2,7642.11l173.49,19.17c-.21-11.88-.43-23.77-.64-35.65,32.23-168.59,64.46-337.18,96.69-505.76-39.54-27.77-79.07-55.54-118.61-83.31-48.5,17.29-96.99,34.59-145.49,51.88.27,174.96.55,349.92.82,524.88-2.09,9.6-4.18,19.2-6.26,28.8Z"/>
              <path class="cls-1" d="M4418.65,7542.62l10.97,174.2c-11.86-.77-23.72-1.55-35.58-2.32-169.92,24.25-339.84,48.49-509.76,72.74-25.88-40.8-51.75-81.6-77.63-122.41,19.56-47.63,39.12-95.25,58.69-142.88,174.75,8.52,349.5,17.04,524.25,25.57,9.69-1.63,19.38-3.27,29.06-4.9Z"/>
            </g>
            <g>
              <path class="cls-1" d="M4015.18,7360.88l173.49,19.17c-.21-11.88-.43-23.77-.64-35.65,32.23-168.59,64.46-337.18,96.69-505.76-39.54-27.77-79.07-55.54-118.61-83.31-48.5,17.29-96.99,34.59-145.49,51.88.27,174.96.55,349.92.82,524.88-2.09,9.6-4.18,19.2-6.26,28.8Z"/>
              <path class="cls-1" d="M4100.64,7261.4l10.97,174.2c-11.86-.77-23.72-1.55-35.58-2.32-169.92,24.25-339.84,48.49-509.76,72.74-25.88-40.8-51.75-81.6-77.63-122.41,19.56-47.63,39.12-95.25,58.69-142.88,174.75,8.52,349.5,17.04,524.25,25.57,9.69-1.63,19.38-3.27,29.06-4.9Z"/>
            </g>
          </g>
        </g>
      </g>
      <g>
        <g>
          <path class="cls-1" d="M5844.13,3259.04c.61-28.01,1.22-56.02,1.83-84.04h.87l-4.83-111c14.33-537,28.67-1074,43-1611-44.9-73-89.81-146-134.71-219-49.1,70.67-98.19,141.33-147.29,212,20.67,545.67,41.33,1091.33,62,1637l-3.05,86.49h-.88c2.11,36.99,4.22,73.96,6.33,110.94-7.08,537.14-14.16,1074.29-21.24,1611.43,45.88,72.39,91.77,144.77,137.65,217.16,48.14-71.32,96.28-142.65,144.41-213.97-28.04-545.34-56.07-1090.68-84.11-1636.01Z"/>
          <g>
            <path class="cls-1" d="M5821.21,1870.74l-112.3,133.62c-8.05-8.75-16.1-17.49-24.15-26.24-139.69-99.74-279.37-199.48-419.06-299.22,9.44-47.38,18.88-94.77,28.32-142.15,47.03-20.96,94.06-41.92,141.09-62.88,120.56,126.79,241.13,253.57,361.69,380.36,8.14,5.51,16.27,11.01,24.41,16.52Z"/>
            <path class="cls-1" d="M5690.7,1857.74l112.3,133.62c8.05-8.75,16.1-17.49,24.15-26.24,139.69-99.74,279.37-199.48,419.06-299.22-9.44-47.38-18.88-94.77-28.32-142.15-47.03-20.96-94.06-41.92-141.09-62.88-120.56,126.79-241.13,253.57-361.69,380.36-8.14,5.51-16.27,11.01-24.41,16.52Z"/>
            <path class="cls-1" d="M5802.21,2266.74l-112.3,133.62c-8.05-8.75-16.1-17.49-24.15-26.24-139.69-99.74-279.37-199.48-419.06-299.22,9.44-47.38,18.88-94.77,28.32-142.15,47.03-20.96,94.06-41.92,141.09-62.88,120.56,126.79,241.13,253.57,361.69,380.36,8.14,5.51,16.27,11.01,24.41,16.52Z"/>
            <path class="cls-1" d="M5671.7,2253.74l112.3,133.62c8.05-8.75,16.1-17.49,24.15-26.24,139.69-99.74,279.37-199.48,419.06-299.22-9.44-47.38-18.88-94.77-28.32-142.15-47.03-20.96-94.06-41.92-141.09-62.88-120.56,126.79-241.13,253.57-361.69,380.36-8.14,5.51-16.27,11.01-24.41,16.52Z"/>
          </g>
          <g>
            <path class="cls-1" d="M5821.21,2687.74l-112.3,133.62c-8.05-8.75-16.1-17.49-24.15-26.24-139.69-99.74-279.37-199.48-419.06-299.22,9.44-47.38,18.88-94.77,28.32-142.15,47.03-20.96,94.06-41.92,141.09-62.88,120.56,126.79,241.13,253.57,361.69,380.36,8.14,5.51,16.27,11.01,24.41,16.52Z"/>
            <path class="cls-1" d="M5690.7,2674.74l112.3,133.62c8.05-8.75,16.1-17.49,24.15-26.24,139.69-99.74,279.37-199.48,419.06-299.22-9.44-47.38-18.88-94.77-28.32-142.15-47.03-20.96-94.06-41.92-141.09-62.88-120.56,126.79-241.13,253.57-361.69,380.36-8.14,5.51-16.27,11.01-24.41,16.52Z"/>
          </g>
          <g>
            <path class="cls-1" d="M5831.21,3051.74l-112.3,133.62c-8.05-8.75-16.1-17.49-24.15-26.24-139.69-99.74-279.37-199.48-419.06-299.22,9.44-47.38,18.88-94.77,28.32-142.15,47.03-20.96,94.06-41.92,141.09-62.88,120.56,126.79,241.13,253.57,361.69,380.36,8.14,5.51,16.27,11.01,24.41,16.52Z"/>
            <path class="cls-1" d="M5700.7,3038.74l112.3,133.62c8.05-8.75,16.1-17.49,24.15-26.24,139.69-99.74,279.37-199.48,419.06-299.22-9.44-47.38-18.88-94.77-28.32-142.15-47.03-20.96-94.06-41.92-141.09-62.88-120.56,126.79-241.13,253.57-361.69,380.36-8.14,5.51-16.27,11.01-24.41,16.52Z"/>
          </g>
          <g>
            <path class="cls-1" d="M5821.21,3305.48l-112.3-133.62c-8.05,8.75-16.1,17.49-24.15,26.24-139.69,99.74-279.37,199.48-419.06,299.22,9.44,47.38,18.88,94.77,28.32,142.15,47.03,20.96,94.06,41.92,141.09,62.88,120.56-126.79,241.13-253.57,361.69-380.36,8.14-5.51,16.27-11.01,24.41-16.52Z"/>
            <path class="cls-1" d="M5690.7,3318.48l112.3-133.62c8.05,8.75,16.1,17.49,24.15,26.24,139.69,99.74,279.37,199.48,419.06,299.22-9.44,47.38-18.88,94.77-28.32,142.15-47.03,20.96-94.06,41.92-141.09,62.88-120.56-126.79-241.13-253.57-361.69-380.36-8.14-5.51-16.27-11.01-24.41-16.52Z"/>
          </g>
          <g>
            <path class="cls-1" d="M5831.21,3728.48l-112.3-133.62c-8.05,8.75-16.1,17.49-24.15,26.24-139.69,99.74-279.37,199.48-419.06,299.22,9.44,47.38,18.88,94.77,28.32,142.15,47.03,20.96,94.06,41.92,141.09,62.88,120.56-126.79,241.13-253.57,361.69-380.36,8.14-5.51,16.27-11.01,24.41-16.52Z"/>
            <path class="cls-1" d="M5700.7,3741.48l112.3-133.62c8.05,8.75,16.1,17.49,24.15,26.24,139.69,99.74,279.37,199.48,419.06,299.22-9.44,47.38-18.88,94.77-28.32,142.15-47.03,20.96-94.06,41.92-141.09,62.88-120.56-126.79-241.13-253.57-361.69-380.36-8.14-5.51-16.27-11.01-24.41-16.52Z"/>
          </g>
          <g>
            <path class="cls-1" d="M5831.21,4157.48l-112.3-133.62c-8.05,8.75-16.1,17.49-24.15,26.24-139.69,99.74-279.37,199.48-419.06,299.22,9.44,47.38,18.88,94.77,28.32,142.15,47.03,20.96,94.06,41.92,141.09,62.88,120.56-126.79,241.13-253.57,361.69-380.36,8.14-5.51,16.27-11.01,24.41-16.52Z"/>
            <path class="cls-1" d="M5700.7,4170.48l112.3-133.62c8.05,8.75,16.1,17.49,24.15,26.24,139.69,99.74,279.37,199.48,419.06,299.22-9.44,47.38-18.88,94.77-28.32,142.15-47.03,20.96-94.06,41.92-141.09,62.88-120.56-126.79-241.13-253.57-361.69-380.36-8.14-5.51-16.27-11.01-24.41-16.52Z"/>
          </g>
          <g>
            <path class="cls-1" d="M5867.21,4580.48l-112.3-133.62c-8.05,8.75-16.1,17.49-24.15,26.24-139.69,99.74-279.37,199.48-419.06,299.22,9.44,47.38,18.88,94.77,28.32,142.15,47.03,20.96,94.06,41.92,141.09,62.88,120.56-126.79,241.13-253.57,361.69-380.36,8.14-5.51,16.27-11.01,24.41-16.52Z"/>
            <path class="cls-1" d="M5736.7,4593.48l112.3-133.62c8.05,8.75,16.1,17.49,24.15,26.24,139.69,99.74,279.37,199.48,419.06,299.22-9.44,47.38-18.88,94.77-28.32,142.15-47.03,20.96-94.06,41.92-141.09,62.88-120.56-126.79-241.13-253.57-361.69-380.36-8.14-5.51-16.27-11.01-24.41-16.52Z"/>
          </g>
          <g>
            <path class="cls-1" d="M5677.4,3260.81c28.01.73,56.02,1.47,84.03,2.2v.87c37-1.44,74.01-2.89,111.02-4.33,536.93,16.74,1073.86,33.48,1610.79,50.22,73.2-44.58,146.4-89.15,219.6-133.73-70.45-49.41-140.89-98.83-211.34-148.24-545.75,18.22-1091.51,36.44-1637.26,54.66-28.82-1.15-57.65-2.29-86.47-3.44v-.88c-36.99,1.94-73.98,3.89-110.96,5.83-537.11-9.49-1074.22-18.97-1611.32-28.46-72.59,45.56-145.18,91.12-217.78,136.68,71.11,48.46,142.21,96.91,213.32,145.37,545.46-25.59,1090.92-51.18,1636.37-76.77Z"/>
            <g>
              <path class="cls-1" d="M7065.78,3244.11l-133.11-112.9c8.78-8.01,17.57-16.02,26.35-24.03,100.37-139.24,200.73-278.48,301.1-417.72,47.34,9.65,94.68,19.3,142.03,28.95,20.75,47.12,41.5,94.24,62.25,141.37-127.33,119.99-254.65,239.99-381.98,359.98-5.54,8.11-11.08,16.22-16.63,24.34Z"/>
              <path class="cls-1" d="M7079.36,3113.67l-134.12,111.7c8.71,8.09,17.42,16.18,26.13,24.26,99.11,140.13,198.23,280.27,297.34,420.4,47.43-9.23,94.85-18.45,142.28-27.68,21.17-46.93,42.34-93.87,63.51-140.8-126.24-121.13-252.49-242.26-378.73-363.39-5.47-8.16-10.94-16.32-16.41-24.48Z"/>
              <path class="cls-1" d="M6669.87,3223.34l-133.11-112.9c8.78-8.01,17.57-16.02,26.35-24.03,100.37-139.24,200.73-278.48,301.1-417.72,47.34,9.65,94.68,19.3,142.03,28.95,20.75,47.12,41.5,94.24,62.25,141.37-127.33,119.99-254.65,239.99-381.98,359.98-5.54,8.11-11.08,16.22-16.63,24.34Z"/>
              <path class="cls-1" d="M6683.45,3092.89l-134.12,111.7c8.71,8.09,17.42,16.18,26.13,24.26,99.11,140.13,198.23,280.27,297.34,420.4,47.43-9.23,94.85-18.45,142.28-27.68,21.17-46.93,42.34-93.87,63.51-140.8-126.24-121.13-252.49-242.26-378.73-363.39-5.47-8.16-10.94-16.32-16.41-24.48Z"/>
            </g>
            <g>
              <path class="cls-1" d="M6248.79,3240.45l-133.11-112.9c8.78-8.01,17.57-16.02,26.35-24.03,100.37-139.24,200.73-278.48,301.1-417.72,47.34,9.65,94.68,19.3,142.03,28.95,20.75,47.12,41.5,94.24,62.25,141.37-127.33,119.99-254.65,239.99-381.98,359.98-5.54,8.11-11.08,16.22-16.63,24.34Z"/>
              <path class="cls-1" d="M6262.37,3110.01l-134.12,111.7c8.71,8.09,17.42,16.18,26.13,24.26,99.11,140.13,198.23,280.27,297.34,420.4,47.43-9.23,94.85-18.45,142.28-27.68,21.17-46.93,42.34-93.87,63.51-140.8-126.24-121.13-252.49-242.26-378.73-363.39-5.47-8.16-10.94-16.32-16.41-24.48Z"/>
            </g>
            <g>
              <path class="cls-1" d="M5884.75,3248.82l-133.11-112.9c8.78-8.01,17.57-16.02,26.35-24.03,100.37-139.24,200.73-278.48,301.1-417.72,47.34,9.65,94.68,19.3,142.03,28.95,20.75,47.12,41.5,94.24,62.25,141.37-127.33,119.99-254.65,239.99-381.98,359.98-5.54,8.11-11.08,16.22-16.63,24.34Z"/>
              <path class="cls-1" d="M5898.33,3118.37l-134.12,111.7c8.71,8.09,17.42,16.18,26.13,24.26,99.11,140.13,198.23,280.27,297.34,420.4,47.43-9.23,94.85-18.45,142.28-27.68,21.17-46.93,42.34-93.87,63.51-140.8-126.24-121.13-252.49-242.26-378.73-363.39-5.47-8.16-10.94-16.32-16.41-24.48Z"/>
            </g>
            <g>
              <path class="cls-1" d="M5631.05,3237.68l134.12-111.7c-8.71-8.09-17.42-16.18-26.13-24.26-99.11-140.13-198.23-280.27-297.34-420.4-47.43,9.23-94.85,18.45-142.28,27.68-21.17,46.93-42.34,93.87-63.51,140.8,126.24,121.13,252.49,242.26,378.73,363.39,5.47,8.16,10.94,16.32,16.41,24.48Z"/>
              <path class="cls-1" d="M5618.64,3107.12l133.11,112.9c-8.78,8.01-17.57,16.02-26.35,24.03-100.37,139.24-200.73,278.48-301.1,417.72-47.34-9.65-94.68-19.3-142.03-28.95-20.75-47.12-41.5-94.24-62.25-141.37,127.33-119.99,254.65-239.99,381.98-359.98,5.54-8.11,11.08-16.22,16.63-24.34Z"/>
            </g>
            <g>
              <path class="cls-1" d="M5208.01,3245.79l134.12-111.7c-8.71-8.09-17.42-16.18-26.13-24.26-99.11-140.13-198.23-280.27-297.34-420.4-47.43,9.23-94.85,18.45-142.28,27.68-21.17,46.93-42.34,93.87-63.51,140.8,126.24,121.13,252.49,242.26,378.73,363.39,5.47,8.16,10.94,16.32,16.41,24.48Z"/>
              <path class="cls-1" d="M5195.6,3115.22l133.11,112.9c-8.78,8.01-17.57,16.02-26.35,24.03-100.37,139.24-200.73,278.48-301.1,417.72-47.34-9.65-94.68-19.3-142.03-28.95-20.75-47.12-41.5-94.24-62.25-141.37,127.33-119.99,254.65-239.99,381.98-359.98,5.54-8.11,11.08-16.22,16.63-24.34Z"/>
            </g>
            <g>
              <path class="cls-1" d="M4779.01,3243.87l134.12-111.7c-8.71-8.09-17.42-16.18-26.13-24.26-99.11-140.13-198.23-280.27-297.34-420.4-47.43,9.23-94.85,18.45-142.28,27.68-21.17,46.93-42.34,93.87-63.51,140.8,126.24,121.13,252.49,242.26,378.73,363.39,5.47,8.16,10.94,16.32,16.41,24.48Z"/>
              <path class="cls-1" d="M4766.6,3113.3l133.11,112.9c-8.78,8.01-17.57,16.02-26.35,24.03-100.37,139.24-200.73,278.48-301.1,417.72-47.34-9.65-94.68-19.3-142.03-28.95-20.75-47.12-41.5-94.24-62.25-141.37,127.33-119.99,254.65-239.99,381.98-359.98,5.54-8.11,11.08-16.22,16.63-24.34Z"/>
            </g>
            <g>
              <path class="cls-1" d="M4355.86,3277.97l134.12-111.7c-8.71-8.09-17.42-16.18-26.13-24.26-99.11-140.13-198.23-280.27-297.34-420.4-47.43,9.23-94.85,18.45-142.28,27.68-21.17,46.93-42.34,93.87-63.51,140.8,126.24,121.13,252.49,242.26,378.73,363.39,5.47,8.16,10.94,16.32,16.41,24.48Z"/>
              <path class="cls-1" d="M4343.44,3147.41l133.11,112.9c-8.78,8.01-17.57,16.02-26.35,24.03-100.37,139.24-200.73,278.48-301.1,417.72-47.34-9.65-94.68-19.3-142.03-28.95-20.75-47.12-41.5-94.24-62.25-141.37,127.33-119.99,254.65-239.99,381.98-359.98,5.54-8.11,11.08-16.22,16.63-24.34Z"/>
            </g>
          </g>
        </g>
        <g>
          <path class="cls-1" d="M5782.89,3343.02c20.6-18.99,41.21-37.97,61.81-56.96l.61.63c25.54-26.82,51.08-53.64,76.63-80.45,396.84-362.07,793.68-724.14,1190.52-1086.2,21.46-82.98,42.91-165.95,64.37-248.93-84.96,13.63-169.92,27.26-254.88,40.9-378.81,393.3-757.62,786.59-1136.43,1179.89-21.48,19.26-42.95,38.52-64.43,57.78l-.62-.62c-25.18,27.16-50.35,54.32-75.53,81.48-391.91,367.4-783.82,734.79-1175.74,1102.19-20.33,83.26-40.67,166.52-61,249.77,84.77-14.78,169.54-29.56,254.31-44.34,373.46-398.38,746.93-796.75,1120.39-1195.13Z"/>
          <g>
            <path class="cls-1" d="M6767.24,2363.77l-174.15,11.75c.72-11.87,1.44-23.73,2.16-35.6-25.01-169.81-50.02-339.62-75.03-509.43,40.69-26.06,81.37-52.12,122.06-78.18,47.71,19.35,95.43,38.7,143.14,58.04-7.74,174.79-15.48,349.57-23.22,524.36,1.68,9.68,3.35,19.36,5.03,29.04Z"/>
            <path class="cls-1" d="M6686.11,2260.72l-18.39,173.57c11.88-.27,23.77-.53,35.65-.8,168.73,31.47,337.46,62.95,506.19,94.43,27.59-39.66,55.19-79.32,82.78-118.98-17.51-48.42-35.02-96.84-52.54-145.25-174.96,1.06-349.91,2.12-524.87,3.18-9.61-2.04-19.22-4.09-28.83-6.13Z"/>
            <path class="cls-1" d="M6468.75,2624.69l-174.15,11.75c.72-11.87,1.44-23.73,2.16-35.6-25.01-169.81-50.02-339.62-75.03-509.43,40.69-26.06,81.37-52.12,122.06-78.18,47.71,19.35,95.43,38.7,143.14,58.04-7.74,174.79-15.48,349.57-23.22,524.36,1.68,9.68,3.35,19.36,5.03,29.04Z"/>
            <path class="cls-1" d="M6387.62,2521.65l-18.39,173.57c11.88-.27,23.77-.53,35.65-.8,168.73,31.47,337.46,62.95,506.19,94.43,27.59-39.66,55.19-79.32,82.78-118.98-17.51-48.42-35.02-96.84-52.54-145.25-174.96,1.06-349.91,2.12-524.87,3.18-9.61-2.04-19.22-4.09-28.83-6.13Z"/>
          </g>
          <g>
            <path class="cls-1" d="M6178.61,2930.33l-174.15,11.75c.72-11.87,1.44-23.73,2.16-35.6-25.01-169.81-50.02-339.62-75.03-509.43,40.69-26.06,81.37-52.12,122.06-78.18,47.71,19.35,95.43,38.7,143.14,58.04-7.74,174.79-15.48,349.57-23.22,524.36,1.68,9.68,3.35,19.36,5.03,29.04Z"/>
            <path class="cls-1" d="M6097.47,2827.29l-18.39,173.57c11.88-.27,23.77-.53,35.65-.8,168.73,31.47,337.46,62.95,506.19,94.43,27.59-39.66,55.19-79.32,82.78-118.98-17.51-48.42-35.02-96.84-52.54-145.25-174.96,1.06-349.91,2.12-524.87,3.18-9.61-2.04-19.22-4.09-28.83-6.13Z"/>
          </g>
          <g>
            <path class="cls-1" d="M5923.29,3189.96l-174.15,11.75c.72-11.87,1.44-23.73,2.16-35.6-25.01-169.81-50.02-339.62-75.03-509.43,40.69-26.06,81.37-52.12,122.06-78.18,47.71,19.35,95.43,38.7,143.14,58.04-7.74,174.79-15.48,349.57-23.22,524.36,1.68,9.68,3.35,19.36,5.03,29.04Z"/>
            <path class="cls-1" d="M5842.15,3086.92l-18.39,173.57c11.88-.27,23.77-.53,35.65-.8,168.73,31.47,337.46,62.95,506.19,94.43,27.59-39.66,55.19-79.32,82.78-118.98-17.51-48.42-35.02-96.84-52.54-145.25-174.96,1.06-349.91,2.12-524.87,3.18-9.61-2.04-19.22-4.09-28.83-6.13Z"/>
          </g>
          <g>
            <path class="cls-1" d="M5733.54,3358.72l18.39-173.57c-11.88.27-23.77.53-35.65.8-168.73-31.47-337.46-62.95-506.19-94.43-27.59,39.66-55.19,79.32-82.78,118.98,17.51,48.42,35.02,96.84,52.54,145.25,174.96-1.06,349.91-2.12,524.87-3.18,9.61,2.04,19.22,4.09,28.83,6.13Z"/>
            <path class="cls-1" d="M5633.67,3273.71l174.15-11.75c-.72,11.87-1.44,23.73-2.16,35.6,25.01,169.81,50.02,339.62,75.03,509.43-40.69,26.06-81.37,52.12-122.06,78.18-47.71-19.35-95.43-38.7-143.14-58.04,7.74-174.79,15.48-349.57,23.22-524.36-1.68-9.68-3.35-19.36-5.03-29.04Z"/>
          </g>
          <g>
            <path class="cls-1" d="M5435.71,3659.27l18.39-173.57c-11.88.27-23.77.53-35.65.8-168.73-31.47-337.46-62.95-506.19-94.43-27.59,39.66-55.19,79.32-82.78,118.98,17.51,48.42,35.02,96.84,52.54,145.25,174.96-1.06,349.91-2.12,524.87-3.18,9.61,2.04,19.22,4.09,28.83,6.13Z"/>
            <path class="cls-1" d="M5335.84,3574.25l174.15-11.75c-.72,11.87-1.44,23.73-2.16,35.6,25.01,169.81,50.02,339.62,75.03,509.43-40.69,26.06-81.37,52.12-122.06,78.18-47.71-19.35-95.43-38.7-143.14-58.04,7.74-174.79,15.48-349.57,23.22-524.36-1.68-9.68-3.35-19.36-5.03-29.04Z"/>
          </g>
          <g>
            <path class="cls-1" d="M5126.62,3956.77l18.39-173.57c-11.88.27-23.77.53-35.65.8-168.73-31.47-337.46-62.95-506.19-94.43-27.59,39.66-55.19,79.32-82.78,118.98,17.51,48.42,35.02,96.84,52.54,145.25,174.96-1.06,349.91-2.12,524.87-3.18,9.61,2.04,19.22,4.09,28.83,6.13Z"/>
            <path class="cls-1" d="M5026.75,3871.75l174.15-11.75c-.72,11.87-1.44,23.73-2.16,35.6,25.01,169.81,50.02,339.62,75.03,509.43-40.69,26.06-81.37,52.12-122.06,78.18-47.71-19.35-95.43-38.7-143.14-58.04,7.74-174.79,15.48-349.57,23.22-524.36-1.68-9.68-3.35-19.36-5.03-29.04Z"/>
          </g>
          <g>
            <path class="cls-1" d="M4846.82,4276.04l18.39-173.57c-11.88.27-23.77.53-35.65.8-168.73-31.47-337.46-62.95-506.19-94.43-27.59,39.66-55.19,79.32-82.78,118.98,17.51,48.42,35.02,96.84,52.54,145.25,174.96-1.06,349.91-2.12,524.87-3.18,9.61,2.04,19.22,4.09,28.83,6.13Z"/>
            <path class="cls-1" d="M4746.95,4191.03l174.15-11.75c-.72,11.87-1.44,23.73-2.16,35.6,25.01,169.81,50.02,339.62,75.03,509.43-40.69,26.06-81.37,52.12-122.06,78.18-47.71-19.35-95.43-38.7-143.14-58.04,7.74-174.79,15.48-349.57,23.22-524.36-1.68-9.68-3.35-19.36-5.03-29.04Z"/>
          </g>
          <g>
            <path class="cls-1" d="M5665.99,3224.13c18.89,20.69,37.79,41.38,56.68,62.07l-.63.6c26.7,25.66,53.41,51.32,80.11,76.99,360.29,398.46,720.57,796.91,1080.86,1195.37,82.88,21.83,165.76,43.66,248.64,65.48-13.25-85.02-26.5-170.04-39.75-255.07-391.59-380.57-783.19-761.14-1174.78-1141.71-19.16-21.56-38.33-43.12-57.49-64.69l.63-.61c-27.05-25.3-54.1-50.6-81.14-75.9-365.64-393.55-731.27-787.11-1096.91-1180.66-83.17-20.71-166.33-41.41-249.5-62.12,14.4,84.84,28.8,169.67,43.2,254.51,396.7,375.25,793.4,750.49,1190.1,1125.74Z"/>
            <g>
              <path class="cls-1" d="M6640.83,4212.86l-10.97-174.2c11.86.77,23.72,1.55,35.58,2.32,169.92-24.25,339.84-48.49,509.76-72.74,25.88,40.8,51.75,81.6,77.63,122.41-19.56,47.63-39.12,95.25-58.69,142.88-174.75-8.52-349.5-17.04-524.25-25.57-9.69,1.63-19.38,3.27-29.06,4.9Z"/>
              <path class="cls-1" d="M6744.23,4132.18l-173.49-19.17c.21,11.88.43,23.77.64,35.65-32.23,168.59-64.46,337.18-96.69,505.76,39.54,27.77,79.07,55.54,118.61,83.31,48.5-17.29,96.99-34.59,145.49-51.88-.27-174.96-.55-349.92-.82-524.88,2.09-9.6,4.18-19.2,6.26-28.8Z"/>
              <path class="cls-1" d="M6381.24,3913.2l-10.97-174.2c11.86.77,23.72,1.55,35.58,2.32,169.92-24.25,339.84-48.49,509.76-72.74,25.88,40.8,51.75,81.6,77.63,122.41-19.56,47.63-39.12,95.25-58.69,142.88-174.75-8.52-349.5-17.04-524.25-25.57-9.69,1.63-19.38,3.27-29.06,4.9Z"/>
              <path class="cls-1" d="M6484.65,3832.53l-173.49-19.17c.21,11.88.43,23.77.64,35.65-32.23,168.59-64.46,337.18-96.69,505.76,39.54,27.77,79.07,55.54,118.61,83.31,48.5-17.29,96.99-34.59,145.49-51.88-.27-174.96-.55-349.92-.82-524.88,2.09-9.6,4.18-19.2,6.26-28.8Z"/>
            </g>
            <g>
              <path class="cls-1" d="M6076.9,3621.69l-10.97-174.2c11.86.77,23.72,1.55,35.58,2.32,169.92-24.25,339.84-48.49,509.76-72.74,25.88,40.8,51.75,81.6,77.63,122.41-19.56,47.63-39.12,95.25-58.69,142.88-174.75-8.52-349.5-17.04-524.25-25.57-9.69,1.63-19.38,3.27-29.06,4.9Z"/>
              <path class="cls-1" d="M6180.31,3541.01l-173.49-19.17c.21,11.88.43,23.77.64,35.65-32.23,168.59-64.46,337.18-96.69,505.76,39.54,27.77,79.07,55.54,118.61,83.31,48.5-17.29,96.99-34.59,145.49-51.88-.27-174.96-.55-349.92-.82-524.88,2.09-9.6,4.18-19.2,6.26-28.8Z"/>
            </g>
            <g>
              <path class="cls-1" d="M5818.42,3365.21l-10.97-174.2c11.86.77,23.72,1.55,35.58,2.32,169.92-24.25,339.84-48.49,509.76-72.74,25.88,40.8,51.75,81.6,77.63,122.41-19.56,47.63-39.12,95.25-58.69,142.88-174.75-8.52-349.5-17.04-524.25-25.57-9.69,1.63-19.38,3.27-29.06,4.9Z"/>
              <path class="cls-1" d="M5921.83,3284.53l-173.49-19.17c.21,11.88.43,23.77.64,35.65-32.23,168.59-64.46,337.18-96.69,505.76,39.54,27.77,79.07,55.54,118.61,83.31,48.5-17.29,96.99-34.59,145.49-51.88-.27-174.96-.55-349.92-.82-524.88,2.09-9.6,4.18-19.2,6.26-28.8Z"/>
            </g>
            <g>
              <path class="cls-1" d="M5650.51,3174.7l173.49,19.17c-.21-11.88-.43-23.77-.64-35.65,32.23-168.59,64.46-337.18,96.69-505.76-39.54-27.77-79.07-55.54-118.61-83.31-48.5,17.29-96.99,34.59-145.49,51.88.27,174.96.55,349.92.82,524.88-2.09,9.6-4.18,19.2-6.26,28.8Z"/>
              <path class="cls-1" d="M5735.97,3075.21l10.97,174.2c-11.86-.77-23.72-1.55-35.58-2.32-169.92,24.25-339.84,48.49-509.76,72.74-25.88-40.8-51.75-81.6-77.63-122.41,19.56-47.63,39.12-95.25,58.69-142.88,174.75,8.52,349.5,17.04,524.25,25.57,9.69-1.63,19.38-3.27,29.06-4.9Z"/>
            </g>
            <g>
              <path class="cls-1" d="M5351.31,2875.53l173.49,19.17c-.21-11.88-.43-23.77-.64-35.65,32.23-168.59,64.46-337.18,96.69-505.76-39.54-27.77-79.07-55.54-118.61-83.31-48.5,17.29-96.99,34.59-145.49,51.88.27,174.96.55,349.92.82,524.88-2.09,9.6-4.18,19.2-6.26,28.8Z"/>
              <path class="cls-1" d="M5436.77,2776.04l10.97,174.2c-11.86-.77-23.72-1.55-35.58-2.32-169.92,24.25-339.84,48.49-509.76,72.74-25.88-40.8-51.75-81.6-77.63-122.41,19.56-47.63,39.12-95.25,58.69-142.88,174.75,8.52,349.5,17.04,524.25,25.57,9.69-1.63,19.38-3.27,29.06-4.9Z"/>
            </g>
            <g>
              <path class="cls-1" d="M5055.2,2565.11l173.49,19.17c-.21-11.88-.43-23.77-.64-35.65,32.23-168.59,64.46-337.18,96.69-505.76-39.54-27.77-79.07-55.54-118.61-83.31-48.5,17.29-96.99,34.59-145.49,51.88.27,174.96.55,349.92.82,524.88-2.09,9.6-4.18,19.2-6.26,28.8Z"/>
              <path class="cls-1" d="M5140.65,2465.62l10.97,174.2c-11.86-.77-23.72-1.55-35.58-2.32-169.92,24.25-339.84,48.49-509.76,72.74-25.88-40.8-51.75-81.6-77.63-122.41,19.56-47.63,39.12-95.25,58.69-142.88,174.75,8.52,349.5,17.04,524.25,25.57,9.69-1.63,19.38-3.27,29.06-4.9Z"/>
            </g>
            <g>
              <path class="cls-1" d="M4737.18,2283.88l173.49,19.17c-.21-11.88-.43-23.77-.64-35.65,32.23-168.59,64.46-337.18,96.69-505.76-39.54-27.77-79.07-55.54-118.61-83.31-48.5,17.29-96.99,34.59-145.49,51.88.27,174.96.55,349.92.82,524.88-2.09,9.6-4.18,19.2-6.26,28.8Z"/>
              <path class="cls-1" d="M4822.64,2184.4l10.97,174.2c-11.86-.77-23.72-1.55-35.58-2.32-169.92,24.25-339.84,48.49-509.76,72.74-25.88-40.8-51.75-81.6-77.63-122.41,19.56-47.63,39.12-95.25,58.69-142.88,174.75,8.52,349.5,17.04,524.25,25.57,9.69-1.63,19.38-3.27,29.06-4.9Z"/>
            </g>
          </g>
        </g>
      </g>
    </g>
  </g>
</svg>