<?xml version="1.0" encoding="UTF-8"?>
<svg xmlns="http://www.w3.org/2000/svg" version="1.1" viewBox="0 0 8200.9 9149.2">
  <defs>
    <style>
      .cls-1 {
        fill: #fff;
      }

      .cls-2 {
        fill: #0059ff;
      }
    </style>
  </defs>
  <!-- Generator: Adobe Illustrator 28.7.1, SVG Export Plug-In . SVG Version: 1.2.0 Build 142)  -->
  <g>
    <g id="Layer_1">
      <g id="Layer_1-2" data-name="Layer_1">
        <path class="cls-2" d="M4103.8,7894.2c-91,6.7-803.6,47.2-1242.3-507-44-55.7-366.1-475.8-272.5-1007.8,57.5-326.3,245.3-547,354.5-675.2,201.2-236.4,344.2-273.5,503.7-415.7,623.3-555.7,473.9-1582,624.8-1578.3,62.8,1.5,77.6,151.3,243.1,646.2,238.5,713.4,285,806.4,360.4,889.3,175.1,192.5,285.7,166.9,474,409.5,44.5,57.3,162.2,218.5,233,448,28.9,93.7,159.9,555.4-70,1023-339.5,690.4-1156.4,764.2-1208.7,768h0Z"/>
        <path class="cls-2" d="M6491.8,4608.2c-91,6.7-803.6,47.2-1242.3-507-44-55.6-366.1-475.8-272.5-1007.8,57.5-326.3,245.3-547,354.5-675.2,201.2-236.4,344.2-273.4,503.7-415.7,623.3-555.7,473.9-1582,624.8-1578.3,62.8,1.5,77.6,151.3,243.1,646.2,238.5,713.4,285,806.4,360.4,889.3,175.1,192.5,285.7,166.9,474,409.4,44.5,57.3,162.2,218.4,233,448,28.9,93.7,159.9,555.4-70,1023-339.5,690.4-1156.4,764.1-1208.7,768h0Z"/>
        <path class="cls-2" d="M1826.8,5409.2c-91,6.7-803.6,47.2-1242.3-507-44.1-55.6-366.1-475.8-272.4-1007.8,57.4-326.3,245.3-547,354.4-675.2,201.2-236.4,344.2-273.5,503.7-415.7,623.3-555.7,473.9-1582,624.8-1578.3,62.8,1.5,77.6,151.3,243.1,646.2,238.5,713.4,285,806.4,360.4,889.3,175.1,192.5,285.7,166.9,474,409.5,44.5,57.3,162.2,218.5,233,448,28.9,93.7,159.9,555.4-70,1023-339.5,690.4-1156.4,764.1-1208.7,768h0Z"/>
        <g>
          <g>
            <path class="cls-1" d="M6262.8,4441.2c.6-28,1.2-56,1.8-84h.9l-4.8-111c14.3-537,28.7-1074,43-1611-44.9-73-89.8-146-134.7-219-49.1,70.7-98.2,141.3-147.3,212,20.7,545.7,41.3,1091.3,62,1637l-3,86.5h-.9c2.1,37,4.2,74,6.3,110.9-7.1,537.1-14.2,1074.3-21.2,1611.4,45.9,72.4,91.8,144.8,137.7,217.2,48.1-71.3,96.3-142.6,144.4-214-28-545.3-56.1-1090.7-84.1-1636h0Z"/>
            <g>
              <path class="cls-1" d="M6239.9,3052.9l-112.3,133.6c-8-8.8-16.1-17.5-24.2-26.2-139.7-99.7-279.4-199.5-419.1-299.2,9.4-47.4,18.9-94.8,28.3-142.1,47-21,94.1-41.9,141.1-62.9,120.6,126.8,241.1,253.6,361.7,380.4,8.1,5.5,16.3,11,24.4,16.5h0Z"/>
              <path class="cls-1" d="M6109.4,3039.9l112.3,133.6c8-8.8,16.1-17.5,24.2-26.2,139.7-99.7,279.4-199.5,419.1-299.2-9.4-47.4-18.9-94.8-28.3-142.1-47-21-94.1-41.9-141.1-62.9-120.6,126.8-241.1,253.6-361.7,380.4-8.1,5.5-16.3,11-24.4,16.5h0Z"/>
              <path class="cls-1" d="M6220.9,3448.9l-112.3,133.6c-8-8.8-16.1-17.5-24.2-26.2-139.7-99.7-279.4-199.5-419.1-299.2,9.4-47.4,18.9-94.8,28.3-142.1,47-21,94.1-41.9,141.1-62.9,120.6,126.8,241.1,253.6,361.7,380.4,8.1,5.5,16.3,11,24.4,16.5h0Z"/>
              <path class="cls-1" d="M6090.4,3435.9l112.3,133.6c8-8.8,16.1-17.5,24.2-26.2,139.7-99.7,279.4-199.5,419.1-299.2-9.4-47.4-18.9-94.8-28.3-142.1-47-21-94.1-41.9-141.1-62.9-120.6,126.8-241.1,253.6-361.7,380.4-8.1,5.5-16.3,11-24.4,16.5h0Z"/>
            </g>
            <g>
              <path class="cls-1" d="M6239.9,3869.9l-112.3,133.6c-8-8.8-16.1-17.5-24.2-26.2-139.7-99.7-279.4-199.5-419.1-299.2,9.4-47.4,18.9-94.8,28.3-142.1,47-21,94.1-41.9,141.1-62.9,120.6,126.8,241.1,253.6,361.7,380.4,8.1,5.5,16.3,11,24.4,16.5h0Z"/>
              <path class="cls-1" d="M6109.4,3856.9l112.3,133.6c8-8.8,16.1-17.5,24.2-26.2,139.7-99.7,279.4-199.5,419.1-299.2-9.4-47.4-18.9-94.8-28.3-142.1-47-21-94.1-41.9-141.1-62.9-120.6,126.8-241.1,253.6-361.7,380.4-8.1,5.5-16.3,11-24.4,16.5h0Z"/>
            </g>
            <g>
              <path class="cls-1" d="M6249.9,4233.9l-112.3,133.6c-8-8.8-16.1-17.5-24.2-26.2-139.7-99.7-279.4-199.5-419.1-299.2,9.4-47.4,18.9-94.8,28.3-142.1,47-21,94.1-41.9,141.1-62.9,120.6,126.8,241.1,253.6,361.7,380.4,8.1,5.5,16.3,11,24.4,16.5h0Z"/>
              <path class="cls-1" d="M6119.4,4220.9l112.3,133.6c8-8.8,16.1-17.5,24.2-26.2,139.7-99.7,279.4-199.5,419.1-299.2-9.4-47.4-18.9-94.8-28.3-142.1-47-21-94.1-41.9-141.1-62.9-120.6,126.8-241.1,253.6-361.7,380.4-8.1,5.5-16.3,11-24.4,16.5h0Z"/>
            </g>
            <g>
              <path class="cls-1" d="M6239.9,4487.6l-112.3-133.6c-8,8.8-16.1,17.5-24.2,26.2-139.7,99.7-279.4,199.5-419.1,299.2,9.4,47.4,18.9,94.8,28.3,142.1,47,21,94.1,41.9,141.1,62.9,120.6-126.8,241.1-253.6,361.7-380.4,8.1-5.5,16.3-11,24.4-16.5h0Z"/>
              <path class="cls-1" d="M6109.4,4500.6l112.3-133.6c8,8.8,16.1,17.5,24.2,26.2,139.7,99.7,279.4,199.5,419.1,299.2-9.4,47.4-18.9,94.8-28.3,142.1-47,21-94.1,41.9-141.1,62.9-120.6-126.8-241.1-253.6-361.7-380.4-8.1-5.5-16.3-11-24.4-16.5h0Z"/>
            </g>
            <g>
              <path class="cls-1" d="M6249.9,4910.6l-112.3-133.6c-8,8.8-16.1,17.5-24.2,26.2-139.7,99.7-279.4,199.5-419.1,299.2,9.4,47.4,18.9,94.8,28.3,142.1,47,21,94.1,41.9,141.1,62.9,120.6-126.8,241.1-253.6,361.7-380.4,8.1-5.5,16.3-11,24.4-16.5h0Z"/>
              <path class="cls-1" d="M6119.4,4923.6l112.3-133.6c8,8.8,16.1,17.5,24.2,26.2,139.7,99.7,279.4,199.5,419.1,299.2-9.4,47.4-18.9,94.8-28.3,142.1-47,21-94.1,41.9-141.1,62.9-120.6-126.8-241.1-253.6-361.7-380.4-8.1-5.5-16.3-11-24.4-16.5h0Z"/>
            </g>
            <g>
              <path class="cls-1" d="M6249.9,5339.6l-112.3-133.6c-8,8.8-16.1,17.5-24.2,26.2-139.7,99.7-279.4,199.5-419.1,299.2,9.4,47.4,18.9,94.8,28.3,142.1,47,21,94.1,41.9,141.1,62.9,120.6-126.8,241.1-253.6,361.7-380.4,8.1-5.5,16.3-11,24.4-16.5h0Z"/>
              <path class="cls-1" d="M6119.4,5352.6l112.3-133.6c8,8.8,16.1,17.5,24.2,26.2,139.7,99.7,279.4,199.5,419.1,299.2-9.4,47.4-18.9,94.8-28.3,142.1-47,21-94.1,41.9-141.1,62.9-120.6-126.8-241.1-253.6-361.7-380.4-8.1-5.5-16.3-11-24.4-16.5h0Z"/>
            </g>
            <g>
              <path class="cls-1" d="M6285.9,5762.6l-112.3-133.6c-8,8.8-16.1,17.5-24.2,26.2-139.7,99.7-279.4,199.5-419.1,299.2,9.4,47.4,18.9,94.8,28.3,142.1,47,21,94.1,41.9,141.1,62.9,120.6-126.8,241.1-253.6,361.7-380.4,8.1-5.5,16.3-11,24.4-16.5h0Z"/>
              <path class="cls-1" d="M6155.4,5775.6l112.3-133.6c8,8.8,16.1,17.5,24.2,26.2,139.7,99.7,279.4,199.5,419.1,299.2-9.4,47.4-18.9,94.8-28.3,142.1-47,21-94.1,41.9-141.1,62.9-120.6-126.8-241.1-253.6-361.7-380.4-8.1-5.5-16.3-11-24.4-16.5h0Z"/>
            </g>
            <g>
              <path class="cls-1" d="M6096.1,4442.9c28,.7,56,1.5,84,2.2v.9c37-1.4,74-2.9,111-4.3,536.9,16.7,1073.9,33.5,1610.8,50.2,73.2-44.6,146.4-89.1,219.6-133.7-70.5-49.4-140.9-98.8-211.3-148.2-545.8,18.2-1091.5,36.4-1637.3,54.7-28.8-1.1-57.7-2.3-86.5-3.4v-.9c-37,1.9-74,3.9-111,5.8-537.1-9.5-1074.2-19-1611.3-28.5-72.6,45.6-145.2,91.1-217.8,136.7,71.1,48.5,142.2,96.9,213.3,145.4,545.5-25.6,1090.9-51.2,1636.4-76.8h0Z"/>
              <g>
                <path class="cls-1" d="M7484.5,4426.2l-133.1-112.9c8.8-8,17.6-16,26.3-24,100.4-139.2,200.7-278.5,301.1-417.7,47.3,9.6,94.7,19.3,142,29,20.8,47.1,41.5,94.2,62.2,141.4-127.3,120-254.7,240-382,360-5.5,8.1-11.1,16.2-16.6,24.3h0Z"/>
                <path class="cls-1" d="M7498,4295.8l-134.1,111.7c8.7,8.1,17.4,16.2,26.1,24.3,99.1,140.1,198.2,280.3,297.3,420.4,47.4-9.2,94.8-18.5,142.3-27.7,21.2-46.9,42.3-93.9,63.5-140.8-126.2-121.1-252.5-242.3-378.7-363.4-5.5-8.2-10.9-16.3-16.4-24.5h0Z"/>
                <path class="cls-1" d="M7088.5,4405.5l-133.1-112.9c8.8-8,17.6-16,26.3-24,100.4-139.2,200.7-278.5,301.1-417.7,47.3,9.6,94.7,19.3,142,29,20.8,47.1,41.5,94.2,62.2,141.4-127.3,120-254.7,240-382,360-5.5,8.1-11.1,16.2-16.6,24.3h0Z"/>
                <path class="cls-1" d="M7102.1,4275l-134.1,111.7c8.7,8.1,17.4,16.2,26.1,24.3,99.1,140.1,198.2,280.3,297.3,420.4,47.4-9.2,94.8-18.5,142.3-27.7,21.2-46.9,42.3-93.9,63.5-140.8-126.2-121.1-252.5-242.3-378.7-363.4-5.5-8.2-10.9-16.3-16.4-24.5h0Z"/>
              </g>
              <g>
                <path class="cls-1" d="M6667.5,4422.6l-133.1-112.9c8.8-8,17.6-16,26.3-24,100.4-139.2,200.7-278.5,301.1-417.7,47.3,9.6,94.7,19.3,142,29,20.8,47.1,41.5,94.2,62.2,141.4-127.3,120-254.7,240-382,360-5.5,8.1-11.1,16.2-16.6,24.3h0Z"/>
                <path class="cls-1" d="M6681,4292.1l-134.1,111.7c8.7,8.1,17.4,16.2,26.1,24.3,99.1,140.1,198.2,280.3,297.3,420.4,47.4-9.2,94.8-18.5,142.3-27.7,21.2-46.9,42.3-93.9,63.5-140.8-126.2-121.1-252.5-242.3-378.7-363.4-5.5-8.2-10.9-16.3-16.4-24.5h0Z"/>
              </g>
              <g>
                <path class="cls-1" d="M6303.4,4431l-133.1-112.9c8.8-8,17.6-16,26.3-24,100.4-139.2,200.7-278.5,301.1-417.7,47.3,9.6,94.7,19.3,142,29,20.8,47.1,41.5,94.2,62.2,141.4-127.3,120-254.7,240-382,360-5.5,8.1-11.1,16.2-16.6,24.3h0Z"/>
                <path class="cls-1" d="M6317,4300.5l-134.1,111.7c8.7,8.1,17.4,16.2,26.1,24.3,99.1,140.1,198.2,280.3,297.3,420.4,47.4-9.2,94.8-18.5,142.3-27.7,21.2-46.9,42.3-93.9,63.5-140.8-126.2-121.1-252.5-242.3-378.7-363.4-5.5-8.2-10.9-16.3-16.4-24.5h0Z"/>
              </g>
              <g>
                <path class="cls-1" d="M6049.7,4419.8l134.1-111.7c-8.7-8.1-17.4-16.2-26.1-24.3-99.1-140.1-198.2-280.3-297.3-420.4-47.4,9.2-94.8,18.5-142.3,27.7-21.2,46.9-42.3,93.9-63.5,140.8,126.2,121.1,252.5,242.3,378.7,363.4,5.5,8.2,10.9,16.3,16.4,24.5h0Z"/>
                <path class="cls-1" d="M6037.3,4289.3l133.1,112.9c-8.8,8-17.6,16-26.3,24-100.4,139.2-200.7,278.5-301.1,417.7-47.3-9.6-94.7-19.3-142-29-20.8-47.1-41.5-94.2-62.2-141.4,127.3-120,254.7-240,382-360,5.5-8.1,11.1-16.2,16.6-24.3h0Z"/>
              </g>
              <g>
                <path class="cls-1" d="M5626.7,4427.9l134.1-111.7c-8.7-8.1-17.4-16.2-26.1-24.3-99.1-140.1-198.2-280.3-297.3-420.4-47.4,9.2-94.8,18.5-142.3,27.7-21.2,46.9-42.3,93.9-63.5,140.8,126.2,121.1,252.5,242.3,378.7,363.4,5.5,8.2,10.9,16.3,16.4,24.5h0Z"/>
                <path class="cls-1" d="M5614.3,4297.4l133.1,112.9c-8.8,8-17.6,16-26.3,24-100.4,139.2-200.7,278.5-301.1,417.7-47.3-9.6-94.7-19.3-142-29-20.8-47.1-41.5-94.2-62.2-141.4,127.3-120,254.7-240,382-360,5.5-8.1,11.1-16.2,16.6-24.3h0Z"/>
              </g>
              <g>
                <path class="cls-1" d="M5197.7,4426l134.1-111.7c-8.7-8.1-17.4-16.2-26.1-24.3-99.1-140.1-198.2-280.3-297.3-420.4-47.4,9.2-94.9,18.5-142.3,27.7-21.2,46.9-42.3,93.9-63.5,140.8,126.2,121.1,252.5,242.3,378.7,363.4,5.5,8.2,10.9,16.3,16.4,24.5h0Z"/>
                <path class="cls-1" d="M5185.3,4295.4l133.1,112.9c-8.8,8-17.6,16-26.3,24-100.4,139.2-200.7,278.5-301.1,417.7-47.3-9.6-94.7-19.3-142-29-20.8-47.1-41.5-94.2-62.2-141.4,127.3-120,254.6-240,382-360,5.5-8.1,11.1-16.2,16.6-24.3h0Z"/>
              </g>
              <g>
                <path class="cls-1" d="M4774.5,4460.1l134.1-111.7c-8.7-8.1-17.4-16.2-26.1-24.3-99.1-140.1-198.2-280.3-297.3-420.4-47.4,9.2-94.9,18.5-142.3,27.7-21.2,46.9-42.3,93.9-63.5,140.8,126.2,121.1,252.5,242.3,378.7,363.4,5.5,8.2,10.9,16.3,16.4,24.5h0Z"/>
                <path class="cls-1" d="M4762.1,4329.5l133.1,112.9c-8.8,8-17.6,16-26.4,24-100.4,139.2-200.7,278.5-301.1,417.7-47.3-9.6-94.7-19.3-142-29-20.8-47.1-41.5-94.2-62.2-141.4,127.3-120,254.6-240,382-360,5.5-8.1,11.1-16.2,16.6-24.3h0Z"/>
              </g>
            </g>
          </g>
          <g>
            <path class="cls-1" d="M6201.6,4525.2c20.6-19,41.2-38,61.8-57l.6.6,76.6-80.5c396.8-362.1,793.7-724.1,1190.5-1086.2,21.5-83,42.9-166,64.4-248.9-85,13.6-169.9,27.3-254.9,40.9-378.8,393.3-757.6,786.6-1136.4,1179.9-21.5,19.3-43,38.5-64.4,57.8l-.6-.6c-25.2,27.2-50.3,54.3-75.5,81.5-391.9,367.4-783.8,734.8-1175.7,1102.2-20.3,83.3-40.7,166.5-61,249.8,84.8-14.8,169.5-29.6,254.3-44.3,373.5-398.4,746.9-796.8,1120.4-1195.1h0Z"/>
            <g>
              <path class="cls-1" d="M7185.9,3545.9l-174.2,11.8c.7-11.9,1.4-23.7,2.2-35.6-25-169.8-50-339.6-75-509.4,40.7-26.1,81.4-52.1,122.1-78.2,47.7,19.4,95.4,38.7,143.1,58-7.7,174.8-15.5,349.6-23.2,524.4,1.7,9.7,3.3,19.4,5,29h0Z"/>
              <path class="cls-1" d="M7104.8,3442.9l-18.4,173.6c11.9-.3,23.8-.5,35.7-.8,168.7,31.5,337.5,63,506.2,94.4,27.6-39.7,55.2-79.3,82.8-119-17.5-48.4-35-96.8-52.5-145.2-175,1.1-349.9,2.1-524.9,3.2-9.6-2-19.2-4.1-28.8-6.1h0Z"/>
              <path class="cls-1" d="M6887.4,3806.8l-174.2,11.8c.7-11.9,1.4-23.7,2.2-35.6-25-169.8-50-339.6-75-509.4,40.7-26.1,81.4-52.1,122.1-78.2,47.7,19.4,95.4,38.7,143.1,58-7.7,174.8-15.5,349.6-23.2,524.4,1.7,9.7,3.3,19.4,5,29h0Z"/>
              <path class="cls-1" d="M6806.3,3703.8l-18.4,173.6c11.9-.3,23.8-.5,35.7-.8,168.7,31.5,337.5,63,506.2,94.4,27.6-39.7,55.2-79.3,82.8-119-17.5-48.4-35-96.8-52.5-145.2-175,1.1-349.9,2.1-524.9,3.2-9.6-2-19.2-4.1-28.8-6.1h0Z"/>
            </g>
            <g>
              <path class="cls-1" d="M6597.3,4112.5l-174.2,11.8c.7-11.9,1.4-23.7,2.2-35.6-25-169.8-50-339.6-75-509.4,40.7-26.1,81.4-52.1,122.1-78.2,47.7,19.4,95.4,38.7,143.1,58-7.7,174.8-15.5,349.6-23.2,524.4,1.7,9.7,3.3,19.4,5,29h0Z"/>
              <path class="cls-1" d="M6516.1,4009.4l-18.4,173.6c11.9-.3,23.8-.5,35.7-.8,168.7,31.5,337.5,63,506.2,94.4,27.6-39.7,55.2-79.3,82.8-119-17.5-48.4-35-96.8-52.5-145.2-175,1.1-349.9,2.1-524.9,3.2-9.6-2-19.2-4.1-28.8-6.1h0Z"/>
            </g>
            <g>
              <path class="cls-1" d="M6342,4372.1l-174.2,11.8c.7-11.9,1.4-23.7,2.2-35.6-25-169.8-50-339.6-75-509.4,40.7-26.1,81.4-52.1,122.1-78.2,47.7,19.4,95.4,38.7,143.1,58-7.7,174.8-15.5,349.6-23.2,524.4,1.7,9.7,3.3,19.4,5,29h0Z"/>
              <path class="cls-1" d="M6260.8,4269.1l-18.4,173.6c11.9-.3,23.8-.5,35.7-.8,168.7,31.5,337.5,63,506.2,94.4,27.6-39.7,55.2-79.3,82.8-119-17.5-48.4-35-96.8-52.5-145.2-175,1.1-349.9,2.1-524.9,3.2-9.6-2-19.2-4.1-28.8-6.1h0Z"/>
            </g>
            <g>
              <path class="cls-1" d="M6152.2,4540.9l18.4-173.6c-11.9.3-23.8.5-35.7.8-168.7-31.5-337.5-63-506.2-94.4-27.6,39.7-55.2,79.3-82.8,119,17.5,48.4,35,96.8,52.5,145.2,175-1.1,349.9-2.1,524.9-3.2,9.6,2,19.2,4.1,28.8,6.1h0Z"/>
              <path class="cls-1" d="M6052.3,4455.8l174.2-11.8c-.7,11.9-1.4,23.7-2.2,35.6,25,169.8,50,339.6,75,509.4-40.7,26.1-81.4,52.1-122.1,78.2-47.7-19.4-95.4-38.7-143.1-58,7.7-174.8,15.5-349.6,23.2-524.4-1.7-9.7-3.3-19.4-5-29h0Z"/>
            </g>
            <g>
              <path class="cls-1" d="M5854.4,4841.4l18.4-173.6c-11.9.3-23.8.5-35.7.8-168.7-31.5-337.5-63-506.2-94.4-27.6,39.7-55.2,79.3-82.8,119,17.5,48.4,35,96.8,52.5,145.2,175-1.1,349.9-2.1,524.9-3.2,9.6,2,19.2,4.1,28.8,6.1h0Z"/>
              <path class="cls-1" d="M5754.5,4756.4l174.2-11.8c-.7,11.9-1.4,23.7-2.2,35.6,25,169.8,50,339.6,75,509.4-40.7,26.1-81.4,52.1-122.1,78.2-47.7-19.4-95.4-38.7-143.1-58,7.7-174.8,15.5-349.6,23.2-524.4-1.7-9.7-3.3-19.4-5-29h0Z"/>
            </g>
            <g>
              <path class="cls-1" d="M5545.3,5138.9l18.4-173.6c-11.9.3-23.8.5-35.7.8-168.7-31.5-337.5-63-506.2-94.4-27.6,39.7-55.2,79.3-82.8,119,17.5,48.4,35,96.8,52.5,145.2,175-1.1,349.9-2.1,524.9-3.2,9.6,2,19.2,4.1,28.8,6.1h0Z"/>
              <path class="cls-1" d="M5445.4,5053.9l174.2-11.8c-.7,11.9-1.4,23.7-2.2,35.6,25,169.8,50,339.6,75,509.4-40.7,26.1-81.4,52.1-122.1,78.2-47.7-19.4-95.4-38.7-143.1-58,7.7-174.8,15.5-349.6,23.2-524.4-1.7-9.7-3.3-19.4-5-29h0Z"/>
            </g>
            <g>
              <path class="cls-1" d="M5265.5,5458.2l18.4-173.6c-11.9.3-23.8.5-35.7.8-168.7-31.5-337.5-63-506.2-94.4-27.6,39.7-55.2,79.3-82.8,119,17.5,48.4,35,96.8,52.5,145.2,175-1.1,349.9-2.1,524.9-3.2,9.6,2,19.2,4.1,28.8,6.1h0Z"/>
              <path class="cls-1" d="M5165.6,5373.2l174.2-11.8c-.7,11.9-1.4,23.7-2.2,35.6,25,169.8,50,339.6,75,509.4-40.7,26.1-81.4,52.1-122.1,78.2-47.7-19.4-95.4-38.7-143.1-58,7.7-174.8,15.5-349.6,23.2-524.4-1.7-9.7-3.3-19.4-5-29h0Z"/>
            </g>
            <g>
              <path class="cls-1" d="M6084.7,4406.3c18.9,20.7,37.8,41.4,56.7,62.1l-.6.6c26.7,25.7,53.4,51.3,80.1,77,360.3,398.5,720.6,796.9,1080.9,1195.4,82.9,21.8,165.8,43.7,248.6,65.5-13.2-85-26.5-170-39.8-255.1-391.6-380.6-783.2-761.1-1174.8-1141.7-19.2-21.6-38.3-43.1-57.5-64.7l.6-.6c-27-25.3-54.1-50.6-81.1-75.9-365.6-393.5-731.3-787.1-1096.9-1180.7-83.2-20.7-166.3-41.4-249.5-62.1,14.4,84.8,28.8,169.7,43.2,254.5,396.7,375.2,793.4,750.5,1190.1,1125.7h0Z"/>
              <g>
                <path class="cls-1" d="M7059.5,5395l-11-174.2c11.9.8,23.7,1.5,35.6,2.3,169.9-24.2,339.8-48.5,509.8-72.7,25.9,40.8,51.8,81.6,77.6,122.4-19.6,47.6-39.1,95.2-58.7,142.9-174.8-8.5-349.5-17-524.2-25.6-9.7,1.6-19.4,3.3-29.1,4.9h0Z"/>
                <path class="cls-1" d="M7162.9,5314.3l-173.5-19.2c.2,11.9.4,23.8.6,35.6-32.2,168.6-64.5,337.2-96.7,505.8,39.5,27.8,79.1,55.5,118.6,83.3,48.5-17.3,97-34.6,145.5-51.9-.3-175-.5-349.9-.8-524.9,2.1-9.6,4.2-19.2,6.3-28.8h0Z"/>
                <path class="cls-1" d="M6799.9,5095.3l-11-174.2c11.9.8,23.7,1.5,35.6,2.3,169.9-24.2,339.8-48.5,509.8-72.7,25.9,40.8,51.8,81.6,77.6,122.4-19.6,47.6-39.1,95.2-58.7,142.9-174.8-8.5-349.5-17-524.2-25.6-9.7,1.6-19.4,3.3-29.1,4.9h0Z"/>
                <path class="cls-1" d="M6903.3,5014.7l-173.5-19.2c.2,11.9.4,23.8.6,35.6-32.2,168.6-64.5,337.2-96.7,505.8,39.5,27.8,79.1,55.5,118.6,83.3,48.5-17.3,97-34.6,145.5-51.9-.3-175-.5-349.9-.8-524.9,2.1-9.6,4.2-19.2,6.3-28.8h0Z"/>
              </g>
              <g>
                <path class="cls-1" d="M6495.6,4803.8l-11-174.2c11.9.8,23.7,1.5,35.6,2.3,169.9-24.2,339.8-48.5,509.8-72.7,25.9,40.8,51.8,81.6,77.6,122.4-19.6,47.6-39.1,95.2-58.7,142.9-174.8-8.5-349.5-17-524.2-25.6-9.7,1.6-19.4,3.3-29.1,4.9h0Z"/>
                <path class="cls-1" d="M6599,4723.1l-173.5-19.2c.2,11.9.4,23.8.6,35.6-32.2,168.6-64.5,337.2-96.7,505.8,39.5,27.8,79.1,55.5,118.6,83.3,48.5-17.3,97-34.6,145.5-51.9-.3-175-.5-349.9-.8-524.9,2.1-9.6,4.2-19.2,6.3-28.8h0Z"/>
              </g>
              <g>
                <path class="cls-1" d="M6237.1,4547.3l-11-174.2c11.9.8,23.7,1.5,35.6,2.3,169.9-24.2,339.8-48.5,509.8-72.7,25.9,40.8,51.8,81.6,77.6,122.4-19.6,47.6-39.1,95.2-58.7,142.9-174.8-8.5-349.5-17-524.2-25.6-9.7,1.6-19.4,3.3-29.1,4.9h0Z"/>
                <path class="cls-1" d="M6340.5,4466.7l-173.5-19.2c.2,11.9.4,23.8.6,35.6-32.2,168.6-64.5,337.2-96.7,505.8,39.5,27.8,79.1,55.5,118.6,83.3,48.5-17.3,97-34.6,145.5-51.9-.3-175-.5-349.9-.8-524.9,2.1-9.6,4.2-19.2,6.3-28.8h0Z"/>
              </g>
              <g>
                <path class="cls-1" d="M6069.2,4356.8l173.5,19.2c-.2-11.9-.4-23.8-.6-35.6,32.2-168.6,64.5-337.2,96.7-505.8-39.5-27.8-79.1-55.5-118.6-83.3-48.5,17.3-97,34.6-145.5,51.9.3,175,.5,349.9.8,524.9-2.1,9.6-4.2,19.2-6.3,28.8h0Z"/>
                <path class="cls-1" d="M6154.6,4257.3l11,174.2c-11.9-.8-23.7-1.5-35.6-2.3-169.9,24.2-339.8,48.5-509.8,72.7-25.9-40.8-51.8-81.6-77.6-122.4,19.6-47.6,39.1-95.2,58.7-142.9,174.8,8.5,349.5,17,524.2,25.6,9.7-1.6,19.4-3.3,29.1-4.9h0Z"/>
              </g>
              <g>
                <path class="cls-1" d="M5770,4057.7l173.5,19.2c-.2-11.9-.4-23.8-.6-35.6,32.2-168.6,64.5-337.2,96.7-505.8-39.5-27.8-79.1-55.5-118.6-83.3-48.5,17.3-97,34.6-145.5,51.9.3,175,.5,349.9.8,524.9-2.1,9.6-4.2,19.2-6.3,28.8h0Z"/>
                <path class="cls-1" d="M5855.4,3958.2l11,174.2c-11.9-.8-23.7-1.5-35.6-2.3-169.9,24.2-339.8,48.5-509.8,72.7-25.9-40.8-51.8-81.6-77.6-122.4,19.6-47.6,39.1-95.2,58.7-142.9,174.8,8.5,349.5,17,524.2,25.6,9.7-1.6,19.4-3.3,29.1-4.9h0Z"/>
              </g>
              <g>
                <path class="cls-1" d="M5473.9,3747.2l173.5,19.2c-.2-11.9-.4-23.8-.6-35.6,32.2-168.6,64.5-337.2,96.7-505.8-39.5-27.8-79.1-55.5-118.6-83.3-48.5,17.3-97,34.6-145.5,51.9.3,175,.5,349.9.8,524.9-2.1,9.6-4.2,19.2-6.3,28.8h0Z"/>
                <path class="cls-1" d="M5559.3,3647.8l11,174.2c-11.9-.8-23.7-1.5-35.6-2.3-169.9,24.2-339.8,48.5-509.8,72.7-25.9-40.8-51.8-81.6-77.6-122.4,19.6-47.6,39.1-95.2,58.7-142.9,174.7,8.5,349.5,17,524.2,25.6,9.7-1.6,19.4-3.3,29.1-4.9h0Z"/>
              </g>
              <g>
                <path class="cls-1" d="M5155.9,3466l173.5,19.2c-.2-11.9-.4-23.8-.6-35.6,32.2-168.6,64.5-337.2,96.7-505.8-39.5-27.8-79.1-55.5-118.6-83.3-48.5,17.3-97,34.6-145.5,51.9.3,175,.5,349.9.8,524.9-2.1,9.6-4.2,19.2-6.3,28.8h0Z"/>
                <path class="cls-1" d="M5241.3,3366.5l11,174.2c-11.9-.8-23.7-1.5-35.6-2.3-169.9,24.2-339.8,48.5-509.8,72.7-25.9-40.8-51.8-81.6-77.6-122.4,19.6-47.6,39.1-95.2,58.7-142.9,174.8,8.5,349.5,17,524.3,25.6,9.7-1.6,19.4-3.3,29.1-4.9h0Z"/>
              </g>
            </g>
          </g>
        </g>
        <g>
          <g>
            <path class="cls-1" d="M2040.8,7164.2c.6-28,1.2-56,1.8-84h.9l-4.8-111c14.3-537,28.7-1074,43-1611-44.9-73-89.8-146-134.7-219-49.1,70.7-98.2,141.3-147.3,212,20.7,545.7,41.3,1091.3,62,1637l-3,86.5h-.9c2.1,37,4.2,74,6.3,110.9-7.1,537.1-14.2,1074.3-21.2,1611.4,45.9,72.4,91.8,144.8,137.6,217.2,48.1-71.3,96.3-142.7,144.4-214-28-545.3-56.1-1090.7-84.1-1636h0Z"/>
            <g>
              <path class="cls-1" d="M2017.9,5775.9l-112.3,133.6c-8-8.8-16.1-17.5-24.1-26.2-139.7-99.7-279.4-199.5-419.1-299.2,9.4-47.4,18.9-94.8,28.3-142.1,47-21,94.1-41.9,141.1-62.9,120.6,126.8,241.1,253.6,361.7,380.4,8.1,5.5,16.3,11,24.4,16.5h0Z"/>
              <path class="cls-1" d="M1887.4,5762.9l112.3,133.6c8-8.8,16.1-17.5,24.1-26.2,139.7-99.7,279.4-199.5,419.1-299.2-9.4-47.4-18.9-94.8-28.3-142.1-47-21-94.1-41.9-141.1-62.9-120.6,126.8-241.1,253.6-361.7,380.4-8.1,5.5-16.3,11-24.4,16.5h0Z"/>
              <path class="cls-1" d="M1998.9,6171.9l-112.3,133.6c-8-8.8-16.1-17.5-24.1-26.2-139.7-99.7-279.4-199.5-419.1-299.2,9.4-47.4,18.9-94.8,28.3-142.1,47-21,94.1-41.9,141.1-62.9,120.6,126.8,241.1,253.6,361.7,380.4,8.1,5.5,16.3,11,24.4,16.5h0Z"/>
              <path class="cls-1" d="M1868.4,6158.9l112.3,133.6c8-8.8,16.1-17.5,24.1-26.2,139.7-99.7,279.4-199.5,419.1-299.2-9.4-47.4-18.9-94.8-28.3-142.1-47-21-94.1-41.9-141.1-62.9-120.6,126.8-241.1,253.6-361.7,380.4-8.1,5.5-16.3,11-24.4,16.5h0Z"/>
            </g>
            <g>
              <path class="cls-1" d="M2017.9,6592.9l-112.3,133.6c-8-8.8-16.1-17.5-24.1-26.2-139.7-99.7-279.4-199.5-419.1-299.2,9.4-47.4,18.9-94.8,28.3-142.1,47-21,94.1-41.9,141.1-62.9,120.6,126.8,241.1,253.6,361.7,380.4,8.1,5.5,16.3,11,24.4,16.5h0Z"/>
              <path class="cls-1" d="M1887.4,6579.9l112.3,133.6c8-8.8,16.1-17.5,24.1-26.2,139.7-99.7,279.4-199.5,419.1-299.2-9.4-47.4-18.9-94.8-28.3-142.1-47-21-94.1-41.9-141.1-62.9-120.6,126.8-241.1,253.6-361.7,380.4-8.1,5.5-16.3,11-24.4,16.5h0Z"/>
            </g>
            <g>
              <path class="cls-1" d="M2027.9,6956.9l-112.3,133.6c-8-8.8-16.1-17.5-24.1-26.2-139.7-99.7-279.4-199.5-419.1-299.2,9.4-47.4,18.9-94.8,28.3-142.1,47-21,94.1-41.9,141.1-62.9,120.6,126.8,241.1,253.6,361.7,380.4,8.1,5.5,16.3,11,24.4,16.5h0Z"/>
              <path class="cls-1" d="M1897.4,6943.9l112.3,133.6c8-8.8,16.1-17.5,24.1-26.2,139.7-99.7,279.4-199.5,419.1-299.2-9.4-47.4-18.9-94.8-28.3-142.1-47-21-94.1-41.9-141.1-62.9-120.6,126.8-241.1,253.6-361.7,380.4-8.1,5.5-16.3,11-24.4,16.5h0Z"/>
            </g>
            <g>
              <path class="cls-1" d="M2017.9,7210.6l-112.3-133.6c-8,8.8-16.1,17.5-24.1,26.2-139.7,99.7-279.4,199.5-419.1,299.2,9.4,47.4,18.9,94.8,28.3,142.2,47,21,94.1,41.9,141.1,62.9,120.6-126.8,241.1-253.6,361.7-380.4,8.1-5.5,16.3-11,24.4-16.5h0Z"/>
              <path class="cls-1" d="M1887.4,7223.6l112.3-133.6c8,8.8,16.1,17.5,24.1,26.2,139.7,99.7,279.4,199.5,419.1,299.2-9.4,47.4-18.9,94.8-28.3,142.2-47,21-94.1,41.9-141.1,62.9-120.6-126.8-241.1-253.6-361.7-380.4-8.1-5.5-16.3-11-24.4-16.5h0Z"/>
            </g>
            <g>
              <path class="cls-1" d="M2027.9,7633.6l-112.3-133.6c-8,8.8-16.1,17.5-24.1,26.2-139.7,99.7-279.4,199.5-419.1,299.2,9.4,47.4,18.9,94.8,28.3,142.2,47,21,94.1,41.9,141.1,62.9,120.6-126.8,241.1-253.6,361.7-380.4,8.1-5.5,16.3-11,24.4-16.5h0Z"/>
              <path class="cls-1" d="M1897.4,7646.6l112.3-133.6c8,8.8,16.1,17.5,24.1,26.2,139.7,99.7,279.4,199.5,419.1,299.2-9.4,47.4-18.9,94.8-28.3,142.2-47,21-94.1,41.9-141.1,62.9-120.6-126.8-241.1-253.6-361.7-380.4-8.1-5.5-16.3-11-24.4-16.5h0Z"/>
            </g>
            <g>
              <path class="cls-1" d="M2027.9,8062.6l-112.3-133.6c-8,8.8-16.1,17.5-24.1,26.2-139.7,99.7-279.4,199.5-419.1,299.2,9.4,47.4,18.9,94.8,28.3,142.2,47,21,94.1,41.9,141.1,62.9,120.6-126.8,241.1-253.6,361.7-380.4,8.1-5.5,16.3-11,24.4-16.5h0Z"/>
              <path class="cls-1" d="M1897.4,8075.6l112.3-133.6c8,8.8,16.1,17.5,24.1,26.2,139.7,99.7,279.4,199.5,419.1,299.2-9.4,47.4-18.9,94.8-28.3,142.2-47,21-94.1,41.9-141.1,62.9-120.6-126.8-241.1-253.6-361.7-380.4-8.1-5.5-16.3-11-24.4-16.5h0Z"/>
            </g>
            <g>
              <path class="cls-1" d="M2063.9,8485.6l-112.3-133.6c-8,8.8-16.1,17.5-24.1,26.2-139.7,99.7-279.4,199.5-419.1,299.2,9.4,47.4,18.9,94.8,28.3,142.2,47,21,94.1,41.9,141.1,62.9,120.6-126.8,241.1-253.6,361.7-380.4,8.1-5.5,16.3-11,24.4-16.5h0Z"/>
              <path class="cls-1" d="M1933.4,8498.6l112.3-133.6c8,8.8,16.1,17.5,24.1,26.2,139.7,99.7,279.4,199.5,419.1,299.2-9.4,47.4-18.9,94.8-28.3,142.2-47,21-94.1,41.9-141.1,62.9-120.6-126.8-241.1-253.6-361.7-380.4-8.1-5.5-16.3-11-24.4-16.5h0Z"/>
            </g>
            <g>
              <path class="cls-1" d="M1874.1,7165.9c28,.7,56,1.5,84,2.2v.9c37-1.4,74-2.9,111-4.3,536.9,16.7,1073.9,33.5,1610.8,50.2,73.2-44.6,146.4-89.2,219.6-133.7-70.5-49.4-140.9-98.8-211.3-148.2-545.8,18.2-1091.5,36.4-1637.3,54.7-28.8-1.1-57.6-2.3-86.5-3.4v-.9c-37,1.9-74,3.9-111,5.8-537.1-9.5-1074.2-19-1611.3-28.5-72.6,45.6-145.2,91.1-217.8,136.7,71.1,48.5,142.2,96.9,213.3,145.4,545.5-25.6,1090.9-51.2,1636.4-76.8h0Z"/>
              <g>
                <path class="cls-1" d="M3262.5,7149.2l-133.1-112.9c8.8-8,17.6-16,26.4-24,100.4-139.2,200.7-278.5,301.1-417.7,47.3,9.6,94.7,19.3,142,29,20.8,47.1,41.5,94.2,62.2,141.4-127.3,120-254.6,240-382,360-5.5,8.1-11.1,16.2-16.6,24.3h0Z"/>
                <path class="cls-1" d="M3276,7018.8l-134.1,111.7c8.7,8.1,17.4,16.2,26.1,24.3,99.1,140.1,198.2,280.3,297.3,420.4,47.4-9.2,94.9-18.5,142.3-27.7,21.2-46.9,42.3-93.9,63.5-140.8-126.2-121.1-252.5-242.3-378.7-363.4-5.5-8.2-10.9-16.3-16.4-24.5h0Z"/>
                <path class="cls-1" d="M2866.5,7128.5l-133.1-112.9c8.8-8,17.6-16,26.4-24,100.4-139.2,200.7-278.5,301.1-417.7,47.3,9.6,94.7,19.3,142,29,20.8,47.1,41.5,94.2,62.2,141.4-127.3,120-254.6,240-382,360-5.5,8.1-11.1,16.2-16.6,24.3h0Z"/>
                <path class="cls-1" d="M2880.1,6998l-134.1,111.7c8.7,8.1,17.4,16.2,26.1,24.3,99.1,140.1,198.2,280.3,297.3,420.4,47.4-9.2,94.9-18.5,142.3-27.7,21.2-46.9,42.3-93.9,63.5-140.8-126.2-121.1-252.5-242.3-378.7-363.4-5.5-8.2-10.9-16.3-16.4-24.5h0Z"/>
              </g>
              <g>
                <path class="cls-1" d="M2445.5,7145.6l-133.1-112.9c8.8-8,17.6-16,26.4-24,100.4-139.2,200.7-278.5,301.1-417.7,47.3,9.6,94.7,19.3,142,29,20.8,47.1,41.5,94.2,62.2,141.4-127.3,120-254.6,240-382,360-5.5,8.1-11.1,16.2-16.6,24.3h0Z"/>
                <path class="cls-1" d="M2459,7015.1l-134.1,111.7c8.7,8.1,17.4,16.2,26.1,24.3,99.1,140.1,198.2,280.3,297.3,420.4,47.4-9.2,94.9-18.5,142.3-27.7,21.2-46.9,42.3-93.9,63.5-140.8-126.2-121.1-252.5-242.3-378.7-363.4-5.5-8.2-10.9-16.3-16.4-24.5h0Z"/>
              </g>
              <g>
                <path class="cls-1" d="M2081.4,7154l-133.1-112.9c8.8-8,17.6-16,26.4-24,100.4-139.2,200.7-278.5,301.1-417.7,47.3,9.6,94.7,19.3,142,29,20.8,47.1,41.5,94.2,62.2,141.4-127.3,120-254.6,240-382,360-5.5,8.1-11.1,16.2-16.6,24.3h0Z"/>
                <path class="cls-1" d="M2095,7023.5l-134.1,111.7c8.7,8.1,17.4,16.2,26.1,24.3,99.1,140.1,198.2,280.3,297.3,420.4,47.4-9.2,94.9-18.5,142.3-27.7,21.2-46.9,42.3-93.9,63.5-140.8-126.2-121.1-252.5-242.3-378.7-363.4-5.5-8.2-10.9-16.3-16.4-24.5h0Z"/>
              </g>
              <g>
                <path class="cls-1" d="M1827.7,7142.8l134.1-111.7c-8.7-8.1-17.4-16.2-26.1-24.3-99.1-140.1-198.2-280.3-297.3-420.4-47.4,9.2-94.9,18.5-142.3,27.7-21.2,46.9-42.3,93.9-63.5,140.8,126.2,121.1,252.5,242.3,378.7,363.4,5.5,8.2,10.9,16.3,16.4,24.5h0Z"/>
                <path class="cls-1" d="M1815.3,7012.3l133.1,112.9c-8.8,8-17.6,16-26.4,24-100.4,139.2-200.7,278.5-301.1,417.7-47.3-9.7-94.7-19.3-142-29-20.8-47.1-41.5-94.2-62.2-141.4,127.3-120,254.6-240,382-360,5.5-8.1,11.1-16.2,16.6-24.3h0Z"/>
              </g>
              <g>
                <path class="cls-1" d="M1404.7,7150.9l134.1-111.7c-8.7-8.1-17.4-16.2-26.1-24.3-99.1-140.1-198.2-280.3-297.3-420.4-47.4,9.2-94.9,18.5-142.3,27.7-21.2,46.9-42.3,93.9-63.5,140.8,126.2,121.1,252.5,242.3,378.7,363.4,5.5,8.2,10.9,16.3,16.4,24.5h0Z"/>
                <path class="cls-1" d="M1392.3,7020.4l133.1,112.9c-8.8,8-17.6,16-26.4,24-100.4,139.2-200.7,278.5-301.1,417.7-47.3-9.7-94.7-19.3-142-29-20.8-47.1-41.5-94.2-62.2-141.4,127.3-120,254.6-240,382-360,5.5-8.1,11.1-16.2,16.6-24.3h0Z"/>
              </g>
              <g>
                <path class="cls-1" d="M975.7,7149l134.1-111.7c-8.7-8.1-17.4-16.2-26.1-24.3-99.1-140.1-198.2-280.3-297.3-420.4-47.4,9.2-94.9,18.5-142.3,27.7-21.2,46.9-42.3,93.9-63.5,140.8,126.2,121.1,252.5,242.3,378.7,363.4l16.4,24.5h0Z"/>
                <path class="cls-1" d="M963.3,7018.4l133.1,112.9c-8.8,8-17.6,16-26.4,24-100.4,139.2-200.7,278.5-301.1,417.7-47.3-9.7-94.7-19.3-142-29-20.8-47.1-41.5-94.2-62.2-141.4,127.3-120,254.6-240,382-360,5.5-8.1,11.1-16.2,16.6-24.3h0Z"/>
              </g>
              <g>
                <path class="cls-1" d="M552.5,7183.1l134.1-111.7c-8.7-8.1-17.4-16.2-26.1-24.3-99.1-140.1-198.2-280.3-297.3-420.4-47.4,9.2-94.9,18.5-142.3,27.7-21.2,46.9-42.3,93.9-63.5,140.8,126.2,121.1,252.5,242.3,378.7,363.4l16.4,24.5h0Z"/>
                <path class="cls-1" d="M540.1,7052.5l133.1,112.9c-8.8,8-17.6,16-26.4,24-100.4,139.2-200.7,278.5-301.1,417.7-47.3-9.7-94.7-19.3-142-29-20.8-47.1-41.5-94.2-62.2-141.4,127.3-120,254.6-240,382-360,5.5-8.1,11.1-16.2,16.6-24.3h0Z"/>
              </g>
            </g>
          </g>
          <g>
            <path class="cls-1" d="M1979.6,7248.2c20.6-19,41.2-38,61.8-57l.6.6c25.5-26.8,51.1-53.6,76.6-80.5,396.8-362.1,793.7-724.1,1190.5-1086.2,21.5-83,42.9-166,64.4-248.9-85,13.6-169.9,27.3-254.9,40.9-378.8,393.3-757.6,786.6-1136.4,1179.9-21.5,19.3-43,38.5-64.4,57.8l-.6-.6c-25.2,27.2-50.4,54.3-75.5,81.5-391.9,367.4-783.8,734.8-1175.7,1102.2-20.3,83.3-40.7,166.5-61,249.8,84.8-14.8,169.5-29.6,254.3-44.3,373.5-398.4,746.9-796.8,1120.4-1195.1h0Z"/>
            <g>
              <path class="cls-1" d="M2963.9,6268.9l-174.1,11.8c.7-11.9,1.4-23.7,2.2-35.6-25-169.8-50-339.6-75-509.4,40.7-26.1,81.4-52.1,122.1-78.2,47.7,19.4,95.4,38.7,143.1,58-7.7,174.8-15.5,349.6-23.2,524.4,1.7,9.7,3.4,19.4,5,29h0Z"/>
              <path class="cls-1" d="M2882.8,6165.9l-18.4,173.6c11.9-.3,23.8-.5,35.6-.8,168.7,31.5,337.5,63,506.2,94.4,27.6-39.7,55.2-79.3,82.8-119-17.5-48.4-35-96.8-52.5-145.2-175,1.1-349.9,2.1-524.9,3.2-9.6-2-19.2-4.1-28.8-6.1h0Z"/>
              <path class="cls-1" d="M2665.4,6529.8l-174.1,11.8c.7-11.9,1.4-23.7,2.2-35.6-25-169.8-50-339.6-75-509.4,40.7-26.1,81.4-52.1,122.1-78.2,47.7,19.4,95.4,38.7,143.1,58-7.7,174.8-15.5,349.6-23.2,524.4,1.7,9.7,3.4,19.4,5,29h0Z"/>
              <path class="cls-1" d="M2584.3,6426.8l-18.4,173.6c11.9-.3,23.8-.5,35.6-.8,168.7,31.5,337.5,63,506.2,94.4,27.6-39.7,55.2-79.3,82.8-119-17.5-48.4-35-96.8-52.5-145.2-175,1.1-349.9,2.1-524.9,3.2-9.6-2-19.2-4.1-28.8-6.1h0Z"/>
            </g>
            <g>
              <path class="cls-1" d="M2375.3,6835.5l-174.1,11.8c.7-11.9,1.4-23.7,2.2-35.6-25-169.8-50-339.6-75-509.4,40.7-26.1,81.4-52.1,122.1-78.2,47.7,19.4,95.4,38.7,143.1,58-7.7,174.8-15.5,349.6-23.2,524.4,1.7,9.7,3.4,19.4,5,29h0Z"/>
              <path class="cls-1" d="M2294.1,6732.4l-18.4,173.6c11.9-.3,23.8-.5,35.6-.8,168.7,31.5,337.5,63,506.2,94.4,27.6-39.7,55.2-79.3,82.8-119-17.5-48.4-35-96.8-52.5-145.2-175,1.1-349.9,2.1-524.9,3.2-9.6-2-19.2-4.1-28.8-6.1h0Z"/>
            </g>
            <g>
              <path class="cls-1" d="M2120,7095.1l-174.1,11.8c.7-11.9,1.4-23.7,2.2-35.6-25-169.8-50-339.6-75-509.4,40.7-26.1,81.4-52.1,122.1-78.2,47.7,19.4,95.4,38.7,143.1,58-7.7,174.8-15.5,349.6-23.2,524.4,1.7,9.7,3.4,19.4,5,29h0Z"/>
              <path class="cls-1" d="M2038.8,6992.1l-18.4,173.6c11.9-.3,23.8-.5,35.6-.8,168.7,31.5,337.5,63,506.2,94.4,27.6-39.7,55.2-79.3,82.8-119-17.5-48.4-35-96.8-52.5-145.2-175,1.1-349.9,2.1-524.9,3.2-9.6-2-19.2-4.1-28.8-6.1h0Z"/>
            </g>
            <g>
              <path class="cls-1" d="M1930.2,7263.9l18.4-173.6c-11.9.3-23.8.5-35.6.8-168.7-31.5-337.5-63-506.2-94.4-27.6,39.7-55.2,79.3-82.8,119,17.5,48.4,35,96.8,52.5,145.2,175-1.1,349.9-2.1,524.9-3.2,9.6,2,19.2,4.1,28.8,6.1h0Z"/>
              <path class="cls-1" d="M1830.3,7178.8l174.1-11.8c-.7,11.9-1.4,23.7-2.2,35.6,25,169.8,50,339.6,75,509.4-40.7,26.1-81.4,52.1-122.1,78.2-47.7-19.3-95.4-38.7-143.1-58,7.7-174.8,15.5-349.6,23.2-524.4-1.7-9.7-3.4-19.4-5-29h0Z"/>
            </g>
            <g>
              <path class="cls-1" d="M1632.4,7564.4l18.4-173.6c-11.9.3-23.8.5-35.6.8-168.7-31.5-337.5-63-506.2-94.4-27.6,39.7-55.2,79.3-82.8,119,17.5,48.4,35,96.8,52.5,145.2,175-1.1,349.9-2.1,524.9-3.2,9.6,2,19.2,4.1,28.8,6.1h0Z"/>
              <path class="cls-1" d="M1532.5,7479.4l174.1-11.8c-.7,11.9-1.4,23.7-2.2,35.6,25,169.8,50,339.6,75,509.4-40.7,26.1-81.4,52.1-122.1,78.2-47.7-19.3-95.4-38.7-143.1-58,7.7-174.8,15.5-349.6,23.2-524.4-1.7-9.7-3.4-19.4-5-29h0Z"/>
            </g>
            <g>
              <path class="cls-1" d="M1323.3,7861.9l18.4-173.6c-11.9.3-23.8.5-35.6.8-168.7-31.5-337.5-63-506.2-94.4-27.6,39.7-55.2,79.3-82.8,119,17.5,48.4,35,96.8,52.5,145.2,175-1.1,349.9-2.1,524.9-3.2,9.6,2,19.2,4.1,28.8,6.1h0Z"/>
              <path class="cls-1" d="M1223.4,7776.9l174.1-11.8c-.7,11.9-1.4,23.7-2.2,35.6,25,169.8,50,339.6,75,509.4-40.7,26.1-81.4,52.1-122.1,78.2-47.7-19.3-95.4-38.7-143.1-58,7.7-174.8,15.5-349.6,23.2-524.4-1.7-9.7-3.4-19.4-5-29h0Z"/>
            </g>
            <g>
              <path class="cls-1" d="M1043.5,8181.2l18.4-173.6c-11.9.3-23.8.5-35.6.8-168.7-31.5-337.5-63-506.2-94.4-27.6,39.7-55.2,79.3-82.8,119,17.5,48.4,35,96.8,52.5,145.2,175-1.1,349.9-2.1,524.9-3.2,9.6,2,19.2,4.1,28.8,6.1h0Z"/>
              <path class="cls-1" d="M943.6,8096.2l174.2-11.8c-.7,11.9-1.4,23.7-2.2,35.6,25,169.8,50,339.6,75,509.4-40.7,26.1-81.4,52.1-122.1,78.2-47.7-19.3-95.4-38.7-143.1-58,7.7-174.8,15.5-349.6,23.2-524.4-1.7-9.7-3.4-19.4-5-29h0Z"/>
            </g>
            <g>
              <path class="cls-1" d="M1862.7,7129.3c18.9,20.7,37.8,41.4,56.7,62.1l-.6.6c26.7,25.7,53.4,51.3,80.1,77,360.3,398.5,720.6,796.9,1080.9,1195.4,82.9,21.8,165.8,43.7,248.6,65.5-13.2-85-26.5-170-39.8-255.1-391.6-380.6-783.2-761.1-1174.8-1141.7-19.2-21.6-38.3-43.1-57.5-64.7l.6-.6c-27-25.3-54.1-50.6-81.1-75.9-365.6-393.5-731.3-787.1-1096.9-1180.7-83.2-20.7-166.3-41.4-249.5-62.1,14.4,84.8,28.8,169.7,43.2,254.5,396.7,375.2,793.4,750.5,1190.1,1125.7h0Z"/>
              <g>
                <path class="cls-1" d="M2837.5,8118l-11-174.2c11.9.8,23.7,1.5,35.6,2.3,169.9-24.2,339.8-48.5,509.8-72.7,25.9,40.8,51.8,81.6,77.6,122.4-19.6,47.6-39.1,95.2-58.7,142.9-174.8-8.5-349.5-17-524.2-25.6-9.7,1.6-19.4,3.3-29.1,4.9Z"/>
                <path class="cls-1" d="M2940.9,8037.3l-173.5-19.2c.2,11.9.4,23.8.6,35.7-32.2,168.6-64.5,337.2-96.7,505.8,39.5,27.8,79.1,55.5,118.6,83.3,48.5-17.3,97-34.6,145.5-51.9-.3-175-.5-349.9-.8-524.9,2.1-9.6,4.2-19.2,6.3-28.8h0Z"/>
                <path class="cls-1" d="M2577.9,7818.3l-11-174.2c11.9.8,23.7,1.5,35.6,2.3,169.9-24.2,339.8-48.5,509.8-72.7,25.9,40.8,51.8,81.6,77.6,122.4-19.6,47.6-39.1,95.2-58.7,142.9-174.8-8.5-349.5-17-524.2-25.6-9.7,1.6-19.4,3.3-29.1,4.9Z"/>
                <path class="cls-1" d="M2681.3,7737.7l-173.5-19.2c.2,11.9.4,23.8.6,35.7-32.2,168.6-64.5,337.2-96.7,505.8,39.5,27.8,79.1,55.5,118.6,83.3,48.5-17.3,97-34.6,145.5-51.9-.3-175-.5-349.9-.8-524.9,2.1-9.6,4.2-19.2,6.3-28.8h0Z"/>
              </g>
              <g>
                <path class="cls-1" d="M2273.6,7526.8l-11-174.2c11.9.8,23.7,1.5,35.6,2.3,169.9-24.2,339.8-48.5,509.8-72.7,25.9,40.8,51.8,81.6,77.6,122.4-19.6,47.6-39.1,95.2-58.7,142.9-174.8-8.5-349.5-17-524.2-25.6-9.7,1.6-19.4,3.3-29.1,4.9h0Z"/>
                <path class="cls-1" d="M2377,7446.1l-173.5-19.2c.2,11.9.4,23.8.6,35.7-32.2,168.6-64.5,337.2-96.7,505.8,39.5,27.8,79.1,55.5,118.6,83.3,48.5-17.3,97-34.6,145.5-51.9-.3-175-.5-349.9-.8-524.9,2.1-9.6,4.2-19.2,6.3-28.8h0Z"/>
              </g>
              <g>
                <path class="cls-1" d="M2015.1,7270.3l-11-174.2c11.9.8,23.7,1.5,35.6,2.3,169.9-24.2,339.8-48.5,509.8-72.7,25.9,40.8,51.8,81.6,77.6,122.4-19.6,47.6-39.1,95.2-58.7,142.9-174.8-8.5-349.5-17-524.2-25.6-9.7,1.6-19.4,3.3-29.1,4.9Z"/>
                <path class="cls-1" d="M2118.5,7189.7l-173.5-19.2c.2,11.9.4,23.8.6,35.7-32.2,168.6-64.5,337.2-96.7,505.8,39.5,27.8,79.1,55.5,118.6,83.3,48.5-17.3,97-34.6,145.5-51.9-.3-175-.5-349.9-.8-524.9,2.1-9.6,4.2-19.2,6.3-28.8h0Z"/>
              </g>
              <g>
                <path class="cls-1" d="M1847.2,7079.8l173.5,19.2c-.2-11.9-.4-23.8-.6-35.7,32.2-168.6,64.5-337.2,96.7-505.8-39.5-27.8-79.1-55.5-118.6-83.3-48.5,17.3-97,34.6-145.5,51.9.3,175,.5,349.9.8,524.9-2.1,9.6-4.2,19.2-6.3,28.8h0Z"/>
                <path class="cls-1" d="M1932.6,6980.3l11,174.2c-11.9-.8-23.7-1.5-35.6-2.3-169.9,24.2-339.8,48.5-509.8,72.7-25.9-40.8-51.8-81.6-77.6-122.4,19.6-47.6,39.1-95.2,58.7-142.9,174.8,8.5,349.5,17,524.2,25.6,9.7-1.6,19.4-3.3,29.1-4.9h0Z"/>
              </g>
              <g>
                <path class="cls-1" d="M1548,6780.7l173.5,19.2c-.2-11.9-.4-23.8-.6-35.6,32.2-168.6,64.5-337.2,96.7-505.8-39.5-27.8-79.1-55.5-118.6-83.3-48.5,17.3-97,34.6-145.5,51.9.3,175,.5,349.9.8,524.9-2.1,9.6-4.2,19.2-6.3,28.8h0Z"/>
                <path class="cls-1" d="M1633.4,6681.2l11,174.2c-11.9-.8-23.7-1.5-35.6-2.3-169.9,24.2-339.8,48.5-509.8,72.7-25.9-40.8-51.8-81.6-77.6-122.4,19.6-47.6,39.1-95.2,58.7-142.9,174.8,8.5,349.5,17,524.2,25.6,9.7-1.6,19.4-3.3,29.1-4.9h0Z"/>
              </g>
              <g>
                <path class="cls-1" d="M1251.9,6470.2l173.5,19.2c-.2-11.9-.4-23.8-.6-35.6,32.2-168.6,64.5-337.2,96.7-505.8-39.5-27.8-79.1-55.5-118.6-83.3-48.5,17.3-97,34.6-145.5,51.9.3,175,.5,349.9.8,524.9-2.1,9.6-4.2,19.2-6.3,28.8h0Z"/>
                <path class="cls-1" d="M1337.3,6370.8l11,174.2c-11.9-.8-23.7-1.5-35.6-2.3-169.9,24.2-339.8,48.5-509.8,72.7-25.9-40.8-51.8-81.6-77.6-122.4,19.6-47.6,39.1-95.2,58.7-142.9,174.8,8.5,349.5,17,524.2,25.6,9.7-1.6,19.4-3.3,29.1-4.9h0Z"/>
              </g>
              <g>
                <path class="cls-1" d="M933.9,6189l173.5,19.2c-.2-11.9-.4-23.8-.6-35.6,32.2-168.6,64.5-337.2,96.7-505.8-39.5-27.8-79.1-55.5-118.6-83.3-48.5,17.3-97,34.6-145.5,51.9.3,175,.6,349.9.8,524.9-2.1,9.6-4.2,19.2-6.3,28.8h0Z"/>
                <path class="cls-1" d="M1019.3,6089.5l11,174.2c-11.9-.8-23.7-1.5-35.6-2.3-169.9,24.2-339.8,48.5-509.8,72.7-25.9-40.8-51.8-81.6-77.6-122.4,19.6-47.6,39.1-95.2,58.7-142.9,174.8,8.5,349.5,17,524.2,25.6,9.7-1.6,19.4-3.3,29.1-4.9h0Z"/>
              </g>
            </g>
          </g>
        </g>
        <g>
          <g>
            <path class="cls-1" d="M2762.8,2087.2c.6-28,1.2-56,1.8-84h.9l-4.8-111c14.3-537,28.7-1074,43-1611-44.9-73-89.8-146-134.7-219-49.1,70.7-98.2,141.3-147.3,212,20.7,545.7,41.3,1091.3,62,1637l-3,86.5h-.9c2.1,37,4.2,74,6.3,110.9-7.1,537.1-14.2,1074.3-21.2,1611.4,45.9,72.4,91.8,144.8,137.6,217.2,48.1-71.3,96.3-142.6,144.4-214-28-545.3-56.1-1090.7-84.1-1636h0Z"/>
            <g>
              <path class="cls-1" d="M2739.9,698.9l-112.3,133.6c-8-8.8-16.1-17.5-24.1-26.2-139.7-99.7-279.4-199.5-419.1-299.2,9.4-47.4,18.9-94.8,28.3-142.2,47-21,94.1-41.9,141.1-62.9,120.6,126.8,241.1,253.6,361.7,380.4,8.1,5.5,16.3,11,24.4,16.5h0Z"/>
              <path class="cls-1" d="M2609.4,685.9l112.3,133.6c8-8.8,16.1-17.5,24.1-26.2,139.7-99.7,279.4-199.5,419.1-299.2-9.4-47.4-18.9-94.8-28.3-142.2-47-21-94.1-41.9-141.1-62.9-120.6,126.8-241.1,253.6-361.7,380.4-8.1,5.5-16.3,11-24.4,16.5h0Z"/>
              <path class="cls-1" d="M2720.9,1094.9l-112.3,133.6c-8-8.8-16.1-17.5-24.1-26.2-139.7-99.7-279.4-199.5-419.1-299.2,9.4-47.4,18.9-94.8,28.3-142.2,47-21,94.1-41.9,141.1-62.9,120.6,126.8,241.1,253.6,361.7,380.4,8.1,5.5,16.3,11,24.4,16.5h0Z"/>
              <path class="cls-1" d="M2590.4,1081.9l112.3,133.6c8-8.8,16.1-17.5,24.1-26.2,139.7-99.7,279.4-199.5,419.1-299.2-9.4-47.4-18.9-94.8-28.3-142.2-47-21-94.1-41.9-141.1-62.9-120.6,126.8-241.1,253.6-361.7,380.4-8.1,5.5-16.3,11-24.4,16.5h0Z"/>
            </g>
            <g>
              <path class="cls-1" d="M2739.9,1515.9l-112.3,133.6c-8-8.8-16.1-17.5-24.1-26.2-139.7-99.7-279.4-199.5-419.1-299.2,9.4-47.4,18.9-94.8,28.3-142.1,47-21,94.1-41.9,141.1-62.9,120.6,126.8,241.1,253.6,361.7,380.4,8.1,5.5,16.3,11,24.4,16.5h0Z"/>
              <path class="cls-1" d="M2609.4,1502.9l112.3,133.6c8-8.8,16.1-17.5,24.1-26.2,139.7-99.7,279.4-199.5,419.1-299.2-9.4-47.4-18.9-94.8-28.3-142.1-47-21-94.1-41.9-141.1-62.9-120.6,126.8-241.1,253.6-361.7,380.4-8.1,5.5-16.3,11-24.4,16.5h0Z"/>
            </g>
            <g>
              <path class="cls-1" d="M2749.9,1879.9l-112.3,133.6c-8-8.8-16.1-17.5-24.1-26.2-139.7-99.7-279.4-199.5-419.1-299.2,9.4-47.4,18.9-94.8,28.3-142.1,47-21,94.1-41.9,141.1-62.9,120.6,126.8,241.1,253.6,361.7,380.4,8.1,5.5,16.3,11,24.4,16.5h0Z"/>
              <path class="cls-1" d="M2619.4,1866.9l112.3,133.6c8-8.8,16.1-17.5,24.1-26.2,139.7-99.7,279.4-199.5,419.1-299.2-9.4-47.4-18.9-94.8-28.3-142.1-47-21-94.1-41.9-141.1-62.9-120.6,126.8-241.1,253.6-361.7,380.4-8.1,5.5-16.3,11-24.4,16.5h0Z"/>
            </g>
            <g>
              <path class="cls-1" d="M2739.9,2133.6l-112.3-133.6c-8,8.8-16.1,17.5-24.1,26.2-139.7,99.7-279.4,199.5-419.1,299.2,9.4,47.4,18.9,94.8,28.3,142.1,47,21,94.1,41.9,141.1,62.9,120.6-126.8,241.1-253.6,361.7-380.4,8.1-5.5,16.3-11,24.4-16.5h0Z"/>
              <path class="cls-1" d="M2609.4,2146.6l112.3-133.6c8,8.8,16.1,17.5,24.1,26.2,139.7,99.7,279.4,199.5,419.1,299.2-9.4,47.4-18.9,94.8-28.3,142.1-47,21-94.1,41.9-141.1,62.9-120.6-126.8-241.1-253.6-361.7-380.4-8.1-5.5-16.3-11-24.4-16.5h0Z"/>
            </g>
            <g>
              <path class="cls-1" d="M2749.9,2556.6l-112.3-133.6c-8,8.8-16.1,17.5-24.1,26.2-139.7,99.7-279.4,199.5-419.1,299.2,9.4,47.4,18.9,94.8,28.3,142.1,47,21,94.1,41.9,141.1,62.9,120.6-126.8,241.1-253.6,361.7-380.4,8.1-5.5,16.3-11,24.4-16.5h0Z"/>
              <path class="cls-1" d="M2619.4,2569.6l112.3-133.6c8,8.8,16.1,17.5,24.1,26.2,139.7,99.7,279.4,199.5,419.1,299.2-9.4,47.4-18.9,94.8-28.3,142.1-47,21-94.1,41.9-141.1,62.9-120.6-126.8-241.1-253.6-361.7-380.4-8.1-5.5-16.3-11-24.4-16.5h0Z"/>
            </g>
            <g>
              <path class="cls-1" d="M2749.9,2985.6l-112.3-133.6c-8,8.8-16.1,17.5-24.1,26.2-139.7,99.7-279.4,199.5-419.1,299.2,9.4,47.4,18.9,94.8,28.3,142.1,47,21,94.1,41.9,141.1,62.9,120.6-126.8,241.1-253.6,361.7-380.4,8.1-5.5,16.3-11,24.4-16.5h0Z"/>
              <path class="cls-1" d="M2619.4,2998.6l112.3-133.6c8,8.8,16.1,17.5,24.1,26.2,139.7,99.7,279.4,199.5,419.1,299.2-9.4,47.4-18.9,94.8-28.3,142.1-47,21-94.1,41.9-141.1,62.9-120.6-126.8-241.1-253.6-361.7-380.4-8.1-5.5-16.3-11-24.4-16.5h0Z"/>
            </g>
            <g>
              <path class="cls-1" d="M2785.9,3408.6l-112.3-133.6c-8,8.8-16.1,17.5-24.1,26.2-139.7,99.7-279.4,199.5-419.1,299.2,9.4,47.4,18.9,94.8,28.3,142.1,47,21,94.1,41.9,141.1,62.9,120.6-126.8,241.1-253.6,361.7-380.4,8.1-5.5,16.3-11,24.4-16.5h0Z"/>
              <path class="cls-1" d="M2655.4,3421.6l112.3-133.6c8,8.8,16.1,17.5,24.1,26.2,139.7,99.7,279.4,199.5,419.1,299.2-9.4,47.4-18.9,94.8-28.3,142.1-47,21-94.1,41.9-141.1,62.9-120.6-126.8-241.1-253.6-361.7-380.4-8.1-5.5-16.3-11-24.4-16.5h0Z"/>
            </g>
            <g>
              <path class="cls-1" d="M2596.1,2088.9c28,.7,56,1.5,84,2.2v.9c37-1.4,74-2.9,111-4.3,536.9,16.7,1073.9,33.5,1610.8,50.2,73.2-44.6,146.4-89.1,219.6-133.7-70.5-49.4-140.9-98.8-211.3-148.2-545.8,18.2-1091.5,36.4-1637.3,54.7-28.8-1.1-57.6-2.3-86.5-3.4v-.9c-37,1.9-74,3.9-111,5.8-537.1-9.5-1074.2-19-1611.3-28.5-72.6,45.6-145.2,91.1-217.8,136.7,71.1,48.5,142.2,96.9,213.3,145.4,545.5-25.6,1090.9-51.2,1636.4-76.8h0Z"/>
              <g>
                <path class="cls-1" d="M3984.5,2072.2l-133.1-112.9c8.8-8,17.6-16,26.4-24,100.4-139.2,200.7-278.5,301.1-417.7,47.3,9.6,94.7,19.3,142,28.9,20.8,47.1,41.5,94.2,62.2,141.4-127.3,120-254.6,240-382,360-5.5,8.1-11.1,16.2-16.6,24.3h0Z"/>
                <path class="cls-1" d="M3998,1941.8l-134.1,111.7c8.7,8.1,17.4,16.2,26.1,24.3,99.1,140.1,198.2,280.3,297.3,420.4,47.4-9.2,94.9-18.4,142.3-27.7,21.2-46.9,42.3-93.9,63.5-140.8-126.2-121.1-252.5-242.3-378.7-363.4-5.5-8.2-10.9-16.3-16.4-24.5h0Z"/>
                <path class="cls-1" d="M3588.5,2051.5l-133.1-112.9c8.8-8,17.6-16,26.4-24,100.4-139.2,200.7-278.5,301.1-417.7,47.3,9.6,94.7,19.3,142,28.9,20.8,47.1,41.5,94.2,62.2,141.4-127.3,120-254.6,240-382,360-5.5,8.1-11.1,16.2-16.6,24.3h0Z"/>
                <path class="cls-1" d="M3602.1,1921l-134.1,111.7c8.7,8.1,17.4,16.2,26.1,24.3,99.1,140.1,198.2,280.3,297.3,420.4,47.4-9.2,94.9-18.4,142.3-27.7,21.2-46.9,42.3-93.9,63.5-140.8-126.2-121.1-252.5-242.3-378.7-363.4-5.5-8.2-10.9-16.3-16.4-24.5h0Z"/>
              </g>
              <g>
                <path class="cls-1" d="M3167.5,2068.6l-133.1-112.9c8.8-8,17.6-16,26.4-24,100.4-139.2,200.7-278.5,301.1-417.7,47.3,9.6,94.7,19.3,142,28.9,20.8,47.1,41.5,94.2,62.2,141.4-127.3,120-254.6,240-382,360-5.5,8.1-11.1,16.2-16.6,24.3h0Z"/>
                <path class="cls-1" d="M3181,1938.1l-134.1,111.7c8.7,8.1,17.4,16.2,26.1,24.3,99.1,140.1,198.2,280.3,297.3,420.4,47.4-9.2,94.9-18.4,142.3-27.7,21.2-46.9,42.3-93.9,63.5-140.8-126.2-121.1-252.5-242.3-378.7-363.4-5.5-8.2-10.9-16.3-16.4-24.5h0Z"/>
              </g>
              <g>
                <path class="cls-1" d="M2803.4,2077l-133.1-112.9c8.8-8,17.6-16,26.4-24,100.4-139.2,200.7-278.5,301.1-417.7,47.3,9.6,94.7,19.3,142,28.9,20.8,47.1,41.5,94.2,62.2,141.4-127.3,120-254.6,240-382,360-5.5,8.1-11.1,16.2-16.6,24.3h0Z"/>
                <path class="cls-1" d="M2817,1946.5l-134.1,111.7c8.7,8.1,17.4,16.2,26.1,24.3,99.1,140.1,198.2,280.3,297.3,420.4,47.4-9.2,94.9-18.4,142.3-27.7,21.2-46.9,42.3-93.9,63.5-140.8-126.2-121.1-252.5-242.3-378.7-363.4-5.5-8.2-10.9-16.3-16.4-24.5h0Z"/>
              </g>
              <g>
                <path class="cls-1" d="M2549.7,2065.8l134.1-111.7c-8.7-8.1-17.4-16.2-26.1-24.3-99.1-140.1-198.2-280.3-297.3-420.4-47.4,9.2-94.9,18.4-142.3,27.7-21.2,46.9-42.3,93.9-63.5,140.8,126.2,121.1,252.5,242.3,378.7,363.4,5.5,8.2,10.9,16.3,16.4,24.5h0Z"/>
                <path class="cls-1" d="M2537.3,1935.3l133.1,112.9c-8.8,8-17.6,16-26.4,24-100.4,139.2-200.7,278.5-301.1,417.7-47.3-9.6-94.7-19.3-142-28.9-20.8-47.1-41.5-94.2-62.2-141.4,127.3-120,254.6-240,382-360,5.5-8.1,11.1-16.2,16.6-24.3h0Z"/>
              </g>
              <g>
                <path class="cls-1" d="M2126.7,2073.9l134.1-111.7c-8.7-8.1-17.4-16.2-26.1-24.3-99.1-140.1-198.2-280.3-297.3-420.4-47.4,9.2-94.9,18.4-142.3,27.7-21.2,46.9-42.3,93.9-63.5,140.8,126.2,121.1,252.5,242.3,378.7,363.4,5.5,8.2,10.9,16.3,16.4,24.5h0Z"/>
                <path class="cls-1" d="M2114.3,1943.4l133.1,112.9c-8.8,8-17.6,16-26.4,24-100.4,139.2-200.7,278.5-301.1,417.7-47.3-9.6-94.7-19.3-142-28.9-20.8-47.1-41.5-94.2-62.2-141.4,127.3-120,254.6-240,382-360,5.5-8.1,11.1-16.2,16.6-24.3h0Z"/>
              </g>
              <g>
                <path class="cls-1" d="M1697.7,2072l134.1-111.7c-8.7-8.1-17.4-16.2-26.1-24.3-99.1-140.1-198.2-280.3-297.3-420.4-47.4,9.2-94.9,18.4-142.3,27.7-21.2,46.9-42.3,93.9-63.5,140.8,126.2,121.1,252.5,242.3,378.7,363.4,5.5,8.2,10.9,16.3,16.4,24.5h0Z"/>
                <path class="cls-1" d="M1685.3,1941.4l133.1,112.9c-8.8,8-17.6,16-26.4,24-100.4,139.2-200.7,278.5-301.1,417.7-47.3-9.6-94.7-19.3-142-28.9-20.8-47.1-41.5-94.2-62.2-141.4,127.3-120,254.6-240,382-360,5.5-8.1,11.1-16.2,16.6-24.3h0Z"/>
              </g>
              <g>
                <path class="cls-1" d="M1274.5,2106.1l134.1-111.7c-8.7-8.1-17.4-16.2-26.1-24.3-99.1-140.1-198.2-280.3-297.3-420.4-47.4,9.2-94.9,18.4-142.3,27.7-21.2,46.9-42.3,93.9-63.5,140.8,126.2,121.1,252.5,242.3,378.7,363.4,5.5,8.2,10.9,16.3,16.4,24.5h0Z"/>
                <path class="cls-1" d="M1262.1,1975.5l133.1,112.9c-8.8,8-17.6,16-26.4,24-100.4,139.2-200.7,278.5-301.1,417.7-47.3-9.6-94.7-19.3-142-28.9-20.8-47.1-41.5-94.2-62.2-141.4,127.3-120,254.7-240,382-360,5.5-8.1,11.1-16.2,16.6-24.3h0Z"/>
              </g>
            </g>
          </g>
          <g>
            <path class="cls-1" d="M2701.6,2171.2c20.6-19,41.2-38,61.8-57l.6.6c25.5-26.8,51.1-53.6,76.6-80.4,396.8-362.1,793.7-724.1,1190.5-1086.2,21.5-83,42.9-165.9,64.4-248.9-85,13.6-169.9,27.3-254.9,40.9-378.8,393.3-757.6,786.6-1136.4,1179.9-21.5,19.3-43,38.5-64.4,57.8l-.6-.6c-25.2,27.2-50.4,54.3-75.5,81.5-391.9,367.4-783.8,734.8-1175.7,1102.2-20.3,83.3-40.7,166.5-61,249.8,84.8-14.8,169.5-29.6,254.3-44.3,373.5-398.4,746.9-796.8,1120.4-1195.1h0Z"/>
            <g>
              <path class="cls-1" d="M3685.9,1191.9l-174.1,11.8c.7-11.9,1.4-23.7,2.2-35.6-25-169.8-50-339.6-75-509.4,40.7-26.1,81.4-52.1,122.1-78.2,47.7,19.3,95.4,38.7,143.1,58-7.7,174.8-15.5,349.6-23.2,524.4,1.7,9.7,3.4,19.4,5,29h0Z"/>
              <path class="cls-1" d="M3604.8,1088.9l-18.4,173.6c11.9-.3,23.8-.5,35.6-.8,168.7,31.5,337.5,62.9,506.2,94.4,27.6-39.7,55.2-79.3,82.8-119-17.5-48.4-35-96.8-52.5-145.2-175,1.1-349.9,2.1-524.9,3.2-9.6-2-19.2-4.1-28.8-6.1h0Z"/>
              <path class="cls-1" d="M3387.4,1452.8l-174.1,11.8c.7-11.9,1.4-23.7,2.2-35.6-25-169.8-50-339.6-75-509.4,40.7-26.1,81.4-52.1,122.1-78.2,47.7,19.3,95.4,38.7,143.1,58-7.7,174.8-15.5,349.6-23.2,524.4,1.7,9.7,3.4,19.4,5,29h0Z"/>
              <path class="cls-1" d="M3306.3,1349.8l-18.4,173.6c11.9-.3,23.8-.5,35.6-.8,168.7,31.5,337.5,62.9,506.2,94.4,27.6-39.7,55.2-79.3,82.8-119-17.5-48.4-35-96.8-52.5-145.2-175,1.1-349.9,2.1-524.9,3.2-9.6-2-19.2-4.1-28.8-6.1h0Z"/>
            </g>
            <g>
              <path class="cls-1" d="M3097.3,1758.5l-174.1,11.8c.7-11.9,1.4-23.7,2.2-35.6-25-169.8-50-339.6-75-509.4,40.7-26.1,81.4-52.1,122.1-78.2,47.7,19.4,95.4,38.7,143.1,58-7.7,174.8-15.5,349.6-23.2,524.4,1.7,9.7,3.4,19.4,5,29h0Z"/>
              <path class="cls-1" d="M3016.1,1655.4l-18.4,173.6c11.9-.3,23.8-.5,35.6-.8,168.7,31.5,337.5,62.9,506.2,94.4,27.6-39.7,55.2-79.3,82.8-119-17.5-48.4-35-96.8-52.5-145.2-175,1.1-349.9,2.1-524.9,3.2-9.6-2-19.2-4.1-28.8-6.1h0Z"/>
            </g>
            <g>
              <path class="cls-1" d="M2842,2018.1l-174.1,11.8c.7-11.9,1.4-23.7,2.2-35.6-25-169.8-50-339.6-75-509.4,40.7-26.1,81.4-52.1,122.1-78.2,47.7,19.4,95.4,38.7,143.1,58-7.7,174.8-15.5,349.6-23.2,524.4,1.7,9.7,3.4,19.4,5,29h0Z"/>
              <path class="cls-1" d="M2760.8,1915.1l-18.4,173.6c11.9-.3,23.8-.5,35.6-.8,168.7,31.5,337.5,62.9,506.2,94.4,27.6-39.7,55.2-79.3,82.8-119-17.5-48.4-35-96.8-52.5-145.2-175,1.1-349.9,2.1-524.9,3.2-9.6-2-19.2-4.1-28.8-6.1h0Z"/>
            </g>
            <g>
              <path class="cls-1" d="M2652.2,2186.9l18.4-173.6c-11.9.3-23.8.5-35.6.8-168.7-31.5-337.5-62.9-506.2-94.4-27.6,39.7-55.2,79.3-82.8,119,17.5,48.4,35,96.8,52.5,145.2,175-1.1,349.9-2.1,524.9-3.2,9.6,2,19.2,4.1,28.8,6.1h0Z"/>
              <path class="cls-1" d="M2552.3,2101.8l174.1-11.8c-.7,11.9-1.4,23.7-2.2,35.6,25,169.8,50,339.6,75,509.4-40.7,26.1-81.4,52.1-122.1,78.2-47.7-19.4-95.4-38.7-143.1-58,7.7-174.8,15.5-349.6,23.2-524.4-1.7-9.7-3.4-19.4-5-29h0Z"/>
            </g>
            <g>
              <path class="cls-1" d="M2354.4,2487.4l18.4-173.6c-11.9.3-23.8.5-35.6.8-168.7-31.5-337.5-62.9-506.2-94.4-27.6,39.7-55.2,79.3-82.8,119,17.5,48.4,35,96.8,52.5,145.2,175-1.1,349.9-2.1,524.9-3.2,9.6,2,19.2,4.1,28.8,6.1h0Z"/>
              <path class="cls-1" d="M2254.5,2402.4l174.1-11.8c-.7,11.9-1.4,23.7-2.2,35.6,25,169.8,50,339.6,75,509.4-40.7,26.1-81.4,52.1-122.1,78.2-47.7-19.4-95.4-38.7-143.1-58,7.7-174.8,15.5-349.6,23.2-524.4-1.7-9.7-3.4-19.4-5-29h0Z"/>
            </g>
            <g>
              <path class="cls-1" d="M2045.3,2784.9l18.4-173.6c-11.9.3-23.8.5-35.6.8-168.7-31.5-337.5-62.9-506.2-94.4-27.6,39.7-55.2,79.3-82.8,119,17.5,48.4,35,96.8,52.5,145.2,175-1.1,349.9-2.1,524.9-3.2,9.6,2,19.2,4.1,28.8,6.1h0Z"/>
              <path class="cls-1" d="M1945.4,2699.9l174.1-11.8c-.7,11.9-1.4,23.7-2.2,35.6,25,169.8,50,339.6,75,509.4-40.7,26.1-81.4,52.1-122.1,78.2-47.7-19.4-95.4-38.7-143.1-58,7.7-174.8,15.5-349.6,23.2-524.4-1.7-9.7-3.4-19.4-5-29h0Z"/>
            </g>
            <g>
              <path class="cls-1" d="M1765.5,3104.2l18.4-173.6c-11.9.3-23.8.5-35.6.8-168.7-31.5-337.5-62.9-506.2-94.4-27.6,39.7-55.2,79.3-82.8,119,17.5,48.4,35,96.8,52.5,145.2,175-1.1,349.9-2.1,524.9-3.2,9.6,2,19.2,4.1,28.8,6.1h0Z"/>
              <path class="cls-1" d="M1665.6,3019.2l174.1-11.8c-.7,11.9-1.4,23.7-2.2,35.6,25,169.8,50,339.6,75,509.4-40.7,26.1-81.4,52.1-122.1,78.2-47.7-19.4-95.4-38.7-143.1-58,7.7-174.8,15.5-349.6,23.2-524.4-1.7-9.7-3.4-19.4-5-29h0Z"/>
            </g>
            <g>
              <path class="cls-1" d="M2584.7,2052.3c18.9,20.7,37.8,41.4,56.7,62.1l-.6.6c26.7,25.7,53.4,51.3,80.1,77,360.3,398.5,720.6,796.9,1080.9,1195.4,82.9,21.8,165.8,43.7,248.6,65.5-13.2-85-26.5-170-39.8-255.1-391.6-380.6-783.2-761.1-1174.8-1141.7-19.2-21.6-38.3-43.1-57.5-64.7l.6-.6c-27-25.3-54.1-50.6-81.1-75.9-365.6-393.6-731.3-787.1-1096.9-1180.7-83.2-20.7-166.3-41.4-249.5-62.1,14.4,84.8,28.8,169.7,43.2,254.5,396.7,375.2,793.4,750.5,1190.1,1125.7h0Z"/>
              <g>
                <path class="cls-1" d="M3559.5,3041l-11-174.2c11.9.8,23.7,1.6,35.6,2.3,169.9-24.2,339.8-48.5,509.8-72.7,25.9,40.8,51.8,81.6,77.6,122.4-19.6,47.6-39.1,95.2-58.7,142.9-174.8-8.5-349.5-17-524.2-25.6-9.7,1.6-19.4,3.3-29.1,4.9Z"/>
                <path class="cls-1" d="M3662.9,2960.3l-173.5-19.2c.2,11.9.4,23.8.6,35.6-32.2,168.6-64.5,337.2-96.7,505.8,39.5,27.8,79.1,55.5,118.6,83.3,48.5-17.3,97-34.6,145.5-51.9-.3-175-.5-349.9-.8-524.9,2.1-9.6,4.2-19.2,6.3-28.8h0Z"/>
                <path class="cls-1" d="M3299.9,2741.3l-11-174.2c11.9.8,23.7,1.6,35.6,2.3,169.9-24.2,339.8-48.5,509.8-72.7,25.9,40.8,51.8,81.6,77.6,122.4-19.6,47.6-39.1,95.2-58.7,142.9-174.8-8.5-349.5-17-524.2-25.6-9.7,1.6-19.4,3.3-29.1,4.9Z"/>
                <path class="cls-1" d="M3403.3,2660.7l-173.5-19.2c.2,11.9.4,23.8.6,35.6-32.2,168.6-64.5,337.2-96.7,505.8,39.5,27.8,79.1,55.5,118.6,83.3,48.5-17.3,97-34.6,145.5-51.9-.3-175-.5-349.9-.8-524.9,2.1-9.6,4.2-19.2,6.3-28.8h0Z"/>
              </g>
              <g>
                <path class="cls-1" d="M2995.6,2449.8l-11-174.2c11.9.8,23.7,1.6,35.6,2.3,169.9-24.2,339.8-48.5,509.8-72.7,25.9,40.8,51.8,81.6,77.6,122.4-19.6,47.6-39.1,95.2-58.7,142.9-174.8-8.5-349.5-17-524.2-25.6-9.7,1.6-19.4,3.3-29.1,4.9h0Z"/>
                <path class="cls-1" d="M3099,2369.1l-173.5-19.2c.2,11.9.4,23.8.6,35.6-32.2,168.6-64.5,337.2-96.7,505.8,39.5,27.8,79.1,55.5,118.6,83.3,48.5-17.3,97-34.6,145.5-51.9-.3-175-.5-349.9-.8-524.9,2.1-9.6,4.2-19.2,6.3-28.8h0Z"/>
              </g>
              <g>
                <path class="cls-1" d="M2737.1,2193.3l-11-174.2c11.9.8,23.7,1.6,35.6,2.3,169.9-24.2,339.8-48.5,509.8-72.7,25.9,40.8,51.8,81.6,77.6,122.4-19.6,47.6-39.1,95.2-58.7,142.9-174.8-8.5-349.5-17-524.2-25.6-9.7,1.6-19.4,3.3-29.1,4.9h0Z"/>
                <path class="cls-1" d="M2840.5,2112.7l-173.5-19.2c.2,11.9.4,23.8.6,35.6-32.2,168.6-64.5,337.2-96.7,505.8,39.5,27.8,79.1,55.5,118.6,83.3,48.5-17.3,97-34.6,145.5-51.9-.3-175-.5-349.9-.8-524.9,2.1-9.6,4.2-19.2,6.3-28.8h0Z"/>
              </g>
              <g>
                <path class="cls-1" d="M2569.2,2002.8l173.5,19.2c-.2-11.9-.4-23.8-.6-35.6,32.2-168.6,64.5-337.2,96.7-505.8-39.5-27.8-79.1-55.5-118.6-83.3-48.5,17.3-97,34.6-145.5,51.9.3,175,.5,349.9.8,524.9-2.1,9.6-4.2,19.2-6.3,28.8h0Z"/>
                <path class="cls-1" d="M2654.6,1903.3l11,174.2c-11.9-.8-23.7-1.6-35.6-2.3-169.9,24.2-339.8,48.5-509.8,72.7-25.9-40.8-51.8-81.6-77.6-122.4,19.6-47.6,39.1-95.2,58.7-142.9,174.8,8.5,349.5,17,524.2,25.6,9.7-1.6,19.4-3.3,29.1-4.9h0Z"/>
              </g>
              <g>
                <path class="cls-1" d="M2270,1703.7l173.5,19.2c-.2-11.9-.4-23.8-.6-35.6,32.2-168.6,64.5-337.2,96.7-505.8-39.5-27.8-79.1-55.5-118.6-83.3-48.5,17.3-97,34.6-145.5,51.9.3,175,.5,349.9.8,524.9-2.1,9.6-4.2,19.2-6.3,28.8h0Z"/>
                <path class="cls-1" d="M2355.4,1604.2l11,174.2c-11.9-.8-23.7-1.6-35.6-2.3-169.9,24.2-339.8,48.5-509.8,72.7-25.9-40.8-51.8-81.6-77.6-122.4,19.6-47.6,39.1-95.2,58.7-142.9,174.8,8.5,349.5,17,524.2,25.6,9.7-1.6,19.4-3.3,29.1-4.9h0Z"/>
              </g>
              <g>
                <path class="cls-1" d="M1973.9,1393.2l173.5,19.2c-.2-11.9-.4-23.8-.6-35.6,32.2-168.6,64.5-337.2,96.7-505.8-39.5-27.8-79.1-55.5-118.6-83.3-48.5,17.3-97,34.6-145.5,51.9.3,175,.5,349.9.8,524.9-2.1,9.6-4.2,19.2-6.3,28.8h0Z"/>
                <path class="cls-1" d="M2059.3,1293.8l11,174.2c-11.9-.8-23.7-1.6-35.6-2.3-169.9,24.2-339.8,48.5-509.8,72.7-25.9-40.8-51.8-81.6-77.6-122.4,19.6-47.6,39.1-95.2,58.7-142.9,174.8,8.5,349.5,17,524.2,25.6,9.7-1.6,19.4-3.3,29.1-4.9h0Z"/>
              </g>
              <g>
                <path class="cls-1" d="M1655.9,1112l173.5,19.2c-.2-11.9-.4-23.8-.6-35.6,32.2-168.6,64.5-337.2,96.7-505.8-39.5-27.8-79.1-55.5-118.6-83.3-48.5,17.3-97,34.6-145.5,51.9.3,175,.5,349.9.8,524.9-2.1,9.6-4.2,19.2-6.3,28.8h0Z"/>
                <path class="cls-1" d="M1741.3,1012.5l11,174.2c-11.9-.8-23.7-1.6-35.6-2.3-169.9,24.2-339.8,48.5-509.8,72.7-25.9-40.8-51.8-81.6-77.6-122.4,19.6-47.6,39.1-95.2,58.7-142.9,174.8,8.5,349.5,17,524.2,25.6,9.7-1.6,19.4-3.3,29.1-4.9h0Z"/>
              </g>
            </g>
          </g>
        </g>
      </g>
    </g>
  </g>
</svg>