<?xml version="1.0" encoding="UTF-8"?>
<svg xmlns="http://www.w3.org/2000/svg" version="1.1" viewBox="0 0 3982.1 4003.4">
  <defs>
    <style>
      .cls-1 {
        fill: #fff;
      }
    </style>
  </defs>
  <!-- Generator: Adobe Illustrator 28.7.1, SVG Export Plug-In . SVG Version: 1.2.0 Build 142)  -->
  <g>
    <g id="Layer_1">
      <g id="Layer_1-2" data-name="Layer_1">
        <g>
          <g>
            <path class="cls-1" d="M2087.2,2066c.6-28,1.2-56,1.8-84h.9l-4.8-111c14.3-537,28.7-1074,43-1611-44.9-73-89.8-146-134.7-219-49.1,70.7-98.2,141.3-147.3,212,20.7,545.7,41.3,1091.3,62,1637l-3,86.5h-.9c2.1,37,4.2,74,6.3,110.9-7.1,537.1-14.2,1074.3-21.2,1611.4,45.9,72.4,91.8,144.8,137.7,217.2,48.1-71.3,96.3-142.6,144.4-214-28-545.3-56.1-1090.7-84.1-1636h0Z"/>
            <g>
              <path class="cls-1" d="M2064.2,677.7l-112.3,133.6c-8-8.8-16.1-17.5-24.2-26.2-139.7-99.7-279.4-199.5-419.1-299.2,9.4-47.4,18.9-94.8,28.3-142.2,47-21,94.1-41.9,141.1-62.9,120.6,126.8,241.1,253.6,361.7,380.4,8.1,5.5,16.3,11,24.4,16.5h0Z"/>
              <path class="cls-1" d="M1933.7,664.7l112.3,133.6c8-8.8,16.1-17.5,24.2-26.2,139.7-99.7,279.4-199.5,419.1-299.2-9.4-47.4-18.9-94.8-28.3-142.2-47-21-94.1-41.9-141.1-62.9-120.6,126.8-241.1,253.6-361.7,380.4-8.1,5.5-16.3,11-24.4,16.5h0Z"/>
              <path class="cls-1" d="M2045.2,1073.7l-112.3,133.6c-8-8.8-16.1-17.5-24.2-26.2-139.7-99.7-279.4-199.5-419.1-299.2,9.4-47.4,18.9-94.8,28.3-142.2,47-21,94.1-41.9,141.1-62.9,120.6,126.8,241.1,253.6,361.7,380.4,8.1,5.5,16.3,11,24.4,16.5h0Z"/>
              <path class="cls-1" d="M1914.7,1060.7l112.3,133.6c8-8.8,16.1-17.5,24.2-26.2,139.7-99.7,279.4-199.5,419.1-299.2-9.4-47.4-18.9-94.8-28.3-142.2-47-21-94.1-41.9-141.1-62.9-120.6,126.8-241.1,253.6-361.7,380.4-8.1,5.5-16.3,11-24.4,16.5h0Z"/>
            </g>
            <g>
              <path class="cls-1" d="M2064.2,1494.7l-112.3,133.6c-8-8.8-16.1-17.5-24.2-26.2-139.7-99.7-279.4-199.5-419.1-299.2,9.4-47.4,18.9-94.8,28.3-142.1,47-21,94.1-41.9,141.1-62.9,120.6,126.8,241.1,253.6,361.7,380.4,8.1,5.5,16.3,11,24.4,16.5h0Z"/>
              <path class="cls-1" d="M1933.7,1481.7l112.3,133.6c8-8.8,16.1-17.5,24.2-26.2,139.7-99.7,279.4-199.5,419.1-299.2-9.4-47.4-18.9-94.8-28.3-142.1-47-21-94.1-41.9-141.1-62.9-120.6,126.8-241.1,253.6-361.7,380.4-8.1,5.5-16.3,11-24.4,16.5h0Z"/>
            </g>
            <g>
              <path class="cls-1" d="M2074.2,1858.7l-112.3,133.6c-8-8.8-16.1-17.5-24.2-26.2-139.7-99.7-279.4-199.5-419.1-299.2,9.4-47.4,18.9-94.8,28.3-142.1,47-21,94.1-41.9,141.1-62.9,120.6,126.8,241.1,253.6,361.7,380.3,8.1,5.5,16.3,11,24.4,16.5Z"/>
              <path class="cls-1" d="M1943.7,1845.7l112.3,133.6c8-8.8,16.1-17.5,24.2-26.2,139.7-99.7,279.4-199.5,419.1-299.2-9.4-47.4-18.9-94.8-28.3-142.1-47-21-94.1-41.9-141.1-62.9-120.6,126.8-241.1,253.6-361.7,380.4-8.1,5.5-16.3,11-24.4,16.5h0Z"/>
            </g>
            <g>
              <path class="cls-1" d="M2064.2,2112.4l-112.3-133.6c-8,8.8-16.1,17.5-24.2,26.2-139.7,99.7-279.4,199.5-419.1,299.2,9.4,47.4,18.9,94.8,28.3,142.2,47,21,94.1,41.9,141.1,62.9,120.6-126.8,241.1-253.6,361.7-380.4,8.1-5.5,16.3-11,24.4-16.5h0Z"/>
              <path class="cls-1" d="M1933.7,2125.4l112.3-133.6c8,8.8,16.1,17.5,24.2,26.2,139.7,99.7,279.4,199.5,419.1,299.2-9.4,47.4-18.9,94.8-28.3,142.2-47,21-94.1,41.9-141.1,62.9-120.6-126.8-241.1-253.6-361.7-380.4-8.1-5.5-16.3-11-24.4-16.5h0Z"/>
            </g>
            <g>
              <path class="cls-1" d="M2074.2,2535.4l-112.3-133.6c-8,8.8-16.1,17.5-24.2,26.2-139.7,99.7-279.4,199.5-419.1,299.2,9.4,47.4,18.9,94.8,28.3,142.2,47,21,94.1,41.9,141.1,62.9,120.6-126.8,241.1-253.6,361.7-380.4,8.1-5.5,16.3-11,24.4-16.5h0Z"/>
              <path class="cls-1" d="M1943.7,2548.4l112.3-133.6c8,8.8,16.1,17.5,24.2,26.2,139.7,99.7,279.4,199.5,419.1,299.2-9.4,47.4-18.9,94.8-28.3,142.2-47,21-94.1,41.9-141.1,62.9-120.6-126.8-241.1-253.6-361.7-380.4-8.1-5.5-16.3-11-24.4-16.5h0Z"/>
            </g>
            <g>
              <path class="cls-1" d="M2074.2,2964.4l-112.3-133.6c-8,8.8-16.1,17.5-24.2,26.2-139.7,99.7-279.4,199.5-419.1,299.2,9.4,47.4,18.9,94.8,28.3,142.2,47,21,94.1,41.9,141.1,62.9,120.6-126.8,241.1-253.6,361.7-380.4,8.1-5.5,16.3-11,24.4-16.5h0Z"/>
              <path class="cls-1" d="M1943.7,2977.4l112.3-133.6c8,8.8,16.1,17.5,24.2,26.2,139.7,99.7,279.4,199.5,419.1,299.2-9.4,47.4-18.9,94.8-28.3,142.2-47,21-94.1,41.9-141.1,62.9-120.6-126.8-241.1-253.6-361.7-380.4-8.1-5.5-16.3-11-24.4-16.5h0Z"/>
            </g>
            <g>
              <path class="cls-1" d="M2110.2,3387.4l-112.3-133.6c-8,8.8-16.1,17.5-24.2,26.2-139.7,99.7-279.4,199.5-419.1,299.2,9.4,47.4,18.9,94.8,28.3,142.2l141.1,62.9c120.6-126.8,241.1-253.6,361.7-380.4,8.1-5.5,16.3-11,24.4-16.5h0Z"/>
              <path class="cls-1" d="M1979.7,3400.4l112.3-133.6c8,8.8,16.1,17.5,24.2,26.2,139.7,99.7,279.4,199.5,419.1,299.2-9.4,47.4-18.9,94.8-28.3,142.2-47,21-94.1,41.9-141.1,62.9-120.6-126.8-241.1-253.6-361.7-380.4-8.1-5.5-16.3-11-24.4-16.5h0Z"/>
            </g>
            <g>
              <path class="cls-1" d="M1920.4,2067.8c28,.7,56,1.5,84,2.2v.9c37-1.4,74-2.9,111-4.3,536.9,16.7,1073.9,33.5,1610.8,50.2,73.2-44.6,146.4-89.1,219.6-133.7-70.4-49.4-140.9-98.8-211.3-148.2-545.8,18.2-1091.5,36.4-1637.3,54.7-28.8-1.1-57.7-2.3-86.5-3.4v-.9c-37,1.9-74,3.9-111,5.8-537.1-9.5-1074.2-19-1611.3-28.5-72.6,45.6-145.2,91.1-217.8,136.7,71.1,48.5,142.2,96.9,213.3,145.4,545.5-25.6,1090.9-51.2,1636.4-76.8h0Z"/>
              <g>
                <path class="cls-1" d="M3308.8,2051.1l-133.1-112.9c8.8-8,17.6-16,26.3-24,100.4-139.2,200.7-278.5,301.1-417.7,47.3,9.7,94.7,19.3,142,28.9,20.8,47.1,41.5,94.2,62.2,141.4-127.3,120-254.6,240-382,360-5.5,8.1-11.1,16.2-16.6,24.3h0Z"/>
                <path class="cls-1" d="M3322.4,1920.6l-134.1,111.7c8.7,8.1,17.4,16.2,26.1,24.3,99.1,140.1,198.2,280.3,297.3,420.4,47.4-9.2,94.9-18.5,142.3-27.7,21.2-46.9,42.3-93.9,63.5-140.8-126.2-121.1-252.5-242.3-378.7-363.4-5.5-8.2-10.9-16.3-16.4-24.5h0Z"/>
                <path class="cls-1" d="M2912.9,2030.3l-133.1-112.9c8.8-8,17.6-16,26.3-24,100.4-139.2,200.7-278.5,301.1-417.7,47.3,9.7,94.7,19.3,142,28.9,20.8,47.1,41.5,94.2,62.2,141.4-127.3,120-254.7,240-382,360-5.5,8.1-11.1,16.2-16.6,24.3h0Z"/>
                <path class="cls-1" d="M2926.5,1899.8l-134.1,111.7c8.7,8.1,17.4,16.2,26.1,24.3,99.1,140.1,198.2,280.3,297.3,420.4,47.4-9.2,94.8-18.5,142.3-27.7,21.2-46.9,42.3-93.9,63.5-140.8-126.2-121.1-252.5-242.3-378.7-363.4-5.5-8.2-10.9-16.3-16.4-24.5h0Z"/>
              </g>
              <g>
                <path class="cls-1" d="M2491.8,2047.4l-133.1-112.9c8.8-8,17.6-16,26.3-24,100.4-139.2,200.7-278.5,301.1-417.7,47.3,9.7,94.7,19.3,142,28.9,20.8,47.1,41.5,94.2,62.2,141.4-127.3,120-254.7,240-382,360-5.5,8.1-11.1,16.2-16.6,24.3h0Z"/>
                <path class="cls-1" d="M2505.4,1917l-134.1,111.7c8.7,8.1,17.4,16.2,26.1,24.3,99.1,140.1,198.2,280.3,297.3,420.4,47.4-9.2,94.8-18.5,142.3-27.7,21.2-46.9,42.3-93.9,63.5-140.8-126.2-121.1-252.5-242.3-378.7-363.4-5.5-8.2-10.9-16.3-16.4-24.5h0Z"/>
              </g>
              <g>
                <path class="cls-1" d="M2127.8,2055.8l-133.1-112.9c8.8-8,17.6-16,26.3-24,100.4-139.2,200.7-278.5,301.1-417.7,47.3,9.7,94.7,19.3,142,29,20.8,47.1,41.5,94.2,62.2,141.4-127.3,120-254.7,240-382,360-5.5,8.1-11.1,16.2-16.6,24.3h0Z"/>
                <path class="cls-1" d="M2141.4,1925.3l-134.1,111.7c8.7,8.1,17.4,16.2,26.1,24.3,99.1,140.1,198.2,280.3,297.3,420.4,47.4-9.2,94.8-18.5,142.3-27.7,21.2-46.9,42.3-93.9,63.5-140.8-126.2-121.1-252.5-242.3-378.7-363.4-5.5-8.2-10.9-16.3-16.4-24.5h0Z"/>
              </g>
              <g>
                <path class="cls-1" d="M1874.1,2044.6l134.1-111.7c-8.7-8.1-17.4-16.2-26.1-24.3-99.1-140.1-198.2-280.3-297.3-420.4-47.4,9.2-94.9,18.4-142.3,27.7-21.2,46.9-42.3,93.9-63.5,140.8,126.2,121.1,252.5,242.3,378.7,363.4,5.5,8.2,10.9,16.3,16.4,24.5h0Z"/>
                <path class="cls-1" d="M1861.7,1914.1l133.1,112.9c-8.8,8-17.6,16-26.3,24-100.4,139.2-200.7,278.5-301.1,417.7-47.3-9.7-94.7-19.3-142-29-20.8-47.1-41.5-94.2-62.2-141.4,127.3-120,254.6-240,382-360,5.5-8.1,11.1-16.2,16.6-24.3h0Z"/>
              </g>
              <g>
                <path class="cls-1" d="M1451,2052.7l134.1-111.7c-8.7-8.1-17.4-16.2-26.1-24.3-99.1-140.1-198.2-280.3-297.3-420.4-47.4,9.2-94.8,18.4-142.3,27.7-21.2,46.9-42.3,93.9-63.5,140.8,126.2,121.1,252.5,242.3,378.7,363.4l16.4,24.5h0Z"/>
                <path class="cls-1" d="M1438.6,1922.2l133.1,112.9c-8.8,8-17.6,16-26.4,24-100.4,139.2-200.7,278.5-301.1,417.7-47.3-9.7-94.7-19.3-142-29-20.8-47.1-41.5-94.2-62.2-141.4,127.3-120,254.6-240,382-360,5.5-8.1,11.1-16.2,16.6-24.3h0Z"/>
              </g>
              <g>
                <path class="cls-1" d="M1022.1,2050.8l134.1-111.7c-8.7-8.1-17.4-16.2-26.1-24.3-99.1-140.1-198.2-280.3-297.3-420.4-47.4,9.2-94.9,18.4-142.3,27.7-21.2,46.9-42.3,93.9-63.5,140.8,126.2,121.1,252.5,242.3,378.7,363.4l16.4,24.5h0Z"/>
                <path class="cls-1" d="M1009.6,1920.2l133.1,112.9c-8.8,8-17.6,16-26.4,24-100.4,139.2-200.7,278.5-301.1,417.7-47.3-9.7-94.7-19.3-142-29-20.8-47.1-41.5-94.2-62.2-141.4,127.3-120,254.6-240,382-360,5.5-8.1,11.1-16.2,16.6-24.3h0Z"/>
              </g>
              <g>
                <path class="cls-1" d="M598.9,2084.9l134.1-111.7c-8.7-8.1-17.4-16.2-26.1-24.3-99.1-140.1-198.2-280.3-297.3-420.4-47.4,9.2-94.8,18.5-142.3,27.7-21.2,46.9-42.3,93.9-63.5,140.8,126.2,121.1,252.5,242.3,378.7,363.4,5.5,8.2,10.9,16.3,16.4,24.5h0Z"/>
                <path class="cls-1" d="M586.5,1954.4l133.1,112.9c-8.8,8-17.6,16-26.3,24-100.4,139.2-200.7,278.5-301.1,417.7-47.3-9.7-94.7-19.3-142-29-20.8-47.1-41.5-94.2-62.2-141.4,127.3-120,254.7-240,382-360,5.5-8.1,11.1-16.2,16.6-24.3h0Z"/>
              </g>
            </g>
          </g>
          <g>
            <path class="cls-1" d="M2025.9,2150c20.6-19,41.2-38,61.8-57l.6.6c25.5-26.8,51.1-53.6,76.6-80.4,396.8-362.1,793.7-724.2,1190.5-1086.2,21.5-83,42.9-166,64.4-248.9-85,13.6-169.9,27.3-254.9,40.9-378.8,393.3-757.6,786.6-1136.4,1179.9-21.5,19.3-43,38.5-64.4,57.8l-.6-.6c-25.2,27.2-50.3,54.3-75.5,81.5-391.9,367.4-783.8,734.8-1175.7,1102.2-20.3,83.3-40.7,166.5-61,249.8,84.8-14.8,169.5-29.6,254.3-44.3,373.5-398.4,746.9-796.8,1120.4-1195.1Z"/>
            <g>
              <path class="cls-1" d="M3010.3,1170.7l-174.2,11.8c.7-11.9,1.4-23.7,2.2-35.6-25-169.8-50-339.6-75-509.4,40.7-26.1,81.4-52.1,122.1-78.2,47.7,19.3,95.4,38.7,143.1,58-7.7,174.8-15.5,349.6-23.2,524.4,1.7,9.7,3.3,19.4,5,29h0Z"/>
              <path class="cls-1" d="M2929.1,1067.7l-18.4,173.6c11.9-.3,23.8-.5,35.7-.8,168.7,31.5,337.5,63,506.2,94.4,27.6-39.7,55.2-79.3,82.8-119-17.5-48.4-35-96.8-52.5-145.2-175,1.1-349.9,2.1-524.9,3.2-9.6-2-19.2-4.1-28.8-6.1h0Z"/>
              <path class="cls-1" d="M2711.8,1431.6l-174.2,11.8c.7-11.9,1.4-23.7,2.2-35.6-25-169.8-50-339.6-75-509.4,40.7-26.1,81.4-52.1,122.1-78.2,47.7,19.3,95.4,38.7,143.1,58-7.7,174.8-15.5,349.6-23.2,524.4,1.7,9.7,3.3,19.4,5,29h0Z"/>
              <path class="cls-1" d="M2630.7,1328.6l-18.4,173.6c11.9-.3,23.8-.5,35.7-.8,168.7,31.5,337.5,63,506.2,94.4,27.6-39.7,55.2-79.3,82.8-119-17.5-48.4-35-96.8-52.5-145.2-175,1.1-349.9,2.1-524.9,3.2-9.6-2-19.2-4.1-28.8-6.1h0Z"/>
            </g>
            <g>
              <path class="cls-1" d="M2421.6,1737.3l-174.2,11.8c.7-11.9,1.4-23.7,2.2-35.6-25-169.8-50-339.6-75-509.4,40.7-26.1,81.4-52.1,122.1-78.2,47.7,19.4,95.4,38.7,143.1,58-7.7,174.8-15.5,349.6-23.2,524.4,1.7,9.7,3.3,19.4,5,29h0Z"/>
              <path class="cls-1" d="M2340.5,1634.2l-18.4,173.6c11.9-.3,23.8-.5,35.6-.8,168.7,31.5,337.5,62.9,506.2,94.4,27.6-39.7,55.2-79.3,82.8-119-17.5-48.4-35-96.8-52.5-145.2-175,1.1-349.9,2.1-524.9,3.2-9.6-2-19.2-4.1-28.8-6.1h0Z"/>
            </g>
            <g>
              <path class="cls-1" d="M2166.3,1996.9l-174.2,11.8c.7-11.9,1.4-23.7,2.2-35.6-25-169.8-50-339.6-75-509.4,40.7-26.1,81.4-52.1,122.1-78.2,47.7,19.4,95.4,38.7,143.1,58-7.7,174.8-15.5,349.6-23.2,524.4,1.7,9.7,3.3,19.4,5,29h0Z"/>
              <path class="cls-1" d="M2085.2,1893.9l-18.4,173.6c11.9-.3,23.8-.5,35.7-.8,168.7,31.5,337.5,62.9,506.2,94.4,27.6-39.7,55.2-79.3,82.8-119-17.5-48.4-35-96.8-52.5-145.2-175,1.1-349.9,2.1-524.9,3.2-9.6-2-19.2-4.1-28.8-6.1h0Z"/>
            </g>
            <g>
              <path class="cls-1" d="M1976.6,2165.7l18.4-173.6c-11.9.3-23.8.5-35.7.8-168.7-31.5-337.5-63-506.2-94.4-27.6,39.7-55.2,79.3-82.8,119,17.5,48.4,35,96.8,52.5,145.2,175-1.1,349.9-2.1,524.9-3.2,9.6,2,19.2,4.1,28.8,6.1h0Z"/>
              <path class="cls-1" d="M1876.7,2080.7l174.2-11.8c-.7,11.9-1.4,23.7-2.2,35.6,25,169.8,50,339.6,75,509.4-40.7,26.1-81.4,52.1-122.1,78.2-47.7-19.3-95.4-38.7-143.1-58,7.7-174.8,15.5-349.6,23.2-524.4-1.7-9.7-3.3-19.4-5-29h0Z"/>
            </g>
            <g>
              <path class="cls-1" d="M1678.7,2466.2l18.4-173.6c-11.9.3-23.8.5-35.6.8-168.7-31.5-337.5-63-506.2-94.4-27.6,39.7-55.2,79.3-82.8,119,17.5,48.4,35,96.8,52.5,145.2,175-1.1,349.9-2.1,524.9-3.2,9.6,2,19.2,4.1,28.8,6.1h0Z"/>
              <path class="cls-1" d="M1578.9,2381.2l174.1-11.8c-.7,11.9-1.4,23.7-2.2,35.6,25,169.8,50,339.6,75,509.4-40.7,26.1-81.4,52.1-122.1,78.2-47.7-19.3-95.4-38.7-143.1-58,7.7-174.8,15.5-349.6,23.2-524.4-1.7-9.7-3.4-19.4-5-29h0Z"/>
            </g>
            <g>
              <path class="cls-1" d="M1369.7,2763.7l18.4-173.6c-11.9.3-23.8.5-35.7.8-168.7-31.5-337.5-63-506.2-94.4-27.6,39.7-55.2,79.3-82.8,119,17.5,48.4,35,96.8,52.5,145.3,175-1.1,349.9-2.1,524.9-3.2,9.6,2,19.2,4.1,28.8,6.1h0Z"/>
              <path class="cls-1" d="M1269.8,2678.7l174.1-11.8c-.7,11.9-1.4,23.7-2.2,35.6,25,169.8,50,339.6,75,509.4-40.7,26.1-81.4,52.1-122.1,78.2-47.7-19.3-95.4-38.7-143.1-58,7.7-174.8,15.5-349.6,23.2-524.4-1.7-9.7-3.3-19.4-5-29h0Z"/>
            </g>
            <g>
              <path class="cls-1" d="M1089.9,3083l18.4-173.6c-11.9.3-23.8.5-35.6.8-168.7-31.5-337.5-62.9-506.2-94.4-27.6,39.7-55.2,79.3-82.8,119,17.5,48.4,35,96.8,52.5,145.2,175-1.1,349.9-2.1,524.9-3.2,9.6,2,19.2,4.1,28.8,6.1h0Z"/>
              <path class="cls-1" d="M990,2998l174.1-11.8c-.7,11.9-1.4,23.7-2.2,35.6,25,169.8,50,339.6,75,509.4-40.7,26.1-81.4,52.1-122.1,78.2-47.7-19.3-95.4-38.7-143.1-58,7.7-174.8,15.5-349.6,23.2-524.4-1.7-9.7-3.4-19.4-5-29h0Z"/>
            </g>
            <g>
              <path class="cls-1" d="M1909,2031.1c18.9,20.7,37.8,41.4,56.7,62.1l-.6.6c26.7,25.7,53.4,51.3,80.1,77,360.3,398.5,720.6,796.9,1080.9,1195.4,82.9,21.8,165.8,43.7,248.6,65.5-13.2-85-26.5-170-39.8-255.1-391.6-380.6-783.2-761.1-1174.8-1141.7-19.2-21.6-38.3-43.1-57.5-64.7l.6-.6c-27-25.3-54.1-50.6-81.1-75.9-365.6-393.6-731.3-787.1-1096.9-1180.7-83.2-20.7-166.3-41.4-249.5-62.1,14.4,84.8,28.8,169.7,43.2,254.5,396.7,375.2,793.4,750.5,1190.1,1125.7Z"/>
              <g>
                <path class="cls-1" d="M2883.9,3019.8l-11-174.2c11.9.8,23.7,1.6,35.6,2.3,169.9-24.2,339.8-48.5,509.8-72.7,25.9,40.8,51.8,81.6,77.6,122.4-19.6,47.6-39.1,95.2-58.7,142.9-174.8-8.5-349.5-17-524.2-25.6-9.7,1.6-19.4,3.3-29.1,4.9h0Z"/>
                <path class="cls-1" d="M2987.3,2939.1l-173.5-19.2c.2,11.9.4,23.8.6,35.7-32.2,168.6-64.5,337.2-96.7,505.8,39.5,27.8,79.1,55.5,118.6,83.3,48.5-17.3,97-34.6,145.5-51.9-.3-175-.6-349.9-.8-524.9,2.1-9.6,4.2-19.2,6.3-28.8h0Z"/>
                <path class="cls-1" d="M2624.3,2720.1l-11-174.2c11.9.8,23.7,1.5,35.6,2.3,169.9-24.2,339.8-48.5,509.8-72.7,25.9,40.8,51.8,81.6,77.6,122.4-19.6,47.6-39.1,95.2-58.7,142.9-174.8-8.5-349.5-17-524.2-25.6-9.7,1.6-19.4,3.3-29.1,4.9h0Z"/>
                <path class="cls-1" d="M2727.7,2639.5l-173.5-19.2c.2,11.9.4,23.8.6,35.7-32.2,168.6-64.5,337.2-96.7,505.8,39.5,27.8,79.1,55.5,118.6,83.3,48.5-17.3,97-34.6,145.5-51.9-.3-175-.6-349.9-.8-524.9,2.1-9.6,4.2-19.2,6.3-28.8h0Z"/>
              </g>
              <g>
                <path class="cls-1" d="M2319.9,2428.6l-11-174.2c11.9.8,23.7,1.5,35.6,2.3,169.9-24.2,339.8-48.5,509.8-72.7,25.9,40.8,51.8,81.6,77.6,122.4-19.6,47.6-39.1,95.2-58.7,142.9-174.8-8.5-349.5-17-524.2-25.6-9.7,1.6-19.4,3.3-29.1,4.9h0Z"/>
                <path class="cls-1" d="M2423.3,2348l-173.5-19.2c.2,11.9.4,23.8.6,35.7-32.2,168.6-64.5,337.2-96.7,505.8,39.5,27.8,79.1,55.5,118.6,83.3,48.5-17.3,97-34.6,145.5-51.9-.3-175-.6-349.9-.8-524.9,2.1-9.6,4.2-19.2,6.3-28.8h0Z"/>
              </g>
              <g>
                <path class="cls-1" d="M2061.5,2172.2l-11-174.2c11.9.8,23.7,1.5,35.6,2.3,169.9-24.2,339.8-48.5,509.8-72.7,25.9,40.8,51.8,81.6,77.6,122.4-19.6,47.6-39.1,95.2-58.7,142.9-174.8-8.5-349.5-17-524.2-25.6-9.7,1.6-19.4,3.3-29.1,4.9h0Z"/>
                <path class="cls-1" d="M2164.9,2091.5l-173.5-19.2c.2,11.9.4,23.8.6,35.7-32.2,168.6-64.5,337.2-96.7,505.8,39.5,27.8,79.1,55.5,118.6,83.3,48.5-17.3,97-34.6,145.5-51.9-.3-175-.5-349.9-.8-524.9,2.1-9.6,4.2-19.2,6.3-28.8h0Z"/>
              </g>
              <g>
                <path class="cls-1" d="M1893.6,1981.6l173.5,19.2c-.2-11.9-.4-23.8-.6-35.6,32.2-168.6,64.5-337.2,96.7-505.8-39.5-27.8-79.1-55.5-118.6-83.3-48.5,17.3-97,34.6-145.5,51.9.3,175,.5,349.9.8,524.9-2.1,9.6-4.2,19.2-6.3,28.8h0Z"/>
                <path class="cls-1" d="M1979,1882.2l11,174.2c-11.9-.8-23.7-1.5-35.6-2.3-169.9,24.2-339.8,48.5-509.8,72.7-25.9-40.8-51.8-81.6-77.6-122.4,19.6-47.6,39.1-95.2,58.7-142.9,174.8,8.5,349.5,17,524.2,25.6,9.7-1.6,19.4-3.3,29.1-4.9h0Z"/>
              </g>
              <g>
                <path class="cls-1" d="M1594.3,1682.5l173.5,19.2c-.2-11.9-.4-23.8-.6-35.7,32.2-168.6,64.5-337.2,96.7-505.8-39.5-27.8-79.1-55.5-118.6-83.3-48.5,17.3-97,34.6-145.5,51.9.3,175,.5,349.9.8,524.9-2.1,9.6-4.2,19.2-6.3,28.8h0Z"/>
                <path class="cls-1" d="M1679.8,1583l11,174.2c-11.9-.8-23.7-1.6-35.6-2.3-169.9,24.2-339.8,48.5-509.8,72.7-25.9-40.8-51.8-81.6-77.6-122.4,19.6-47.6,39.1-95.2,58.7-142.9,174.7,8.5,349.5,17.1,524.2,25.6,9.7-1.6,19.4-3.3,29.1-4.9Z"/>
              </g>
              <g>
                <path class="cls-1" d="M1298.2,1372.1l173.5,19.2c-.2-11.9-.4-23.8-.6-35.7,32.2-168.6,64.5-337.2,96.7-505.8-39.5-27.8-79.1-55.5-118.6-83.3-48.5,17.3-97,34.6-145.5,51.9.3,175,.5,349.9.8,524.9-2.1,9.6-4.2,19.2-6.3,28.8h0Z"/>
                <path class="cls-1" d="M1383.7,1272.6l11,174.2c-11.9-.8-23.7-1.6-35.6-2.3-169.9,24.2-339.8,48.5-509.8,72.7-25.9-40.8-51.7-81.6-77.6-122.4,19.6-47.6,39.1-95.2,58.7-142.9,174.8,8.5,349.5,17,524.2,25.6,9.7-1.6,19.4-3.3,29.1-4.9h0Z"/>
              </g>
              <g>
                <path class="cls-1" d="M980.2,1090.8l173.5,19.2c-.2-11.9-.4-23.8-.6-35.6,32.2-168.6,64.5-337.2,96.7-505.8-39.5-27.8-79.1-55.5-118.6-83.3-48.5,17.3-97,34.6-145.5,51.9.3,175,.5,349.9.8,524.9-2.1,9.6-4.2,19.2-6.3,28.8h0Z"/>
                <path class="cls-1" d="M1065.7,991.3l11,174.2c-11.9-.8-23.7-1.5-35.6-2.3-169.9,24.2-339.8,48.5-509.8,72.7-25.9-40.8-51.8-81.6-77.6-122.4,19.6-47.6,39.1-95.3,58.7-142.9,174.8,8.5,349.5,17,524.2,25.6,9.7-1.6,19.4-3.3,29.1-4.9h0Z"/>
              </g>
            </g>
          </g>
        </g>
      </g>
    </g>
  </g>
</svg>