<?xml version="1.0" encoding="UTF-8"?>
<svg xmlns="http://www.w3.org/2000/svg" version="1.1" viewBox="0 0 4153.8 6356.1">
  <defs>
    <style>
      .cls-1 {
        fill: #fffbb4;
      }

      .cls-2 {
        fill: #fff;
      }
    </style>
  </defs>
  <!-- Generator: Adobe Illustrator 28.7.1, SVG Export Plug-In . SVG Version: 1.2.0 Build 142)  -->
  <g>
    <g id="Layer_1">
      <g id="Layer_1-2" data-name="Layer_1">
        <path class="cls-1" d="M2432.8,48.5c-388.4,681.8-776.9,1363.6-1165.3,2045.3,582.4,99.7,1164.9,199.4,1747.3,299.2-625,1297.8-1249.9,2595.7-1874.9,3893.5,885.5-1406.8,1770.9-2813.7,2656.4-4220.5-534.9-85.4-1069.8-170.8-1604.7-256.2,80.4-587.1,160.8-1174.2,241.2-1761.2h0Z"/>
        <g>
          <g>
            <path class="cls-2" d="M2196.9,3771.3c.6-28,1.2-56,1.8-84h.9l-4.8-111c14.3-537,28.7-1074,43-1611-44.9-73-89.8-146-134.7-219-49.1,70.7-98.2,141.3-147.3,212,20.7,545.7,41.3,1091.3,62,1637-1,28.8-2,57.7-3,86.5h-.9c2.1,37,4.2,74,6.3,110.9-7.1,537.1-14.2,1074.3-21.2,1611.4,45.9,72.4,91.8,144.8,137.7,217.2,48.1-71.3,96.3-142.6,144.4-214-28-545.3-56.1-1090.7-84.1-1636h0Z"/>
            <g>
              <path class="cls-2" d="M2174,2383l-112.3,133.6c-8-8.8-16.1-17.5-24.2-26.2-139.7-99.7-279.4-199.5-419.1-299.2,9.4-47.4,18.9-94.8,28.3-142.2,47-21,94.1-41.9,141.1-62.9,120.6,126.8,241.1,253.6,361.7,380.4,8.1,5.5,16.3,11,24.4,16.5h0Z"/>
              <path class="cls-2" d="M2043.5,2370l112.3,133.6c8-8.8,16.1-17.5,24.2-26.2,139.7-99.7,279.4-199.5,419.1-299.2-9.4-47.4-18.9-94.8-28.3-142.2-47-21-94.1-41.9-141.1-62.9-120.6,126.8-241.1,253.6-361.7,380.4-8.1,5.5-16.3,11-24.4,16.5h0Z"/>
              <path class="cls-2" d="M2155,2779l-112.3,133.6c-8-8.8-16.1-17.5-24.2-26.2-139.7-99.7-279.4-199.5-419.1-299.2,9.4-47.4,18.9-94.8,28.3-142.2,47-21,94.1-41.9,141.1-62.9,120.6,126.8,241.1,253.6,361.7,380.4,8.1,5.5,16.3,11,24.4,16.5h0Z"/>
              <path class="cls-2" d="M2024.5,2766l112.3,133.6c8-8.8,16.1-17.5,24.2-26.2,139.7-99.7,279.4-199.5,419.1-299.2-9.4-47.4-18.9-94.8-28.3-142.2-47-21-94.1-41.9-141.1-62.9-120.6,126.8-241.1,253.6-361.7,380.4-8.1,5.5-16.3,11-24.4,16.5h0Z"/>
            </g>
            <g>
              <path class="cls-2" d="M2174,3200l-112.3,133.6c-8-8.8-16.1-17.5-24.2-26.2-139.7-99.7-279.4-199.5-419.1-299.2,9.4-47.4,18.9-94.8,28.3-142.1,47-21,94.1-41.9,141.1-62.9,120.6,126.8,241.1,253.6,361.7,380.4,8.1,5.5,16.3,11,24.4,16.5h0Z"/>
              <path class="cls-2" d="M2043.5,3187l112.3,133.6c8-8.8,16.1-17.5,24.2-26.2,139.7-99.7,279.4-199.5,419.1-299.2-9.4-47.4-18.9-94.8-28.3-142.1-47-21-94.1-41.9-141.1-62.9-120.6,126.8-241.1,253.6-361.7,380.4-8.1,5.5-16.3,11-24.4,16.5h0Z"/>
            </g>
            <g>
              <path class="cls-2" d="M2184,3564l-112.3,133.6c-8-8.8-16.1-17.5-24.2-26.2-139.7-99.7-279.4-199.5-419.1-299.2,9.4-47.4,18.9-94.8,28.3-142.1,47-21,94.1-41.9,141.1-62.9,120.6,126.8,241.1,253.6,361.7,380.3,8.1,5.5,16.3,11,24.4,16.5Z"/>
              <path class="cls-2" d="M2053.5,3551l112.3,133.6c8-8.8,16.1-17.5,24.2-26.2,139.7-99.7,279.4-199.5,419.1-299.2-9.4-47.4-18.9-94.8-28.3-142.1-47-21-94.1-41.9-141.1-62.9-120.6,126.8-241.1,253.6-361.7,380.4-8.1,5.5-16.3,11-24.4,16.5h0Z"/>
            </g>
            <g>
              <path class="cls-2" d="M2174,3817.8l-112.3-133.6c-8,8.8-16.1,17.5-24.2,26.2-139.7,99.7-279.4,199.5-419.1,299.2,9.4,47.4,18.9,94.8,28.3,142.2,47,21,94.1,41.9,141.1,62.9,120.6-126.8,241.1-253.6,361.7-380.4,8.1-5.5,16.3-11,24.4-16.5h0Z"/>
              <path class="cls-2" d="M2043.5,3830.8l112.3-133.6c8,8.8,16.1,17.5,24.2,26.2,139.7,99.7,279.4,199.5,419.1,299.2-9.4,47.4-18.9,94.8-28.3,142.2-47,21-94.1,41.9-141.1,62.9-120.6-126.8-241.1-253.6-361.7-380.4-8.1-5.5-16.3-11-24.4-16.5h0Z"/>
            </g>
            <g>
              <path class="cls-2" d="M2184,4240.8l-112.3-133.6c-8,8.8-16.1,17.5-24.2,26.2-139.7,99.7-279.4,199.5-419.1,299.2,9.4,47.4,18.9,94.8,28.3,142.2,47,21,94.1,41.9,141.1,62.9,120.6-126.8,241.1-253.6,361.7-380.4,8.1-5.5,16.3-11,24.4-16.5h0Z"/>
              <path class="cls-2" d="M2053.5,4253.8l112.3-133.6c8,8.8,16.1,17.5,24.2,26.2,139.7,99.7,279.4,199.5,419.1,299.2-9.4,47.4-18.9,94.8-28.3,142.2-47,21-94.1,41.9-141.1,62.9-120.6-126.8-241.1-253.6-361.7-380.4-8.1-5.5-16.3-11-24.4-16.5h0Z"/>
            </g>
            <g>
              <path class="cls-2" d="M2184,4669.8l-112.3-133.6c-8,8.8-16.1,17.5-24.2,26.2-139.7,99.7-279.4,199.5-419.1,299.2,9.4,47.4,18.9,94.8,28.3,142.2,47,21,94.1,41.9,141.1,62.9,120.6-126.8,241.1-253.6,361.7-380.4,8.1-5.5,16.3-11,24.4-16.5h0Z"/>
              <path class="cls-2" d="M2053.5,4682.8l112.3-133.6c8,8.8,16.1,17.5,24.2,26.2,139.7,99.7,279.4,199.5,419.1,299.2-9.4,47.4-18.9,94.8-28.3,142.2-47,21-94.1,41.9-141.1,62.9-120.6-126.8-241.1-253.6-361.7-380.4-8.1-5.5-16.3-11-24.4-16.5h0Z"/>
            </g>
            <g>
              <path class="cls-2" d="M2220,5092.8l-112.3-133.6c-8,8.8-16.1,17.5-24.2,26.2-139.7,99.7-279.4,199.5-419.1,299.2,9.4,47.4,18.9,94.8,28.3,142.2l141.1,62.9c120.6-126.8,241.1-253.6,361.7-380.4,8.1-5.5,16.3-11,24.4-16.5h0Z"/>
              <path class="cls-2" d="M2089.5,5105.8l112.3-133.6c8,8.8,16.1,17.5,24.2,26.2,139.7,99.7,279.4,199.5,419.1,299.2-9.4,47.4-18.9,94.8-28.3,142.2-47,21-94.1,41.9-141.1,62.9-120.6-126.8-241.1-253.6-361.7-380.4-8.1-5.5-16.3-11-24.4-16.5h0Z"/>
            </g>
            <g>
              <path class="cls-2" d="M2030.2,3773.1c28,.7,56,1.5,84,2.2v.9c37-1.4,74-2.9,111-4.3,536.9,16.7,1073.9,33.5,1610.8,50.2,73.2-44.6,146.4-89.1,219.6-133.7-70.4-49.4-140.9-98.8-211.3-148.2-545.8,18.2-1091.5,36.4-1637.3,54.7-28.8-1.1-57.7-2.3-86.5-3.4v-.9c-37,1.9-74,3.9-111,5.8-537.1-9.5-1074.2-19-1611.3-28.5-72.6,45.6-145.2,91.1-217.8,136.7,71.1,48.5,142.2,96.9,213.3,145.4,545.5-25.6,1090.9-51.2,1636.4-76.8h0Z"/>
              <g>
                <path class="cls-2" d="M3418.6,3756.4l-133.1-112.9c8.8-8,17.6-16,26.3-24,100.4-139.2,200.7-278.5,301.1-417.7,47.3,9.7,94.7,19.3,142,28.9,20.8,47.1,41.5,94.2,62.2,141.4-127.3,120-254.6,240-382,360-5.5,8.1-11.1,16.2-16.6,24.3h0Z"/>
                <path class="cls-2" d="M3432.2,3626l-134.1,111.7c8.7,8.1,17.4,16.2,26.1,24.3,99.1,140.1,198.2,280.3,297.3,420.4,47.4-9.2,94.9-18.5,142.3-27.7,21.2-46.9,42.3-93.9,63.5-140.8-126.2-121.1-252.5-242.3-378.7-363.4-5.5-8.2-10.9-16.3-16.4-24.5h0Z"/>
                <path class="cls-2" d="M3022.7,3735.6l-133.1-112.9c8.8-8,17.6-16,26.3-24,100.4-139.2,200.7-278.5,301.1-417.7,47.3,9.7,94.7,19.3,142,28.9,20.8,47.1,41.5,94.2,62.2,141.4-127.3,120-254.7,240-382,360-5.5,8.1-11.1,16.2-16.6,24.3h0Z"/>
                <path class="cls-2" d="M3036.3,3605.2l-134.1,111.7c8.7,8.1,17.4,16.2,26.1,24.3,99.1,140.1,198.2,280.3,297.3,420.4,47.4-9.2,94.8-18.5,142.3-27.7,21.2-46.9,42.3-93.9,63.5-140.8-126.2-121.1-252.5-242.3-378.7-363.4-5.5-8.2-10.9-16.3-16.4-24.5h0Z"/>
              </g>
              <g>
                <path class="cls-2" d="M2601.6,3752.7l-133.1-112.9c8.8-8,17.6-16,26.3-24,100.4-139.2,200.7-278.5,301.1-417.7,47.3,9.7,94.7,19.3,142,28.9,20.8,47.1,41.5,94.2,62.2,141.4-127.3,120-254.7,240-382,360-5.5,8.1-11.1,16.2-16.6,24.3h0Z"/>
                <path class="cls-2" d="M2615.2,3622.3l-134.1,111.7c8.7,8.1,17.4,16.2,26.1,24.3,99.1,140.1,198.2,280.3,297.3,420.4,47.4-9.2,94.8-18.5,142.3-27.7,21.2-46.9,42.3-93.9,63.5-140.8-126.2-121.1-252.5-242.3-378.7-363.4-5.5-8.2-10.9-16.3-16.4-24.5h0Z"/>
              </g>
              <g>
                <path class="cls-2" d="M2237.6,3761.1l-133.1-112.9c8.8-8,17.6-16,26.3-24,100.4-139.2,200.7-278.5,301.1-417.7,47.3,9.7,94.7,19.3,142,29,20.8,47.1,41.5,94.2,62.2,141.4-127.3,120-254.7,240-382,360-5.5,8.1-11.1,16.2-16.6,24.3h0Z"/>
                <path class="cls-2" d="M2251.2,3630.7l-134.1,111.7c8.7,8.1,17.4,16.2,26.1,24.3,99.1,140.1,198.2,280.3,297.3,420.4,47.4-9.2,94.8-18.5,142.3-27.7,21.2-46.9,42.3-93.9,63.5-140.8-126.2-121.1-252.5-242.3-378.7-363.4-5.5-8.2-10.9-16.3-16.4-24.5h0Z"/>
              </g>
              <g>
                <path class="cls-2" d="M1983.9,3750l134.1-111.7c-8.7-8.1-17.4-16.2-26.1-24.3-99.1-140.1-198.2-280.3-297.3-420.4-47.4,9.2-94.9,18.4-142.3,27.7-21.2,46.9-42.3,93.9-63.5,140.8,126.2,121.1,252.5,242.3,378.7,363.4,5.5,8.2,10.9,16.3,16.4,24.5h0Z"/>
                <path class="cls-2" d="M1971.5,3619.4l133.1,112.9c-8.8,8-17.6,16-26.3,24-100.4,139.2-200.7,278.5-301.1,417.7-47.3-9.7-94.7-19.3-142-29-20.8-47.1-41.5-94.2-62.2-141.4,127.3-120,254.6-240,382-360,5.5-8.1,11.1-16.2,16.6-24.3h0Z"/>
              </g>
              <g>
                <path class="cls-2" d="M1560.8,3758.1l134.1-111.7c-8.7-8.1-17.4-16.2-26.1-24.3-99.1-140.1-198.2-280.3-297.3-420.4-47.4,9.2-94.8,18.4-142.3,27.7-21.2,46.9-42.3,93.9-63.5,140.8,126.2,121.1,252.5,242.3,378.7,363.4l16.4,24.5h0Z"/>
                <path class="cls-2" d="M1548.4,3627.5l133.1,112.9c-8.8,8-17.6,16-26.4,24-100.4,139.2-200.7,278.5-301.1,417.7-47.3-9.7-94.7-19.3-142-29-20.8-47.1-41.5-94.2-62.2-141.4,127.3-120,254.6-240,382-360,5.5-8.1,11.1-16.2,16.6-24.3h0Z"/>
              </g>
              <g>
                <path class="cls-2" d="M1131.8,3756.2l134.1-111.7c-8.7-8.1-17.4-16.2-26.1-24.3-99.1-140.1-198.2-280.3-297.3-420.4-47.4,9.2-94.9,18.4-142.3,27.7-21.2,46.9-42.3,93.9-63.5,140.8,126.2,121.1,252.5,242.3,378.7,363.4l16.4,24.5h0Z"/>
                <path class="cls-2" d="M1119.4,3625.6l133.1,112.9c-8.8,8-17.6,16-26.4,24-100.4,139.2-200.7,278.5-301.1,417.7-47.3-9.7-94.7-19.3-142-29-20.8-47.1-41.5-94.2-62.2-141.4,127.3-120,254.6-240,382-360,5.5-8.1,11.1-16.2,16.6-24.3h0Z"/>
              </g>
              <g>
                <path class="cls-2" d="M708.7,3790.3l134.1-111.7c-8.7-8.1-17.4-16.2-26.1-24.3-99.1-140.1-198.2-280.3-297.3-420.4-47.4,9.2-94.8,18.5-142.3,27.7-21.2,46.9-42.3,93.9-63.5,140.8,126.2,121.1,252.5,242.3,378.7,363.4,5.5,8.2,10.9,16.3,16.4,24.5h0Z"/>
                <path class="cls-2" d="M696.3,3659.7l133.1,112.9c-8.8,8-17.6,16-26.3,24-100.4,139.2-200.7,278.5-301.1,417.7-47.3-9.7-94.7-19.3-142-29-20.8-47.1-41.5-94.2-62.2-141.4,127.3-120,254.7-240,382-360,5.5-8.1,11.1-16.2,16.6-24.3h0Z"/>
              </g>
            </g>
          </g>
          <g>
            <path class="cls-2" d="M2135.7,3855.3c20.6-19,41.2-38,61.8-57l.6.6c25.5-26.8,51.1-53.6,76.6-80.4,396.8-362.1,793.7-724.2,1190.5-1086.2,21.5-83,42.9-166,64.4-248.9-85,13.6-169.9,27.3-254.9,40.9-378.8,393.3-757.6,786.6-1136.4,1179.9-21.5,19.3-43,38.5-64.4,57.8l-.6-.6c-25.2,27.2-50.3,54.3-75.5,81.5-391.9,367.4-783.8,734.8-1175.7,1102.2-20.3,83.3-40.7,166.5-61,249.8,84.8-14.8,169.5-29.6,254.3-44.3,373.5-398.4,746.9-796.8,1120.4-1195.1Z"/>
            <g>
              <path class="cls-2" d="M3120.1,2876.1l-174.2,11.8c.7-11.9,1.4-23.7,2.2-35.6-25-169.8-50-339.6-75-509.4,40.7-26.1,81.4-52.1,122.1-78.2,47.7,19.3,95.4,38.7,143.1,58-7.7,174.8-15.5,349.6-23.2,524.4,1.7,9.7,3.3,19.4,5,29h0Z"/>
              <path class="cls-2" d="M3038.9,2773l-18.4,173.6c11.9-.3,23.8-.5,35.7-.8,168.7,31.5,337.5,63,506.2,94.4,27.6-39.7,55.2-79.3,82.8-119-17.5-48.4-35-96.8-52.5-145.2-175,1.1-349.9,2.1-524.9,3.2-9.6-2-19.2-4.1-28.8-6.1h0Z"/>
              <path class="cls-2" d="M2821.6,3137l-174.2,11.8c.7-11.9,1.4-23.7,2.2-35.6-25-169.8-50-339.6-75-509.4,40.7-26.1,81.4-52.1,122.1-78.2,47.7,19.3,95.4,38.7,143.1,58-7.7,174.8-15.5,349.6-23.2,524.4,1.7,9.7,3.3,19.4,5,29h0Z"/>
              <path class="cls-2" d="M2740.4,3033.9l-18.4,173.6c11.9-.3,23.8-.5,35.7-.8,168.7,31.5,337.5,63,506.2,94.4,27.6-39.7,55.2-79.3,82.8-119-17.5-48.4-35-96.8-52.5-145.2-175,1.1-349.9,2.1-524.9,3.2-9.6-2-19.2-4.1-28.8-6.1h0Z"/>
            </g>
            <g>
              <path class="cls-2" d="M2531.4,3442.6l-174.2,11.8c.7-11.9,1.4-23.7,2.2-35.6-25-169.8-50-339.6-75-509.4,40.7-26.1,81.4-52.1,122.1-78.2,47.7,19.4,95.4,38.7,143.1,58-7.7,174.8-15.5,349.6-23.2,524.4,1.7,9.7,3.3,19.4,5,29h0Z"/>
              <path class="cls-2" d="M2450.3,3339.6l-18.4,173.6c11.9-.3,23.8-.5,35.6-.8,168.7,31.5,337.5,62.9,506.2,94.4,27.6-39.7,55.2-79.3,82.8-119-17.5-48.4-35-96.8-52.5-145.2-175,1.1-349.9,2.1-524.9,3.2-9.6-2-19.2-4.1-28.8-6.1h0Z"/>
            </g>
            <g>
              <path class="cls-2" d="M2276.1,3702.3l-174.2,11.8c.7-11.9,1.4-23.7,2.2-35.6-25-169.8-50-339.6-75-509.4,40.7-26.1,81.4-52.1,122.1-78.2,47.7,19.4,95.4,38.7,143.1,58-7.7,174.8-15.5,349.6-23.2,524.4,1.7,9.7,3.3,19.4,5,29h0Z"/>
              <path class="cls-2" d="M2195,3599.2l-18.4,173.6c11.9-.3,23.8-.5,35.7-.8,168.7,31.5,337.5,62.9,506.2,94.4,27.6-39.7,55.2-79.3,82.8-119-17.5-48.4-35-96.8-52.5-145.2-175,1.1-349.9,2.1-524.9,3.2-9.6-2-19.2-4.1-28.8-6.1h0Z"/>
            </g>
            <g>
              <path class="cls-2" d="M2086.4,3871l18.4-173.6c-11.9.3-23.8.5-35.7.8-168.7-31.5-337.5-63-506.2-94.4-27.6,39.7-55.2,79.3-82.8,119,17.5,48.4,35,96.8,52.5,145.2,175-1.1,349.9-2.1,524.9-3.2,9.6,2,19.2,4.1,28.8,6.1h0Z"/>
              <path class="cls-2" d="M1986.5,3786l174.2-11.8c-.7,11.9-1.4,23.7-2.2,35.6,25,169.8,50,339.6,75,509.4-40.7,26.1-81.4,52.1-122.1,78.2-47.7-19.3-95.4-38.7-143.1-58,7.7-174.8,15.5-349.6,23.2-524.4-1.7-9.7-3.3-19.4-5-29h0Z"/>
            </g>
            <g>
              <path class="cls-2" d="M1788.5,4171.6l18.4-173.6c-11.9.3-23.8.5-35.6.8-168.7-31.5-337.5-63-506.2-94.4-27.6,39.7-55.2,79.3-82.8,119,17.5,48.4,35,96.8,52.5,145.2,175-1.1,349.9-2.1,524.9-3.2,9.6,2,19.2,4.1,28.8,6.1h0Z"/>
              <path class="cls-2" d="M1688.7,4086.5l174.1-11.8c-.7,11.9-1.4,23.7-2.2,35.6,25,169.8,50,339.6,75,509.4-40.7,26.1-81.4,52.1-122.1,78.2-47.7-19.3-95.4-38.7-143.1-58,7.7-174.8,15.5-349.6,23.2-524.4-1.7-9.7-3.4-19.4-5-29h0Z"/>
            </g>
            <g>
              <path class="cls-2" d="M1479.4,4469.1l18.4-173.6c-11.9.3-23.8.5-35.7.8-168.7-31.5-337.5-63-506.2-94.4-27.6,39.7-55.2,79.3-82.8,119,17.5,48.4,35,96.8,52.5,145.3,175-1.1,349.9-2.1,524.9-3.2,9.6,2,19.2,4.1,28.8,6.1h0Z"/>
              <path class="cls-2" d="M1379.6,4384l174.1-11.8c-.7,11.9-1.4,23.7-2.2,35.6,25,169.8,50,339.6,75,509.4-40.7,26.1-81.4,52.1-122.1,78.2-47.7-19.3-95.4-38.7-143.1-58,7.7-174.8,15.5-349.6,23.2-524.4-1.7-9.7-3.3-19.4-5-29h0Z"/>
            </g>
            <g>
              <path class="cls-2" d="M1199.6,4788.3l18.4-173.6c-11.9.3-23.8.5-35.6.8-168.7-31.5-337.5-62.9-506.2-94.4-27.6,39.7-55.2,79.3-82.8,119,17.5,48.4,35,96.8,52.5,145.2,175-1.1,349.9-2.1,524.9-3.2,9.6,2,19.2,4.1,28.8,6.1h0Z"/>
              <path class="cls-2" d="M1099.8,4703.3l174.1-11.8c-.7,11.9-1.4,23.7-2.2,35.6,25,169.8,50,339.6,75,509.4-40.7,26.1-81.4,52.1-122.1,78.2-47.7-19.3-95.4-38.7-143.1-58,7.7-174.8,15.5-349.6,23.2-524.4-1.7-9.7-3.4-19.4-5-29h0Z"/>
            </g>
            <g>
              <path class="cls-2" d="M2018.8,3736.4c18.9,20.7,37.8,41.4,56.7,62.1l-.6.6c26.7,25.7,53.4,51.3,80.1,77,360.3,398.5,720.6,796.9,1080.9,1195.4,82.9,21.8,165.8,43.7,248.6,65.5-13.2-85-26.5-170-39.8-255.1-391.6-380.6-783.2-761.1-1174.8-1141.7-19.2-21.6-38.3-43.1-57.5-64.7l.6-.6c-27-25.3-54.1-50.6-81.1-75.9-365.6-393.6-731.3-787.1-1096.9-1180.7-83.2-20.7-166.3-41.4-249.5-62.1,14.4,84.8,28.8,169.7,43.2,254.5,396.7,375.2,793.4,750.5,1190.1,1125.7Z"/>
              <g>
                <path class="cls-2" d="M2993.6,4725.2l-11-174.2c11.9.8,23.7,1.6,35.6,2.3,169.9-24.2,339.8-48.5,509.8-72.7,25.9,40.8,51.8,81.6,77.6,122.4-19.6,47.6-39.1,95.2-58.7,142.9-174.8-8.5-349.5-17-524.2-25.6-9.7,1.6-19.4,3.3-29.1,4.9h0Z"/>
                <path class="cls-2" d="M3097.1,4644.5l-173.5-19.2c.2,11.9.4,23.8.6,35.7-32.2,168.6-64.5,337.2-96.7,505.8,39.5,27.8,79.1,55.5,118.6,83.3,48.5-17.3,97-34.6,145.5-51.9-.3-175-.6-349.9-.8-524.9,2.1-9.6,4.2-19.2,6.3-28.8h0Z"/>
                <path class="cls-2" d="M2734.1,4425.5l-11-174.2c11.9.8,23.7,1.5,35.6,2.3,169.9-24.2,339.8-48.5,509.8-72.7,25.9,40.8,51.8,81.6,77.6,122.4-19.6,47.6-39.1,95.2-58.7,142.9-174.8-8.5-349.5-17-524.2-25.6-9.7,1.6-19.4,3.3-29.1,4.9h0Z"/>
                <path class="cls-2" d="M2837.5,4344.8l-173.5-19.2c.2,11.9.4,23.8.6,35.7-32.2,168.6-64.5,337.2-96.7,505.8,39.5,27.8,79.1,55.5,118.6,83.3,48.5-17.3,97-34.6,145.5-51.9-.3-175-.6-349.9-.8-524.9,2.1-9.6,4.2-19.2,6.3-28.8h0Z"/>
              </g>
              <g>
                <path class="cls-2" d="M2429.7,4134l-11-174.2c11.9.8,23.7,1.5,35.6,2.3,169.9-24.2,339.8-48.5,509.8-72.7,25.9,40.8,51.8,81.6,77.6,122.4-19.6,47.6-39.1,95.2-58.7,142.9-174.8-8.5-349.5-17-524.2-25.6-9.7,1.6-19.4,3.3-29.1,4.9h0Z"/>
                <path class="cls-2" d="M2533.1,4053.3l-173.5-19.2c.2,11.9.4,23.8.6,35.7-32.2,168.6-64.5,337.2-96.7,505.8,39.5,27.8,79.1,55.5,118.6,83.3,48.5-17.3,97-34.6,145.5-51.9-.3-175-.6-349.9-.8-524.9,2.1-9.6,4.2-19.2,6.3-28.8h0Z"/>
              </g>
              <g>
                <path class="cls-2" d="M2171.2,3877.5l-11-174.2c11.9.8,23.7,1.5,35.6,2.3,169.9-24.2,339.8-48.5,509.8-72.7,25.9,40.8,51.8,81.6,77.6,122.4-19.6,47.6-39.1,95.2-58.7,142.9-174.8-8.5-349.5-17-524.2-25.6-9.7,1.6-19.4,3.3-29.1,4.9h0Z"/>
                <path class="cls-2" d="M2274.6,3796.8l-173.5-19.2c.2,11.9.4,23.8.6,35.7-32.2,168.6-64.5,337.2-96.7,505.8,39.5,27.8,79.1,55.5,118.6,83.3,48.5-17.3,97-34.6,145.5-51.9-.3-175-.5-349.9-.8-524.9,2.1-9.6,4.2-19.2,6.3-28.8h0Z"/>
              </g>
              <g>
                <path class="cls-2" d="M2003.3,3687l173.5,19.2c-.2-11.9-.4-23.8-.6-35.6,32.2-168.6,64.5-337.2,96.7-505.8-39.5-27.8-79.1-55.5-118.6-83.3-48.5,17.3-97,34.6-145.5,51.9.3,175,.5,349.9.8,524.9-2.1,9.6-4.2,19.2-6.3,28.8h0Z"/>
                <path class="cls-2" d="M2088.8,3587.5l11,174.2c-11.9-.8-23.7-1.5-35.6-2.3-169.9,24.2-339.8,48.5-509.8,72.7-25.9-40.8-51.8-81.6-77.6-122.4,19.6-47.6,39.1-95.2,58.7-142.9,174.8,8.5,349.5,17,524.2,25.6,9.7-1.6,19.4-3.3,29.1-4.9h0Z"/>
              </g>
              <g>
                <path class="cls-2" d="M1704.1,3387.8l173.5,19.2c-.2-11.9-.4-23.8-.6-35.7,32.2-168.6,64.5-337.2,96.7-505.8-39.5-27.8-79.1-55.5-118.6-83.3-48.5,17.3-97,34.6-145.5,51.9.3,175,.5,349.9.8,524.9-2.1,9.6-4.2,19.2-6.3,28.8h0Z"/>
                <path class="cls-2" d="M1789.6,3288.3l11,174.2c-11.9-.8-23.7-1.6-35.6-2.3-169.9,24.2-339.8,48.5-509.8,72.7-25.9-40.8-51.8-81.6-77.6-122.4,19.6-47.6,39.1-95.2,58.7-142.9,174.7,8.5,349.5,17.1,524.2,25.6,9.7-1.6,19.4-3.3,29.1-4.9Z"/>
              </g>
              <g>
                <path class="cls-2" d="M1408,3077.4l173.5,19.2c-.2-11.9-.4-23.8-.6-35.7,32.2-168.6,64.5-337.2,96.7-505.8-39.5-27.8-79.1-55.5-118.6-83.3-48.5,17.3-97,34.6-145.5,51.9.3,175,.5,349.9.8,524.9-2.1,9.6-4.2,19.2-6.3,28.8h0Z"/>
                <path class="cls-2" d="M1493.5,2977.9l11,174.2c-11.9-.8-23.7-1.6-35.6-2.3-169.9,24.2-339.8,48.5-509.8,72.7-25.9-40.8-51.7-81.6-77.6-122.4,19.6-47.6,39.1-95.2,58.7-142.9,174.8,8.5,349.5,17,524.2,25.6,9.7-1.6,19.4-3.3,29.1-4.9h0Z"/>
              </g>
              <g>
                <path class="cls-2" d="M1090,2796.2l173.5,19.2c-.2-11.9-.4-23.8-.6-35.6,32.2-168.6,64.5-337.2,96.7-505.8-39.5-27.8-79.1-55.5-118.6-83.3-48.5,17.3-97,34.6-145.5,51.9.3,175,.5,349.9.8,524.9-2.1,9.6-4.2,19.2-6.3,28.8h0Z"/>
                <path class="cls-2" d="M1175.5,2696.7l11,174.2c-11.9-.8-23.7-1.5-35.6-2.3-169.9,24.2-339.8,48.5-509.8,72.7-25.9-40.8-51.8-81.6-77.6-122.4,19.6-47.6,39.1-95.3,58.7-142.9,174.8,8.5,349.5,17,524.2,25.6,9.7-1.6,19.4-3.3,29.1-4.9h0Z"/>
              </g>
            </g>
          </g>
        </g>
      </g>
    </g>
  </g>
</svg>