<?xml version="1.0" encoding="UTF-8"?>
<svg xmlns="http://www.w3.org/2000/svg" version="1.1" viewBox="0 0 1366 768">
  <defs>
    <style>
      .cls-1 {
        fill: #fff;
      }
    </style>
  </defs>
  <!-- Generator: Adobe Illustrator 28.7.1, SVG Export Plug-In . SVG Version: 1.2.0 Build 142)  -->
  <g>
    <g id="Layer_1">
      <g>
        <g>
          <path class="cls-1" d="M761.86,472.03c.61-28.01,1.22-56.02,1.83-84.04h.87l-4.83-111c14.33-537,28.67-1074,43-1611-44.9-73-89.81-146-134.71-219-49.1,70.67-98.19,141.33-147.29,212,20.67,545.67,41.33,1091.33,62,1637l-3.05,86.49h-.88c2.11,36.99,4.22,73.96,6.33,110.94-7.08,537.14-14.16,1074.29-21.24,1611.43,45.88,72.39,91.77,144.77,137.65,217.16,48.14-71.32,96.28-142.65,144.41-213.97-28.04-545.34-56.07-1090.68-84.11-1636.01Z"/>
          <g>
            <path class="cls-1" d="M738.94-916.27l-112.3,133.62c-8.05-8.75-16.1-17.49-24.15-26.24-139.69-99.74-279.37-199.48-419.06-299.22,9.44-47.38,18.88-94.77,28.32-142.15,47.03-20.96,94.06-41.92,141.09-62.88,120.56,126.79,241.13,253.57,361.69,380.36,8.14,5.51,16.27,11.01,24.41,16.52Z"/>
            <path class="cls-1" d="M608.44-929.27l112.3,133.62c8.05-8.75,16.1-17.49,24.15-26.24,139.69-99.74,279.37-199.48,419.06-299.22-9.44-47.38-18.88-94.77-28.32-142.15-47.03-20.96-94.06-41.92-141.09-62.88-120.56,126.79-241.13,253.57-361.69,380.36-8.14,5.51-16.27,11.01-24.41,16.52Z"/>
            <path class="cls-1" d="M719.94-520.27l-112.3,133.62c-8.05-8.75-16.1-17.49-24.15-26.24-139.69-99.74-279.37-199.48-419.06-299.22,9.44-47.38,18.88-94.77,28.32-142.15,47.03-20.96,94.06-41.92,141.09-62.88,120.56,126.79,241.13,253.57,361.69,380.36,8.14,5.51,16.27,11.01,24.41,16.52Z"/>
            <path class="cls-1" d="M589.44-533.27l112.3,133.62c8.05-8.75,16.1-17.49,24.15-26.24,139.69-99.74,279.37-199.48,419.06-299.22-9.44-47.38-18.88-94.77-28.32-142.15-47.03-20.96-94.06-41.92-141.09-62.88-120.56,126.79-241.13,253.57-361.69,380.36-8.14,5.51-16.27,11.01-24.41,16.52Z"/>
          </g>
          <g>
            <path class="cls-1" d="M738.94-99.27l-112.3,133.62c-8.05-8.75-16.1-17.49-24.15-26.24-139.69-99.74-279.37-199.48-419.06-299.22,9.44-47.38,18.88-94.77,28.32-142.15,47.03-20.96,94.06-41.92,141.09-62.88,120.56,126.79,241.13,253.57,361.69,380.36,8.14,5.51,16.27,11.01,24.41,16.52Z"/>
            <path class="cls-1" d="M608.44-112.27l112.3,133.62c8.05-8.75,16.1-17.49,24.15-26.24,139.69-99.74,279.37-199.48,419.06-299.22-9.44-47.38-18.88-94.77-28.32-142.15-47.03-20.96-94.06-41.92-141.09-62.88-120.56,126.79-241.13,253.57-361.69,380.36-8.14,5.51-16.27,11.01-24.41,16.52Z"/>
          </g>
          <g>
            <path class="cls-1" d="M748.94,264.73l-112.3,133.62c-8.05-8.75-16.1-17.49-24.15-26.24-139.69-99.74-279.37-199.48-419.06-299.22,9.44-47.38,18.88-94.77,28.32-142.15,47.03-20.96,94.06-41.92,141.09-62.88C483.4-5.36,603.97,121.43,724.53,248.21c8.14,5.51,16.27,11.01,24.41,16.52Z"/>
            <path class="cls-1" d="M618.44,251.73l112.3,133.62c8.05-8.75,16.1-17.49,24.15-26.24,139.69-99.74,279.37-199.48,419.06-299.22-9.44-47.38-18.88-94.77-28.32-142.15-47.03-20.96-94.06-41.92-141.09-62.88-120.56,126.79-241.13,253.57-361.69,380.36-8.14,5.51-16.27,11.01-24.41,16.52Z"/>
          </g>
          <g>
            <path class="cls-1" d="M738.94,518.47l-112.3-133.62c-8.05,8.75-16.1,17.49-24.15,26.24-139.69,99.74-279.37,199.48-419.06,299.22,9.44,47.38,18.88,94.77,28.32,142.15,47.03,20.96,94.06,41.92,141.09,62.88,120.56-126.79,241.13-253.57,361.69-380.36,8.14-5.51,16.27-11.01,24.41-16.52Z"/>
            <path class="cls-1" d="M608.44,531.47l112.3-133.62c8.05,8.75,16.1,17.49,24.15,26.24,139.69,99.74,279.37,199.48,419.06,299.22-9.44,47.38-18.88,94.77-28.32,142.15-47.03,20.96-94.06,41.92-141.09,62.88-120.56-126.79-241.13-253.57-361.69-380.36-8.14-5.51-16.27-11.01-24.41-16.52Z"/>
          </g>
          <g>
            <path class="cls-1" d="M748.94,941.47l-112.3-133.62c-8.05,8.75-16.1,17.49-24.15,26.24-139.69,99.74-279.37,199.48-419.06,299.22,9.44,47.38,18.88,94.77,28.32,142.15,47.03,20.96,94.06,41.92,141.09,62.88,120.56-126.79,241.13-253.57,361.69-380.36,8.14-5.51,16.27-11.01,24.41-16.52Z"/>
            <path class="cls-1" d="M618.44,954.47l112.3-133.62c8.05,8.75,16.1,17.49,24.15,26.24,139.69,99.74,279.37,199.48,419.06,299.22-9.44,47.38-18.88,94.77-28.32,142.15-47.03,20.96-94.06,41.92-141.09,62.88-120.56-126.79-241.13-253.57-361.69-380.36-8.14-5.51-16.27-11.01-24.41-16.52Z"/>
          </g>
          <g>
            <path class="cls-1" d="M748.94,1370.47l-112.3-133.62c-8.05,8.75-16.1,17.49-24.15,26.24-139.69,99.74-279.37,199.48-419.06,299.22,9.44,47.38,18.88,94.77,28.32,142.15,47.03,20.96,94.06,41.92,141.09,62.88,120.56-126.79,241.13-253.57,361.69-380.36,8.14-5.51,16.27-11.01,24.41-16.52Z"/>
            <path class="cls-1" d="M618.44,1383.47l112.3-133.62c8.05,8.75,16.1,17.49,24.15,26.24,139.69,99.74,279.37,199.48,419.06,299.22-9.44,47.38-18.88,94.77-28.32,142.15-47.03,20.96-94.06,41.92-141.09,62.88-120.56-126.79-241.13-253.57-361.69-380.36-8.14-5.51-16.27-11.01-24.41-16.52Z"/>
          </g>
          <g>
            <path class="cls-1" d="M784.94,1793.47l-112.3-133.62c-8.05,8.75-16.1,17.49-24.15,26.24-139.69,99.74-279.37,199.48-419.06,299.22,9.44,47.38,18.88,94.77,28.32,142.15,47.03,20.96,94.06,41.92,141.09,62.88,120.56-126.79,241.13-253.57,361.69-380.36,8.14-5.51,16.27-11.01,24.41-16.52Z"/>
            <path class="cls-1" d="M654.44,1806.47l112.3-133.62c8.05,8.75,16.1,17.49,24.15,26.24,139.69,99.74,279.37,199.48,419.06,299.22-9.44,47.38-18.88,94.77-28.32,142.15-47.03,20.96-94.06,41.92-141.09,62.88-120.56-126.79-241.13-253.57-361.69-380.36-8.14-5.51-16.27-11.01-24.41-16.52Z"/>
          </g>
          <g>
            <path class="cls-1" d="M595.13,473.8c28.01.73,56.02,1.47,84.03,2.2v.87c37-1.44,74.01-2.89,111.02-4.33,536.93,16.74,1073.86,33.48,1610.79,50.22,73.2-44.58,146.4-89.15,219.6-133.73-70.45-49.41-140.89-98.83-211.34-148.24-545.75,18.22-1091.51,36.44-1637.26,54.66-28.82-1.15-57.65-2.29-86.47-3.44v-.88c-36.99,1.94-73.98,3.89-110.96,5.83-537.11-9.49-1074.22-18.97-1611.32-28.46-72.59,45.56-145.18,91.12-217.78,136.68,71.11,48.46,142.21,96.91,213.32,145.37,545.46-25.59,1090.92-51.18,1636.37-76.77Z"/>
            <g>
              <path class="cls-1" d="M1983.51,457.1l-133.11-112.9c8.78-8.01,17.57-16.02,26.35-24.03,100.37-139.24,200.73-278.48,301.1-417.72,47.34,9.65,94.68,19.3,142.03,28.95,20.75,47.12,41.5,94.24,62.25,141.37-127.33,119.99-254.65,239.99-381.98,359.98-5.54,8.11-11.08,16.22-16.63,24.34Z"/>
              <path class="cls-1" d="M1997.1,326.66l-134.12,111.7c8.71,8.09,17.42,16.18,26.13,24.26,99.11,140.13,198.23,280.27,297.34,420.4,47.43-9.23,94.85-18.45,142.28-27.68,21.17-46.93,42.34-93.87,63.51-140.8-126.24-121.13-252.49-242.26-378.73-363.39-5.47-8.16-10.94-16.32-16.41-24.48Z"/>
              <path class="cls-1" d="M1587.6,436.33l-133.11-112.9c8.78-8.01,17.57-16.02,26.35-24.03,100.37-139.24,200.73-278.48,301.1-417.72,47.34,9.65,94.68,19.3,142.03,28.95,20.75,47.12,41.5,94.24,62.25,141.37-127.33,119.99-254.65,239.99-381.98,359.98-5.54,8.11-11.08,16.22-16.63,24.34Z"/>
              <path class="cls-1" d="M1601.19,305.88l-134.12,111.7c8.71,8.09,17.42,16.18,26.13,24.26,99.11,140.13,198.23,280.27,297.34,420.4,47.43-9.23,94.85-18.45,142.28-27.68,21.17-46.93,42.34-93.87,63.51-140.8-126.24-121.13-252.49-242.26-378.73-363.39-5.47-8.16-10.94-16.32-16.41-24.48Z"/>
            </g>
            <g>
              <path class="cls-1" d="M1166.52,453.44l-133.11-112.9c8.78-8.01,17.57-16.02,26.35-24.03,100.37-139.24,200.73-278.48,301.1-417.72,47.34,9.65,94.68,19.3,142.03,28.95,20.75,47.12,41.5,94.24,62.25,141.37-127.33,119.99-254.65,239.99-381.98,359.98-5.54,8.11-11.08,16.22-16.63,24.34Z"/>
              <path class="cls-1" d="M1180.11,323l-134.12,111.7c8.71,8.09,17.42,16.18,26.13,24.26,99.11,140.13,198.23,280.27,297.34,420.4,47.43-9.23,94.85-18.45,142.28-27.68,21.17-46.93,42.34-93.87,63.51-140.8-126.24-121.13-252.49-242.26-378.73-363.39-5.47-8.16-10.94-16.32-16.41-24.48Z"/>
            </g>
            <g>
              <path class="cls-1" d="M802.48,461.81l-133.11-112.9c8.78-8.01,17.57-16.02,26.35-24.03,100.37-139.24,200.73-278.48,301.1-417.72,47.34,9.65,94.68,19.3,142.03,28.95,20.75,47.12,41.5,94.24,62.25,141.37-127.33,119.99-254.65,239.99-381.98,359.98-5.54,8.11-11.08,16.22-16.63,24.34Z"/>
              <path class="cls-1" d="M816.07,331.36l-134.12,111.7c8.71,8.09,17.42,16.18,26.13,24.26,99.11,140.13,198.23,280.27,297.34,420.4,47.43-9.23,94.85-18.45,142.28-27.68,21.17-46.93,42.34-93.87,63.51-140.8-126.24-121.13-252.49-242.26-378.73-363.39-5.47-8.16-10.94-16.32-16.41-24.48Z"/>
            </g>
            <g>
              <path class="cls-1" d="M548.79,450.68l134.12-111.7c-8.71-8.09-17.42-16.18-26.13-24.26C557.66,174.58,458.55,34.45,359.43-105.69c-47.43,9.23-94.85,18.45-142.28,27.68-21.17,46.93-42.34,93.87-63.51,140.8,126.24,121.13,252.49,242.26,378.73,363.39,5.47,8.16,10.94,16.32,16.41,24.48Z"/>
              <path class="cls-1" d="M536.37,320.11l133.11,112.9c-8.78,8.01-17.57,16.02-26.35,24.03-100.37,139.24-200.73,278.48-301.1,417.72-47.34-9.65-94.68-19.3-142.03-28.95-20.75-47.12-41.5-94.24-62.25-141.37,127.33-119.99,254.65-239.99,381.98-359.98,5.54-8.11,11.08-16.22,16.63-24.34Z"/>
            </g>
            <g>
              <path class="cls-1" d="M125.74,458.78l134.12-111.7c-8.71-8.09-17.42-16.18-26.13-24.26C134.62,182.68,35.51,42.55-63.61-97.58c-47.43,9.23-94.85,18.45-142.28,27.68-21.17,46.93-42.34,93.87-63.51,140.8C-143.15,192.03-16.91,313.16,109.34,434.29c5.47,8.16,10.94,16.32,16.41,24.48Z"/>
              <path class="cls-1" d="M113.33,328.22l133.11,112.9c-8.78,8.01-17.57,16.02-26.35,24.03C119.73,604.38,19.36,743.62-81,882.86c-47.34-9.65-94.68-19.3-142.03-28.95-20.75-47.12-41.5-94.24-62.25-141.37,127.33-119.99,254.65-239.99,381.98-359.98,5.54-8.11,11.08-16.22,16.63-24.34Z"/>
            </g>
            <g>
              <path class="cls-1" d="M-303.25,456.86l134.12-111.7c-8.71-8.09-17.42-16.18-26.13-24.26C-294.38,180.76-393.49,40.63-492.6-99.5c-47.43,9.23-94.85,18.45-142.28,27.68-21.17,46.93-42.34,93.87-63.51,140.8,126.24,121.13,252.49,242.26,378.73,363.39,5.47,8.16,10.94,16.32,16.41,24.48Z"/>
              <path class="cls-1" d="M-315.67,326.29l133.11,112.9c-8.78,8.01-17.57,16.02-26.35,24.03-100.37,139.24-200.73,278.48-301.1,417.72-47.34-9.65-94.68-19.3-142.03-28.95-20.75-47.12-41.5-94.24-62.25-141.37,127.33-119.99,254.65-239.99,381.98-359.98,5.54-8.11,11.08-16.22,16.63-24.34Z"/>
            </g>
            <g>
              <path class="cls-1" d="M-726.41,490.96l134.12-111.7c-8.71-8.09-17.42-16.18-26.13-24.26-99.11-140.13-198.23-280.27-297.34-420.4-47.43,9.23-94.85,18.45-142.28,27.68-21.17,46.93-42.34,93.87-63.51,140.8,126.24,121.13,252.49,242.26,378.73,363.39,5.47,8.16,10.94,16.32,16.41,24.48Z"/>
              <path class="cls-1" d="M-738.82,360.4l133.11,112.9c-8.78,8.01-17.57,16.02-26.35,24.03-100.37,139.24-200.73,278.48-301.1,417.72-47.34-9.65-94.68-19.3-142.03-28.95-20.75-47.12-41.5-94.24-62.25-141.37,127.33-119.99,254.65-239.99,381.98-359.98,5.54-8.11,11.08-16.22,16.63-24.34Z"/>
            </g>
          </g>
        </g>
        <g>
          <path class="cls-1" d="M700.63,556.02c20.6-18.99,41.21-37.97,61.81-56.96l.61.63c25.54-26.82,51.08-53.64,76.63-80.45C1236.51,57.16,1633.35-304.91,2030.19-666.97c21.46-82.98,42.91-165.95,64.37-248.93-84.96,13.63-169.92,27.26-254.88,40.9C1460.86-481.71,1082.05-88.41,703.24,304.88c-21.48,19.26-42.95,38.52-64.43,57.78l-.62-.62c-25.18,27.16-50.35,54.32-75.53,81.48C170.75,810.91-221.16,1178.31-613.08,1545.71c-20.33,83.26-40.67,166.52-61,249.77,84.77-14.78,169.54-29.56,254.31-44.34C-46.3,1352.77,327.16,954.39,700.63,556.02Z"/>
          <g>
            <path class="cls-1" d="M1684.98-423.24l-174.15,11.75c.72-11.87,1.44-23.73,2.16-35.6-25.01-169.81-50.02-339.62-75.03-509.43,40.69-26.06,81.37-52.12,122.06-78.18,47.71,19.35,95.43,38.7,143.14,58.04-7.74,174.79-15.48,349.57-23.22,524.36,1.68,9.68,3.35,19.36,5.03,29.04Z"/>
            <path class="cls-1" d="M1603.84-526.29l-18.39,173.57c11.88-.27,23.77-.53,35.65-.8,168.73,31.47,337.46,62.95,506.19,94.43,27.59-39.66,55.19-79.32,82.78-118.98-17.51-48.42-35.02-96.84-52.54-145.25-174.96,1.06-349.91,2.12-524.87,3.18-9.61-2.04-19.22-4.09-28.83-6.13Z"/>
            <path class="cls-1" d="M1386.49-162.32l-174.15,11.75c.72-11.87,1.44-23.73,2.16-35.6-25.01-169.81-50.02-339.62-75.03-509.43,40.69-26.06,81.37-52.12,122.06-78.18,47.71,19.35,95.43,38.7,143.14,58.04-7.74,174.79-15.48,349.57-23.22,524.36,1.68,9.68,3.35,19.36,5.03,29.04Z"/>
            <path class="cls-1" d="M1305.35-265.36l-18.39,173.57c11.88-.27,23.77-.53,35.65-.8,168.73,31.47,337.46,62.95,506.19,94.43,27.59-39.66,55.19-79.32,82.78-118.98-17.51-48.42-35.02-96.84-52.54-145.25-174.96,1.06-349.91,2.12-524.87,3.18-9.61-2.04-19.22-4.09-28.83-6.13Z"/>
          </g>
          <g>
            <path class="cls-1" d="M1096.34,143.32l-174.15,11.75c.72-11.87,1.44-23.73,2.16-35.6-25.01-169.81-50.02-339.62-75.03-509.43,40.69-26.06,81.37-52.12,122.06-78.18,47.71,19.35,95.43,38.7,143.14,58.04-7.74,174.79-15.48,349.57-23.22,524.36,1.68,9.68,3.35,19.36,5.03,29.04Z"/>
            <path class="cls-1" d="M1015.21,40.28l-18.39,173.57c11.88-.27,23.77-.53,35.65-.8,168.73,31.47,337.46,62.95,506.19,94.43,27.59-39.66,55.19-79.32,82.78-118.98-17.51-48.42-35.02-96.84-52.54-145.25-174.96,1.06-349.91,2.12-524.87,3.18-9.61-2.04-19.22-4.09-28.83-6.13Z"/>
          </g>
          <g>
            <path class="cls-1" d="M841.02,402.95l-174.15,11.75c.72-11.87,1.44-23.73,2.16-35.6-25.01-169.81-50.02-339.62-75.03-509.43,40.69-26.06,81.37-52.12,122.06-78.18,47.71,19.35,95.43,38.7,143.14,58.04-7.74,174.79-15.48,349.57-23.22,524.36,1.68,9.68,3.35,19.36,5.03,29.04Z"/>
            <path class="cls-1" d="M759.88,299.91l-18.39,173.57c11.88-.27,23.77-.53,35.65-.8,168.73,31.47,337.46,62.95,506.19,94.43,27.59-39.66,55.19-79.32,82.78-118.98-17.51-48.42-35.02-96.84-52.54-145.25-174.96,1.06-349.91,2.12-524.87,3.18-9.61-2.04-19.22-4.09-28.83-6.13Z"/>
          </g>
          <g>
            <path class="cls-1" d="M651.27,571.71l18.39-173.57c-11.88.27-23.77.53-35.65.8-168.73-31.47-337.46-62.95-506.19-94.43-27.59,39.66-55.19,79.32-82.78,118.98,17.51,48.42,35.02,96.84,52.54,145.25,174.96-1.06,349.91-2.12,524.87-3.18,9.61,2.04,19.22,4.09,28.83,6.13Z"/>
            <path class="cls-1" d="M551.4,486.7l174.15-11.75c-.72,11.87-1.44,23.73-2.16,35.6,25.01,169.81,50.02,339.62,75.03,509.43-40.69,26.06-81.37,52.12-122.06,78.18-47.71-19.35-95.43-38.7-143.14-58.04,7.74-174.79,15.48-349.57,23.22-524.36-1.68-9.68-3.35-19.36-5.03-29.04Z"/>
          </g>
          <g>
            <path class="cls-1" d="M353.44,872.26l18.39-173.57c-11.88.27-23.77.53-35.65.8-168.73-31.47-337.46-62.95-506.19-94.43-27.59,39.66-55.19,79.32-82.78,118.98,17.51,48.42,35.02,96.84,52.54,145.25,174.96-1.06,349.91-2.12,524.87-3.18,9.61,2.04,19.22,4.09,28.83,6.13Z"/>
            <path class="cls-1" d="M253.57,787.24l174.15-11.75c-.72,11.87-1.44,23.73-2.16,35.6,25.01,169.81,50.02,339.62,75.03,509.43-40.69,26.06-81.37,52.12-122.06,78.18-47.71-19.35-95.43-38.7-143.14-58.04,7.74-174.79,15.48-349.57,23.22-524.36-1.68-9.68-3.35-19.36-5.03-29.04Z"/>
          </g>
          <g>
            <path class="cls-1" d="M44.35,1169.76l18.39-173.57c-11.88.27-23.77.53-35.65.8-168.73-31.47-337.46-62.95-506.19-94.43-27.59,39.66-55.19,79.32-82.78,118.98,17.51,48.42,35.02,96.84,52.54,145.25,174.96-1.06,349.91-2.12,524.87-3.18,9.61,2.04,19.22,4.09,28.83,6.13Z"/>
            <path class="cls-1" d="M-55.52,1084.74l174.15-11.75c-.72,11.87-1.44,23.73-2.16,35.6,25.01,169.81,50.02,339.62,75.03,509.43-40.69,26.06-81.37,52.12-122.06,78.18-47.71-19.35-95.43-38.7-143.14-58.04,7.74-174.79,15.48-349.57,23.22-524.36-1.68-9.68-3.35-19.36-5.03-29.04Z"/>
          </g>
          <g>
            <path class="cls-1" d="M-235.45,1489.03l18.39-173.57c-11.88.27-23.77.53-35.65.8-168.73-31.47-337.46-62.95-506.19-94.43-27.59,39.66-55.19,79.32-82.78,118.98,17.51,48.42,35.02,96.84,52.54,145.25,174.96-1.06,349.91-2.12,524.87-3.18,9.61,2.04,19.22,4.09,28.83,6.13Z"/>
            <path class="cls-1" d="M-335.32,1404.02l174.15-11.75c-.72,11.87-1.44,23.73-2.16,35.6,25.01,169.81,50.02,339.62,75.03,509.43-40.69,26.06-81.37,52.12-122.06,78.18-47.71-19.35-95.43-38.7-143.14-58.04,7.74-174.79,15.48-349.57,23.22-524.36-1.68-9.68-3.35-19.36-5.03-29.04Z"/>
          </g>
          <g>
            <path class="cls-1" d="M583.72,437.12c18.89,20.69,37.79,41.38,56.68,62.07l-.63.6c26.7,25.66,53.41,51.32,80.11,76.99,360.29,398.46,720.57,796.91,1080.86,1195.37,82.88,21.83,165.76,43.66,248.64,65.48-13.25-85.02-26.5-170.04-39.75-255.07-391.59-380.57-783.19-761.14-1174.78-1141.71-19.16-21.56-38.33-43.12-57.49-64.69l.63-.61c-27.05-25.3-54.1-50.6-81.14-75.9C331.2-93.9-34.43-487.45-400.07-881.01c-83.17-20.71-166.33-41.41-249.5-62.12,14.4,84.84,28.8,169.67,43.2,254.51C-209.67-313.37,187.03,61.87,583.72,437.12Z"/>
            <g>
              <path class="cls-1" d="M1558.56,1425.85l-10.97-174.2c11.86.77,23.72,1.55,35.58,2.32,169.92-24.25,339.84-48.49,509.76-72.74,25.88,40.8,51.75,81.6,77.63,122.41-19.56,47.63-39.12,95.25-58.69,142.88-174.75-8.52-349.5-17.04-524.25-25.57-9.69,1.63-19.38,3.27-29.06,4.9Z"/>
              <path class="cls-1" d="M1661.97,1345.17l-173.49-19.17c.21,11.88.43,23.77.64,35.65-32.23,168.59-64.46,337.18-96.69,505.76,39.54,27.77,79.07,55.54,118.61,83.31,48.5-17.29,96.99-34.59,145.49-51.88-.27-174.96-.55-349.92-.82-524.88,2.09-9.6,4.18-19.2,6.26-28.8Z"/>
              <path class="cls-1" d="M1298.97,1126.19l-10.97-174.2c11.86.77,23.72,1.55,35.58,2.32,169.92-24.25,339.84-48.49,509.76-72.74,25.88,40.8,51.75,81.6,77.63,122.41-19.56,47.63-39.12,95.25-58.69,142.88-174.75-8.52-349.5-17.04-524.25-25.57-9.69,1.63-19.38,3.27-29.06,4.9Z"/>
              <path class="cls-1" d="M1402.38,1045.52l-173.49-19.17c.21,11.88.43,23.77.64,35.65-32.23,168.59-64.46,337.18-96.69,505.76,39.54,27.77,79.07,55.54,118.61,83.31,48.5-17.29,96.99-34.59,145.49-51.88-.27-174.96-.55-349.92-.82-524.88,2.09-9.6,4.18-19.2,6.26-28.8Z"/>
            </g>
            <g>
              <path class="cls-1" d="M994.64,834.68l-10.97-174.2c11.86.77,23.72,1.55,35.58,2.32,169.92-24.25,339.84-48.49,509.76-72.74,25.88,40.8,51.75,81.6,77.63,122.41-19.56,47.63-39.12,95.25-58.69,142.88-174.75-8.52-349.5-17.04-524.25-25.57-9.69,1.63-19.38,3.27-29.06,4.9Z"/>
              <path class="cls-1" d="M1098.04,754.01l-173.49-19.17c.21,11.88.43,23.77.64,35.65-32.23,168.59-64.46,337.18-96.69,505.76,39.54,27.77,79.07,55.54,118.61,83.31,48.5-17.29,96.99-34.59,145.49-51.88-.27-174.96-.55-349.92-.82-524.88,2.09-9.6,4.18-19.2,6.26-28.8Z"/>
            </g>
            <g>
              <path class="cls-1" d="M736.15,578.2l-10.97-174.2c11.86.77,23.72,1.55,35.58,2.32,169.92-24.25,339.84-48.49,509.76-72.74,25.88,40.8,51.75,81.6,77.63,122.41-19.56,47.63-39.12,95.25-58.69,142.88-174.75-8.52-349.5-17.04-524.25-25.57-9.69,1.63-19.38,3.27-29.06,4.9Z"/>
              <path class="cls-1" d="M839.56,497.52l-173.49-19.17c.21,11.88.43,23.77.64,35.65-32.23,168.59-64.46,337.18-96.69,505.76,39.54,27.77,79.07,55.54,118.61,83.31,48.5-17.29,96.99-34.59,145.49-51.88-.27-174.96-.55-349.92-.82-524.88,2.09-9.6,4.18-19.2,6.26-28.8Z"/>
            </g>
            <g>
              <path class="cls-1" d="M568.25,387.69l173.49,19.17c-.21-11.88-.43-23.77-.64-35.65,32.23-168.59,64.46-337.18,96.69-505.76-39.54-27.77-79.07-55.54-118.61-83.31-48.5,17.29-96.99,34.59-145.49,51.88.27,174.96.55,349.92.82,524.88-2.09,9.6-4.18,19.2-6.26,28.8Z"/>
              <path class="cls-1" d="M653.71,288.2l10.97,174.2c-11.86-.77-23.72-1.55-35.58-2.32-169.92,24.25-339.84,48.49-509.76,72.74-25.88-40.8-51.75-81.6-77.63-122.41,19.56-47.63,39.12-95.25,58.69-142.88,174.75,8.52,349.5,17.04,524.25,25.57,9.69-1.63,19.38-3.27,29.06-4.9Z"/>
            </g>
            <g>
              <path class="cls-1" d="M269.04,88.52l173.49,19.17c-.21-11.88-.43-23.77-.64-35.65,32.23-168.59,64.46-337.18,96.69-505.76-39.54-27.77-79.07-55.54-118.61-83.31-48.5,17.29-96.99,34.59-145.49,51.88.27,174.96.55,349.92.82,524.88-2.09,9.6-4.18,19.2-6.26,28.8Z"/>
              <path class="cls-1" d="M354.5-10.97l10.97,174.2c-11.86-.77-23.72-1.55-35.58-2.32-169.92,24.25-339.84,48.49-509.76,72.74-25.88-40.8-51.75-81.6-77.63-122.41,19.56-47.63,39.12-95.25,58.69-142.88C-24.07-23.12,150.69-14.59,325.44-6.07c9.69-1.63,19.38-3.27,29.06-4.9Z"/>
            </g>
            <g>
              <path class="cls-1" d="M-27.07-221.9l173.49,19.17c-.21-11.88-.43-23.77-.64-35.65,32.23-168.59,64.46-337.18,96.69-505.76-39.54-27.77-79.07-55.54-118.61-83.31-48.5,17.29-96.99,34.59-145.49,51.88.27,174.96.55,349.92.82,524.88-2.09,9.6-4.18,19.2-6.26,28.8Z"/>
              <path class="cls-1" d="M58.39-321.39l10.97,174.2c-11.86-.77-23.72-1.55-35.58-2.32-169.92,24.25-339.84,48.49-509.76,72.74-25.88-40.8-51.75-81.6-77.63-122.41,19.56-47.63,39.12-95.25,58.69-142.88,174.75,8.52,349.5,17.04,524.25,25.57,9.69-1.63,19.38-3.27,29.06-4.9Z"/>
            </g>
            <g>
              <path class="cls-1" d="M-345.09-503.13l173.49,19.17c-.21-11.88-.43-23.77-.64-35.65,32.23-168.59,64.46-337.18,96.69-505.76-39.54-27.77-79.07-55.54-118.61-83.31-48.5,17.29-96.99,34.59-145.49,51.88.27,174.96.55,349.92.82,524.88-2.09,9.6-4.18,19.2-6.26,28.8Z"/>
              <path class="cls-1" d="M-259.63-602.61l10.97,174.2c-11.86-.77-23.72-1.55-35.58-2.32-169.92,24.25-339.84,48.49-509.76,72.74-25.88-40.8-51.75-81.6-77.63-122.41,19.56-47.63,39.12-95.25,58.69-142.88,174.75,8.52,349.5,17.04,524.25,25.57,9.69-1.63,19.38-3.27,29.06-4.9Z"/>
            </g>
          </g>
        </g>
      </g>
    </g>
  </g>
</svg>