<?xml version="1.0" encoding="UTF-8"?>
<svg xmlns="http://www.w3.org/2000/svg" version="1.1" viewBox="0 0 1366 768">
  <defs>
    <style>
      .cls-1 {
        fill: #0059ff;
      }
    </style>
  </defs>
  <!-- Generator: Adobe Illustrator 28.7.1, SVG Export Plug-In . SVG Version: 1.2.0 Build 142)  -->
  <g>
    <g id="Layer_1">
      <path class="cls-1" d="M7074.97,9311.22c-91.01,6.71-803.6,47.25-1242.34-507-44.05-55.65-366.11-475.76-272.45-1007.79,57.45-326.34,245.3-547,354.45-675.21,201.25-236.4,344.2-273.45,503.74-415.68,623.32-555.68,473.89-1581.97,624.84-1578.31,62.82,1.52,77.58,151.3,243.07,646.23,238.53,713.39,284.95,806.38,360.39,889.3,175.12,192.5,285.73,166.88,473.96,409.45,44.5,57.34,162.22,218.45,233,448,28.88,93.67,159.94,555.41-70,1023-339.49,690.37-1156.43,764.15-1208.66,768Z"/>
      <path class="cls-1" d="M8408.26,6779.67c-50.57,3.73-446.49,26.25-690.26-281.69-24.48-30.92-203.42-264.34-151.38-559.94,31.92-181.32,136.29-303.92,196.94-375.15,111.82-131.35,191.24-151.93,279.88-230.95,346.32-308.74,263.3-878.96,347.17-876.93,34.9.85,43.1,84.06,135.05,359.05,132.53,396.37,158.32,448.03,200.23,494.1,97.3,106.96,158.76,92.72,263.34,227.5,24.72,31.86,90.13,121.37,129.46,248.91,16.05,52.05,88.86,308.59-38.89,568.39-188.62,383.58-642.52,424.57-671.54,426.71Z"/>
      <path class="cls-1" d="M6235.26,5296.67c-50.57,3.73-446.49,26.25-690.26-281.69-24.48-30.92-203.42-264.34-151.38-559.94,31.92-181.32,136.29-303.92,196.94-375.15,111.82-131.35,191.24-151.93,279.88-230.95,346.32-308.74,263.3-878.96,347.17-876.93,34.9.85,43.1,84.06,135.05,359.05,132.53,396.37,158.32,448.03,200.23,494.1,97.3,106.96,158.76,92.72,263.34,227.5,24.72,31.86,90.13,121.37,129.46,248.91,16.05,52.05,88.86,308.59-38.89,568.39-188.62,383.58-642.52,424.57-671.54,426.71Z"/>
      <path class="cls-1" d="M9437.26,8936.67c-50.57,3.73-446.49,26.25-690.26-281.69-24.48-30.92-203.42-264.34-151.38-559.94,31.92-181.32,136.29-303.92,196.94-375.15,111.82-131.35,191.24-151.93,279.88-230.95,346.32-308.74,263.3-878.96,347.17-876.93,34.9.85,43.1,84.06,135.05,359.05,132.53,396.37,158.32,448.03,200.23,494.1,97.3,106.96,158.76,92.72,263.34,227.5,24.72,31.86,90.13,121.37,129.46,248.91,16.05,52.05,88.86,308.59-38.89,568.39-188.62,383.58-642.52,424.57-671.54,426.71Z"/>
      <path class="cls-1" d="M5049.26,7622.67c-50.57,3.73-446.49,26.25-690.26-281.69-24.48-30.92-203.42-264.34-151.38-559.94,31.92-181.32,136.29-303.92,196.94-375.15,111.82-131.35,191.24-151.93,279.88-230.95,346.32-308.74,263.3-878.96,347.17-876.93,34.9.85,43.1,84.06,135.05,359.05,132.53,396.37,158.32,448.03,200.23,494.1,97.3,106.96,158.76,92.72,263.34,227.5,24.72,31.86,90.13,121.37,129.46,248.91,16.05,52.05,88.86,308.59-38.89,568.39-188.62,383.58-642.52,424.57-671.54,426.71Z"/>
      <path class="cls-1" d="M5277.26,10726.67c-50.57,3.73-446.49,26.25-690.26-281.69-24.48-30.92-203.42-264.34-151.38-559.94,31.92-181.32,136.29-303.92,196.94-375.15,111.82-131.35,191.24-151.93,279.88-230.95,346.32-308.74,263.3-878.96,347.17-876.93,34.9.85,43.1,84.06,135.05,359.05,132.53,396.37,158.32,448.03,200.23,494.1,97.3,106.96,158.76,92.72,263.34,227.5,24.72,31.86,90.13,121.37,129.46,248.91,16.05,52.05,88.86,308.59-38.89,568.39-188.62,383.58-642.52,424.57-671.54,426.71Z"/>
    </g>
  </g>
</svg>