<?xml version="1.0" encoding="UTF-8"?>
<svg xmlns="http://www.w3.org/2000/svg" version="1.1" viewBox="0 0 6111.3 7974.1">
  <defs>
    <style>
      .cls-1 {
        fill: #0059ff;
      }
    </style>
  </defs>
  <!-- Generator: Adobe Illustrator 28.7.1, SVG Export Plug-In . SVG Version: 1.2.0 Build 142)  -->
  <g>
    <g id="Layer_1">
      <g id="Layer_1-2" data-name="Layer_1">
        <path class="cls-1" d="M2902.2,6431.1c-91,6.7-803.6,47.2-1242.3-507-44-55.7-366.1-475.8-272.5-1007.8,57.5-326.3,245.3-547,354.5-675.2,201.2-236.4,344.2-273.5,503.7-415.7,623.3-555.7,473.9-1582,624.8-1578.3,62.8,1.5,77.6,151.3,243.1,646.2,238.5,713.4,285,806.4,360.4,889.3,175.1,192.5,285.7,166.9,474,409.5,44.5,57.3,162.2,218.5,233,448,28.9,93.7,159.9,555.4-70,1023-339.5,690.4-1156.4,764.2-1208.7,768h0Z"/>
        <path class="cls-1" d="M4235.5,3899.5c-50.6,3.7-446.5,26.2-690.3-281.7-24.5-30.9-203.4-264.3-151.4-559.9,31.9-181.3,136.3-303.9,196.9-375.1,111.8-131.4,191.2-151.9,279.9-231,346.3-308.7,263.3-879,347.2-876.9,34.9.9,43.1,84.1,135,359,132.5,396.4,158.3,448,200.2,494.1,97.3,107,158.8,92.7,263.3,227.5,24.7,31.9,90.1,121.4,129.5,248.9,16,52,88.9,308.6-38.9,568.4-188.6,383.6-642.5,424.6-671.5,426.7h0Z"/>
        <path class="cls-1" d="M2062.5,2416.5c-50.6,3.7-446.5,26.2-690.3-281.7-24.5-30.9-203.4-264.3-151.4-559.9,31.9-181.3,136.3-303.9,196.9-375.1,111.8-131.4,191.2-151.9,279.9-230.9,346.3-308.7,263.3-879,347.2-876.9,34.9.9,43.1,84.1,135,359.1,132.5,396.4,158.3,448,200.2,494.1,97.3,107,158.8,92.7,263.3,227.5,24.7,31.9,90.1,121.4,129.5,248.9,16,52,88.9,308.6-38.9,568.4-188.6,383.6-642.5,424.6-671.5,426.7h0Z"/>
        <path class="cls-1" d="M5264.5,6056.5c-50.6,3.7-446.5,26.2-690.3-281.7-24.5-30.9-203.4-264.3-151.4-559.9,31.9-181.3,136.3-303.9,196.9-375.1,111.8-131.4,191.2-151.9,279.9-231,346.3-308.7,263.3-879,347.2-876.9,34.9.9,43.1,84.1,135,359,132.5,396.4,158.3,448,200.2,494.1,97.3,107,158.8,92.7,263.3,227.5,24.7,31.9,90.1,121.4,129.5,248.9,16,52,88.9,308.6-38.9,568.4-188.6,383.6-642.5,424.6-671.5,426.7h0Z"/>
        <path class="cls-1" d="M876.5,4742.5c-50.6,3.7-446.5,26.2-690.3-281.7-24.5-30.9-203.4-264.3-151.4-559.9,31.9-181.3,136.3-303.9,196.9-375.1,111.8-131.4,191.2-151.9,279.9-231,346.3-308.7,263.3-879,347.2-876.9,34.9.9,43.1,84.1,135,359,132.5,396.4,158.3,448,200.2,494.1,97.3,107,158.8,92.7,263.3,227.5,24.7,31.9,90.1,121.4,129.5,248.9,16,52,88.9,308.6-38.9,568.4-188.6,383.6-642.5,424.6-671.5,426.7h0Z"/>
        <path class="cls-1" d="M1104.5,7846.5c-50.6,3.7-446.5,26.2-690.3-281.7-24.5-30.9-203.4-264.3-151.4-559.9,31.9-181.3,136.3-303.9,196.9-375.2,111.8-131.3,191.2-151.9,279.9-231,346.3-308.7,263.3-879,347.2-876.9,34.9.8,43.1,84.1,135,359,132.5,396.4,158.3,448,200.2,494.1,97.3,107,158.8,92.7,263.3,227.5,24.7,31.9,90.1,121.4,129.5,248.9,16,52,88.9,308.6-38.9,568.4-188.6,383.6-642.5,424.6-671.5,426.7h0Z"/>
      </g>
    </g>
  </g>
</svg>